<?xml version="1.0" encoding="utf-8" standalone="no"?>
<!DOCTYPE svg PUBLIC "-//W3C//DTD SVG 1.1//EN"
  "http://www.w3.org/Graphics/SVG/1.1/DTD/svg11.dtd">
<svg xmlns:xlink="http://www.w3.org/1999/xlink" width="330pt" height="99.84pt" viewBox="0 0 330 99.84" xmlns="http://www.w3.org/2000/svg" version="1.1">
 <metadata>
  <rdf:RDF xmlns:dc="http://purl.org/dc/elements/1.1/" xmlns:cc="http://creativecommons.org/ns#" xmlns:rdf="http://www.w3.org/1999/02/22-rdf-syntax-ns#">
   <cc:Work>
    <dc:type rdf:resource="http://purl.org/dc/dcmitype/StillImage"/>
    <dc:date>2025-12-02T06:39:08.500863</dc:date>
    <dc:format>image/svg+xml</dc:format>
    <dc:creator>
     <cc:Agent>
      <dc:title>Matplotlib v3.10.3, https://matplotlib.org/</dc:title>
     </cc:Agent>
    </dc:creator>
   </cc:Work>
  </rdf:RDF>
 </metadata>
 <defs>
  <style type="text/css">*{stroke-linejoin: round; stroke-linecap: butt}</style>
 </defs>
 <g id="figure_1">
  <g id="patch_1">
   <path d="M 0 99.84 
L 330 99.84 
L 330 0 
L 0 0 
z
" style="fill: #ffffff"/>
  </g>
  <g id="axes_1">
   <g id="patch_2">
    <path d="M 20 36.9408 
C 24.508453 36.9408 28.832858 35.152439 32.020815 31.969582 
C 35.208773 28.786725 37 24.469239 37 19.968 
C 37 15.466761 35.208773 11.149275 32.020815 7.966418 
C 28.832858 4.783561 24.508453 2.9952 20 2.9952 
C 15.491547 2.9952 11.167142 4.783561 7.979185 7.966418 
C 4.791227 11.149275 3 15.466761 3 19.968 
C 3 24.469239 4.791227 28.786725 7.979185 31.969582 
C 11.167142 35.152439 15.491547 36.9408 20 36.9408 
L 20 36.9408 
z
" clip-path="url(#p1b6ddbba14)" style="fill: none; stroke: #000000; stroke-linejoin: miter"/>
   </g>
   <g id="patch_3">
    <path d="M 100 36.9408 
C 104.508453 36.9408 108.832858 35.152439 112.020815 31.969582 
C 115.208773 28.786725 117 24.469239 117 19.968 
C 117 15.466761 115.208773 11.149275 112.020815 7.966418 
C 108.832858 4.783561 104.508453 2.9952 100 2.9952 
C 95.491547 2.9952 91.167142 4.783561 87.979185 7.966418 
C 84.791227 11.149275 83 15.466761 83 19.968 
C 83 24.469239 84.791227 28.786725 87.979185 31.969582 
C 91.167142 35.152439 95.491547 36.9408 100 36.9408 
L 100 36.9408 
z
" clip-path="url(#p1b6ddbba14)" style="fill: none; stroke: #000000; stroke-linejoin: miter"/>
   </g>
   <g id="patch_4">
    <path d="M 180 36.9408 
C 184.508453 36.9408 188.832858 35.152439 192.020815 31.969582 
C 195.208773 28.786725 197 24.469239 197 19.968 
C 197 15.466761 195.208773 11.149275 192.020815 7.966418 
C 188.832858 4.783561 184.508453 2.9952 180 2.9952 
C 175.491547 2.9952 171.167142 4.783561 167.979185 7.966418 
C 164.791227 11.149275 163 15.466761 163 19.968 
C 163 24.469239 164.791227 28.786725 167.979185 31.969582 
C 171.167142 35.152439 175.491547 36.9408 180 36.9408 
L 180 36.9408 
z
" clip-path="url(#p1b6ddbba14)" style="fill: none; stroke: #000000; stroke-linejoin: miter"/>
   </g>
   <g id="patch_5">
    <path d="M 260 36.9408 
C 264.508453 36.9408 268.832858 35.152439 272.020815 31.969582 
C 275.208773 28.786725 277 24.469239 277 19.968 
C 277 15.466761 275.208773 11.149275 272.020815 7.966418 
C 268.832858 4.783561 264.508453 2.9952 260 2.9952 
C 255.491547 2.9952 251.167142 4.783561 247.979185 7.966418 
C 244.791227 11.149275 243 15.466761 243 19.968 
C 243 24.469239 244.791227 28.786725 247.979185 31.969582 
C 251.167142 35.152439 255.491547 36.9408 260 36.9408 
L 260 36.9408 
z
" clip-path="url(#p1b6ddbba14)" style="fill: none; stroke: #000000; stroke-linejoin: miter"/>
   </g>
   <g id="patch_6">
    <path d="M 60 96.8448 
C 64.508453 96.8448 68.832858 95.056439 72.020815 91.873582 
C 75.208773 88.690725 77 84.373239 77 79.872 
C 77 75.370761 75.208773 71.053275 72.020815 67.870418 
C 68.832858 64.687561 64.508453 62.8992 60 62.8992 
C 55.491547 62.8992 51.167142 64.687561 47.979185 67.870418 
C 44.791227 71.053275 43 75.370761 43 79.872 
C 43 84.373239 44.791227 88.690725 47.979185 91.873582 
C 51.167142 95.056439 55.491547 96.8448 60 96.8448 
L 60 96.8448 
z
" clip-path="url(#p1b6ddbba14)" style="fill: none; stroke: #000000; stroke-linejoin: miter"/>
   </g>
   <g id="patch_7">
    <path d="M 140 96.8448 
C 144.508453 96.8448 148.832858 95.056439 152.020815 91.873582 
C 155.208773 88.690725 157 84.373239 157 79.872 
C 157 75.370761 155.208773 71.053275 152.020815 67.870418 
C 148.832858 64.687561 144.508453 62.8992 140 62.8992 
C 135.491547 62.8992 131.167142 64.687561 127.979185 67.870418 
C 124.791227 71.053275 123 75.370761 123 79.872 
C 123 84.373239 124.791227 88.690725 127.979185 91.873582 
C 131.167142 95.056439 135.491547 96.8448 140 96.8448 
L 140 96.8448 
z
" clip-path="url(#p1b6ddbba14)" style="fill: none; stroke: #000000; stroke-linejoin: miter"/>
   </g>
   <g id="patch_8">
    <path d="M 220 96.8448 
C 224.508453 96.8448 228.832858 95.056439 232.020815 91.873582 
C 235.208773 88.690725 237 84.373239 237 79.872 
C 237 75.370761 235.208773 71.053275 232.020815 67.870418 
C 228.832858 64.687561 224.508453 62.8992 220 62.8992 
C 215.491547 62.8992 211.167142 64.687561 207.979185 67.870418 
C 204.791227 71.053275 203 75.370761 203 79.872 
C 203 84.373239 204.791227 88.690725 207.979185 91.873582 
C 211.167142 95.056439 215.491547 96.8448 220 96.8448 
L 220 96.8448 
z
" clip-path="url(#p1b6ddbba14)" style="fill: none; stroke: #000000; stroke-linejoin: miter"/>
   </g>
   <g id="patch_9">
    <path d="M 36.99707 19.968 
Q 59.998292 19.968 81.881481 19.968 
" clip-path="url(#p1b6ddbba14)" style="fill: none; stroke: #000000; stroke-linecap: round"/>
    <path d="M 73.881481 15.968 
L 81.881481 19.968 
L 73.881481 23.968 
" clip-path="url(#p1b6ddbba14)" style="fill: none; stroke: #000000; stroke-linecap: round"/>
   </g>
   <g id="patch_10">
    <path d="M 116.99707 19.968 
Q 139.998292 19.968 161.881481 19.968 
" clip-path="url(#p1b6ddbba14)" style="fill: none; stroke: #000000; stroke-linecap: round"/>
    <path d="M 153.881481 15.968 
L 161.881481 19.968 
L 153.881481 23.968 
" clip-path="url(#p1b6ddbba14)" style="fill: none; stroke: #000000; stroke-linecap: round"/>
   </g>
   <g id="patch_11">
    <path d="M 196.99707 19.968 
Q 219.998292 19.968 241.881481 19.968 
" clip-path="url(#p1b6ddbba14)" style="fill: none; stroke: #000000; stroke-linecap: round"/>
    <path d="M 233.881481 15.968 
L 241.881481 19.968 
L 233.881481 23.968 
" clip-path="url(#p1b6ddbba14)" style="fill: none; stroke: #000000; stroke-linecap: round"/>
   </g>
   <g id="patch_12">
    <path d="M 276.99707 19.968 
Q 299.998292 19.968 321.881481 19.968 
" clip-path="url(#p1b6ddbba14)" style="fill: none; stroke: #000000; stroke-linecap: round"/>
    <path d="M 313.881481 15.968 
L 321.881481 19.968 
L 313.881481 23.968 
" clip-path="url(#p1b6ddbba14)" style="fill: none; stroke: #000000; stroke-linecap: round"/>
   </g>
   <g id="patch_13">
    <path d="M 29.440918 34.106719 
Q 40.000625 49.920936 49.939471 64.805352 
" clip-path="url(#p1b6ddbba14)" style="fill: none; stroke: #000000; stroke-linecap: round"/>
    <path d="M 48.82351 55.930971 
L 49.939471 64.805352 
L 42.17039 60.373493 
" clip-path="url(#p1b6ddbba14)" style="fill: none; stroke: #000000; stroke-linecap: round"/>
   </g>
   <g id="patch_14">
    <path d="M 109.440918 34.106719 
Q 120.000625 49.920936 129.939471 64.805352 
" clip-path="url(#p1b6ddbba14)" style="fill: none; stroke: #000000; stroke-linecap: round"/>
    <path d="M 128.82351 55.930971 
L 129.939471 64.805352 
L 122.17039 60.373493 
" clip-path="url(#p1b6ddbba14)" style="fill: none; stroke: #000000; stroke-linecap: round"/>
   </g>
   <g id="patch_15">
    <path d="M 189.440918 34.106719 
Q 200.000625 49.920936 209.939471 64.805352 
" clip-path="url(#p1b6ddbba14)" style="fill: none; stroke: #000000; stroke-linecap: round"/>
    <path d="M 208.82351 55.930971 
L 209.939471 64.805352 
L 202.17039 60.373493 
" clip-path="url(#p1b6ddbba14)" style="fill: none; stroke: #000000; stroke-linecap: round"/>
   </g>
   <g id="patch_16">
    <path d="M 269.440918 34.106719 
Q 280.000625 49.920936 289.939471 64.805352 
" clip-path="url(#p1b6ddbba14)" style="fill: none; stroke: #000000; stroke-linecap: round"/>
    <path d="M 288.82351 55.930971 
L 289.939471 64.805352 
L 282.17039 60.373493 
" clip-path="url(#p1b6ddbba14)" style="fill: none; stroke: #000000; stroke-linecap: round"/>
   </g>
   <g id="patch_17">
    <path d="M 69.440918 65.733281 
Q 80.000625 49.919064 89.939471 35.034648 
" clip-path="url(#p1b6ddbba14)" style="fill: none; stroke: #000000; stroke-linecap: round"/>
    <path d="M 82.17039 39.466507 
L 89.939471 35.034648 
L 88.82351 43.909029 
" clip-path="url(#p1b6ddbba14)" style="fill: none; stroke: #000000; stroke-linecap: round"/>
   </g>
   <g id="patch_18">
    <path d="M 149.440918 65.733281 
Q 160.000625 49.919064 169.939471 35.034648 
" clip-path="url(#p1b6ddbba14)" style="fill: none; stroke: #000000; stroke-linecap: round"/>
    <path d="M 162.17039 39.466507 
L 169.939471 35.034648 
L 168.82351 43.909029 
" clip-path="url(#p1b6ddbba14)" style="fill: none; stroke: #000000; stroke-linecap: round"/>
   </g>
   <g id="patch_19">
    <path d="M 229.440918 65.733281 
Q 240.000625 49.919064 249.939471 35.034648 
" clip-path="url(#p1b6ddbba14)" style="fill: none; stroke: #000000; stroke-linecap: round"/>
    <path d="M 242.17039 39.466507 
L 249.939471 35.034648 
L 248.82351 43.909029 
" clip-path="url(#p1b6ddbba14)" style="fill: none; stroke: #000000; stroke-linecap: round"/>
   </g>
   <g id="text_1">
    <!-- $\mathbf{s}_0$ -->
    <g transform="translate(13.98 22.908) scale(0.14 -0.14)">
     <defs>
      <path id="Cmb10-73" d="M 213 44 
L 213 934 
Q 228 994 294 1013 
L 459 1013 
Q 522 991 538 934 
Q 703 219 1259 219 
Q 1825 219 1825 684 
Q 1825 800 1765 892 
Q 1706 984 1609 1045 
Q 1513 1106 1403 1131 
L 1019 1209 
Q 672 1294 442 1508 
Q 213 1722 213 2041 
Q 213 2272 292 2440 
Q 372 2609 517 2711 
Q 663 2813 847 2856 
Q 1031 2900 1259 2900 
Q 1559 2900 1759 2791 
L 1966 2894 
L 1991 2900 
L 2069 2900 
Q 2128 2884 2144 2822 
L 2144 2119 
Q 2128 2050 2069 2034 
L 1900 2034 
Q 1834 2050 1819 2119 
Q 1819 2288 1748 2411 
Q 1678 2534 1550 2601 
Q 1422 2669 1247 2669 
Q 691 2669 691 2284 
Q 691 2144 811 2048 
Q 931 1953 1088 1913 
L 1478 1838 
Q 1713 1778 1897 1654 
Q 2081 1531 2192 1339 
Q 2303 1147 2303 909 
Q 2303 428 2022 195 
Q 1741 -38 1259 -38 
Q 897 -38 659 141 
L 391 -31 
L 366 -38 
L 294 -38 
Q 228 -22 213 44 
z
" transform="scale(0.015625)"/>
      <path id="Cmr10-30" d="M 1600 -141 
Q 816 -141 533 504 
Q 250 1150 250 2041 
Q 250 2597 351 3087 
Q 453 3578 754 3920 
Q 1056 4263 1600 4263 
Q 2022 4263 2290 4056 
Q 2559 3850 2700 3523 
Q 2841 3197 2892 2823 
Q 2944 2450 2944 2041 
Q 2944 1491 2842 1011 
Q 2741 531 2444 195 
Q 2147 -141 1600 -141 
z
M 1600 25 
Q 1956 25 2131 390 
Q 2306 756 2347 1200 
Q 2388 1644 2388 2144 
Q 2388 2625 2347 3031 
Q 2306 3438 2132 3767 
Q 1959 4097 1600 4097 
Q 1238 4097 1063 3765 
Q 888 3434 847 3029 
Q 806 2625 806 2144 
Q 806 1788 823 1472 
Q 841 1156 916 820 
Q 991 484 1158 254 
Q 1325 25 1600 25 
z
" transform="scale(0.015625)"/>
     </defs>
     <use xlink:href="#Cmb10-73" transform="translate(0 0.6875)"/>
     <use xlink:href="#Cmr10-30" transform="translate(43.868437 -16.31875) scale(0.7)"/>
    </g>
   </g>
   <g id="text_2">
    <!-- $\mathbf{s}_1$ -->
    <g transform="translate(93.98 22.908) scale(0.14 -0.14)">
     <defs>
      <path id="Cmr10-31" d="M 594 0 
L 594 225 
Q 1394 225 1394 428 
L 1394 3788 
Q 1063 3628 556 3628 
L 556 3853 
Q 1341 3853 1741 4263 
L 1831 4263 
Q 1853 4263 1873 4245 
Q 1894 4228 1894 4206 
L 1894 428 
Q 1894 225 2694 225 
L 2694 0 
L 594 0 
z
" transform="scale(0.015625)"/>
     </defs>
     <use xlink:href="#Cmb10-73" transform="translate(0 0.6875)"/>
     <use xlink:href="#Cmr10-31" transform="translate(43.868437 -16.31875) scale(0.7)"/>
    </g>
   </g>
   <g id="text_3">
    <!-- $\mathbf{s}_2$ -->
    <g transform="translate(173.98 22.908) scale(0.14 -0.14)">
     <defs>
      <path id="Cmr10-32" d="M 319 0 
L 319 172 
Q 319 188 331 206 
L 1325 1306 
Q 1550 1550 1690 1715 
Q 1831 1881 1968 2097 
Q 2106 2313 2186 2536 
Q 2266 2759 2266 3009 
Q 2266 3272 2169 3511 
Q 2072 3750 1880 3894 
Q 1688 4038 1416 4038 
Q 1138 4038 916 3870 
Q 694 3703 603 3438 
Q 628 3444 672 3444 
Q 816 3444 917 3347 
Q 1019 3250 1019 3097 
Q 1019 2950 917 2848 
Q 816 2747 672 2747 
Q 522 2747 420 2851 
Q 319 2956 319 3097 
Q 319 3338 409 3548 
Q 500 3759 670 3923 
Q 841 4088 1055 4175 
Q 1269 4263 1509 4263 
Q 1875 4263 2190 4108 
Q 2506 3953 2690 3670 
Q 2875 3388 2875 3009 
Q 2875 2731 2753 2481 
Q 2631 2231 2440 2026 
Q 2250 1822 1953 1562 
Q 1656 1303 1563 1216 
L 838 519 
L 1453 519 
Q 1906 519 2211 526 
Q 2516 534 2534 550 
Q 2609 631 2688 1141 
L 2875 1141 
L 2694 0 
L 319 0 
z
" transform="scale(0.015625)"/>
     </defs>
     <use xlink:href="#Cmb10-73" transform="translate(0 0.6875)"/>
     <use xlink:href="#Cmr10-32" transform="translate(43.868437 -16.31875) scale(0.7)"/>
    </g>
   </g>
   <g id="text_4">
    <!-- $\mathbf{s}_3$ -->
    <g transform="translate(253.98 22.908) scale(0.14 -0.14)">
     <defs>
      <path id="Cmr10-33" d="M 609 494 
Q 759 275 1012 169 
Q 1266 63 1556 63 
Q 1928 63 2084 380 
Q 2241 697 2241 1100 
Q 2241 1281 2208 1462 
Q 2175 1644 2097 1800 
Q 2019 1956 1883 2050 
Q 1747 2144 1550 2144 
L 1125 2144 
Q 1069 2144 1069 2203 
L 1069 2259 
Q 1069 2309 1125 2309 
L 1478 2338 
Q 1703 2338 1851 2506 
Q 2000 2675 2069 2917 
Q 2138 3159 2138 3378 
Q 2138 3684 1994 3881 
Q 1850 4078 1556 4078 
Q 1313 4078 1091 3986 
Q 869 3894 738 3706 
Q 750 3709 759 3711 
Q 769 3713 781 3713 
Q 925 3713 1022 3613 
Q 1119 3513 1119 3372 
Q 1119 3234 1022 3134 
Q 925 3034 781 3034 
Q 641 3034 541 3134 
Q 441 3234 441 3372 
Q 441 3647 606 3850 
Q 772 4053 1033 4158 
Q 1294 4263 1556 4263 
Q 1750 4263 1965 4205 
Q 2181 4147 2356 4039 
Q 2531 3931 2642 3762 
Q 2753 3594 2753 3378 
Q 2753 3109 2633 2881 
Q 2513 2653 2303 2487 
Q 2094 2322 1844 2241 
Q 2122 2188 2372 2031 
Q 2622 1875 2773 1631 
Q 2925 1388 2925 1106 
Q 2925 753 2731 467 
Q 2538 181 2222 20 
Q 1906 -141 1556 -141 
Q 1256 -141 954 -26 
Q 653 88 461 316 
Q 269 544 269 863 
Q 269 1022 375 1128 
Q 481 1234 641 1234 
Q 744 1234 830 1186 
Q 916 1138 964 1050 
Q 1013 963 1013 863 
Q 1013 706 903 600 
Q 794 494 641 494 
L 609 494 
z
" transform="scale(0.015625)"/>
     </defs>
     <use xlink:href="#Cmb10-73" transform="translate(0 0.6875)"/>
     <use xlink:href="#Cmr10-33" transform="translate(43.868437 -16.31875) scale(0.7)"/>
    </g>
   </g>
   <g id="text_5">
    <!-- $\mathbf{a}_0$ -->
    <g transform="translate(53.35 82.812) scale(0.14 -0.14)">
     <defs>
      <path id="Cmb10-61" d="M 178 716 
Q 178 1081 468 1304 
Q 759 1528 1157 1618 
Q 1556 1709 1925 1709 
L 1925 1947 
Q 1925 2228 1803 2436 
Q 1681 2644 1416 2644 
Q 1244 2644 1050 2613 
Q 1184 2488 1184 2297 
Q 1184 2119 1068 2000 
Q 953 1881 775 1881 
Q 597 1881 478 2000 
Q 359 2119 359 2297 
Q 359 2541 529 2675 
Q 700 2809 937 2854 
Q 1175 2900 1422 2900 
Q 1731 2900 2018 2804 
Q 2306 2709 2493 2498 
Q 2681 2288 2681 1966 
L 2681 453 
Q 2709 325 3003 325 
Q 3084 306 3103 225 
L 3103 103 
Q 3084 19 3003 0 
L 2559 0 
Q 2366 0 2200 100 
Q 2034 200 2034 384 
L 2034 434 
Q 1922 219 1709 90 
Q 1497 -38 1253 -38 
Q 850 -38 514 153 
Q 178 344 178 716 
z
M 1331 219 
Q 1497 219 1633 305 
Q 1769 391 1847 533 
Q 1925 675 1925 838 
L 1925 1478 
Q 1697 1478 1472 1389 
Q 1247 1300 1100 1125 
Q 953 950 953 716 
Q 953 534 1058 376 
Q 1163 219 1331 219 
z
" transform="scale(0.015625)"/>
     </defs>
     <use xlink:href="#Cmb10-61" transform="translate(0 0.6875)"/>
     <use xlink:href="#Cmr10-30" transform="translate(53.048125 -16.31875) scale(0.7)"/>
    </g>
   </g>
   <g id="text_6">
    <!-- $\mathbf{a}_1$ -->
    <g transform="translate(133.35 82.812) scale(0.14 -0.14)">
     <use xlink:href="#Cmb10-61" transform="translate(0 0.6875)"/>
     <use xlink:href="#Cmr10-31" transform="translate(53.048125 -16.31875) scale(0.7)"/>
    </g>
   </g>
   <g id="text_7">
    <!-- $\mathbf{a}_2$ -->
    <g transform="translate(213.35 82.812) scale(0.14 -0.14)">
     <use xlink:href="#Cmb10-61" transform="translate(0 0.6875)"/>
     <use xlink:href="#Cmr10-32" transform="translate(53.048125 -16.31875) scale(0.7)"/>
    </g>
   </g>
  </g>
 </g>
 <defs>
  <clipPath id="p1b6ddbba14">
   <rect x="0" y="0" width="330" height="99.84"/>
  </clipPath>
 </defs>
</svg>
