<?xml version="1.0" encoding="utf-8" standalone="no"?>
<!DOCTYPE svg PUBLIC "-//W3C//DTD SVG 1.1//EN"
  "http://www.w3.org/Graphics/SVG/1.1/DTD/svg11.dtd">
<svg xmlns:xlink="http://www.w3.org/1999/xlink" width="330pt" height="139.92pt" viewBox="0 0 330 139.92" xmlns="http://www.w3.org/2000/svg" version="1.1">
 <metadata>
  <rdf:RDF xmlns:dc="http://purl.org/dc/elements/1.1/" xmlns:cc="http://creativecommons.org/ns#" xmlns:rdf="http://www.w3.org/1999/02/22-rdf-syntax-ns#">
   <cc:Work>
    <dc:type rdf:resource="http://purl.org/dc/dcmitype/StillImage"/>
    <dc:date>2025-12-14T07:37:03.603296</dc:date>
    <dc:format>image/svg+xml</dc:format>
    <dc:creator>
     <cc:Agent>
      <dc:title>Matplotlib v3.10.3, https://matplotlib.org/</dc:title>
     </cc:Agent>
    </dc:creator>
   </cc:Work>
  </rdf:RDF>
 </metadata>
 <defs>
  <style type="text/css">*{stroke-linejoin: round; stroke-linecap: butt}</style>
 </defs>
 <g id="figure_1">
  <g id="patch_1">
   <path d="M 0 139.92 
L 330 139.92 
L 330 0 
L 0 0 
z
" style="fill: #ffffff"/>
  </g>
  <g id="axes_1">
   <g id="patch_2">
    <path d="M 20 86.950286 
C 24.508453 86.950286 28.832858 85.160082 32.020815 81.973946 
C 35.208773 78.78781 37 74.465876 37 69.96 
C 37 65.454124 35.208773 61.13219 32.020815 57.946054 
C 28.832858 54.759918 24.508453 52.969714 20 52.969714 
C 15.491547 52.969714 11.167142 54.759918 7.979185 57.946054 
C 4.791227 61.13219 3 65.454124 3 69.96 
C 3 74.465876 4.791227 78.78781 7.979185 81.973946 
C 11.167142 85.160082 15.491547 86.950286 20 86.950286 
L 20 86.950286 
z
" clip-path="url(#pc09f3f331a)" style="fill: none; stroke: #000000; stroke-linejoin: miter"/>
   </g>
   <g id="patch_3">
    <path d="M 100 86.950286 
C 104.508453 86.950286 108.832858 85.160082 112.020815 81.973946 
C 115.208773 78.78781 117 74.465876 117 69.96 
C 117 65.454124 115.208773 61.13219 112.020815 57.946054 
C 108.832858 54.759918 104.508453 52.969714 100 52.969714 
C 95.491547 52.969714 91.167142 54.759918 87.979185 57.946054 
C 84.791227 61.13219 83 65.454124 83 69.96 
C 83 74.465876 84.791227 78.78781 87.979185 81.973946 
C 91.167142 85.160082 95.491547 86.950286 100 86.950286 
L 100 86.950286 
z
" clip-path="url(#pc09f3f331a)" style="fill: none; stroke: #000000; stroke-linejoin: miter"/>
   </g>
   <g id="patch_4">
    <path d="M 180 86.950286 
C 184.508453 86.950286 188.832858 85.160082 192.020815 81.973946 
C 195.208773 78.78781 197 74.465876 197 69.96 
C 197 65.454124 195.208773 61.13219 192.020815 57.946054 
C 188.832858 54.759918 184.508453 52.969714 180 52.969714 
C 175.491547 52.969714 171.167142 54.759918 167.979185 57.946054 
C 164.791227 61.13219 163 65.454124 163 69.96 
C 163 74.465876 164.791227 78.78781 167.979185 81.973946 
C 171.167142 85.160082 175.491547 86.950286 180 86.950286 
L 180 86.950286 
z
" clip-path="url(#pc09f3f331a)" style="fill: none; stroke: #000000; stroke-linejoin: miter"/>
   </g>
   <g id="patch_5">
    <path d="M 260 86.950286 
C 264.508453 86.950286 268.832858 85.160082 272.020815 81.973946 
C 275.208773 78.78781 277 74.465876 277 69.96 
C 277 65.454124 275.208773 61.13219 272.020815 57.946054 
C 268.832858 54.759918 264.508453 52.969714 260 52.969714 
C 255.491547 52.969714 251.167142 54.759918 247.979185 57.946054 
C 244.791227 61.13219 243 65.454124 243 69.96 
C 243 74.465876 244.791227 78.78781 247.979185 81.973946 
C 251.167142 85.160082 255.491547 86.950286 260 86.950286 
L 260 86.950286 
z
" clip-path="url(#pc09f3f331a)" style="fill: none; stroke: #000000; stroke-linejoin: miter"/>
   </g>
   <g id="patch_6">
    <path d="M 60 136.921714 
C 64.508453 136.921714 68.832858 135.131511 72.020815 131.945375 
C 75.208773 128.759239 77 124.437305 77 119.931429 
C 77 115.425552 75.208773 111.103618 72.020815 107.917482 
C 68.832858 104.731347 64.508453 102.941143 60 102.941143 
C 55.491547 102.941143 51.167142 104.731347 47.979185 107.917482 
C 44.791227 111.103618 43 115.425552 43 119.931429 
C 43 124.437305 44.791227 128.759239 47.979185 131.945375 
C 51.167142 135.131511 55.491547 136.921714 60 136.921714 
L 60 136.921714 
z
" clip-path="url(#pc09f3f331a)" style="fill: none; stroke: #000000; stroke-linejoin: miter"/>
   </g>
   <g id="patch_7">
    <path d="M 140 136.921714 
C 144.508453 136.921714 148.832858 135.131511 152.020815 131.945375 
C 155.208773 128.759239 157 124.437305 157 119.931429 
C 157 115.425552 155.208773 111.103618 152.020815 107.917482 
C 148.832858 104.731347 144.508453 102.941143 140 102.941143 
C 135.491547 102.941143 131.167142 104.731347 127.979185 107.917482 
C 124.791227 111.103618 123 115.425552 123 119.931429 
C 123 124.437305 124.791227 128.759239 127.979185 131.945375 
C 131.167142 135.131511 135.491547 136.921714 140 136.921714 
L 140 136.921714 
z
" clip-path="url(#pc09f3f331a)" style="fill: none; stroke: #000000; stroke-linejoin: miter"/>
   </g>
   <g id="patch_8">
    <path d="M 220 136.921714 
C 224.508453 136.921714 228.832858 135.131511 232.020815 131.945375 
C 235.208773 128.759239 237 124.437305 237 119.931429 
C 237 115.425552 235.208773 111.103618 232.020815 107.917482 
C 228.832858 104.731347 224.508453 102.941143 220 102.941143 
C 215.491547 102.941143 211.167142 104.731347 207.979185 107.917482 
C 204.791227 111.103618 203 115.425552 203 119.931429 
C 203 124.437305 204.791227 128.759239 207.979185 131.945375 
C 211.167142 135.131511 215.491547 136.921714 220 136.921714 
L 220 136.921714 
z
" clip-path="url(#pc09f3f331a)" style="fill: none; stroke: #000000; stroke-linejoin: miter"/>
   </g>
   <g id="patch_9">
    <path d="M 60 36.978857 
C 64.508453 36.978857 68.832858 35.188653 72.020815 32.002518 
C 75.208773 28.816382 77 24.494448 77 19.988571 
C 77 15.482695 75.208773 11.160761 72.020815 7.974625 
C 68.832858 4.788489 64.508453 2.998286 60 2.998286 
C 55.491547 2.998286 51.167142 4.788489 47.979185 7.974625 
C 44.791227 11.160761 43 15.482695 43 19.988571 
C 43 24.494448 44.791227 28.816382 47.979185 32.002518 
C 51.167142 35.188653 55.491547 36.978857 60 36.978857 
L 60 36.978857 
z
" clip-path="url(#pc09f3f331a)" style="fill: none; stroke: #000000; stroke-linejoin: miter"/>
   </g>
   <g id="patch_10">
    <path d="M 140 36.978857 
C 144.508453 36.978857 148.832858 35.188653 152.020815 32.002518 
C 155.208773 28.816382 157 24.494448 157 19.988571 
C 157 15.482695 155.208773 11.160761 152.020815 7.974625 
C 148.832858 4.788489 144.508453 2.998286 140 2.998286 
C 135.491547 2.998286 131.167142 4.788489 127.979185 7.974625 
C 124.791227 11.160761 123 15.482695 123 19.988571 
C 123 24.494448 124.791227 28.816382 127.979185 32.002518 
C 131.167142 35.188653 135.491547 36.978857 140 36.978857 
L 140 36.978857 
z
" clip-path="url(#pc09f3f331a)" style="fill: none; stroke: #000000; stroke-linejoin: miter"/>
   </g>
   <g id="patch_11">
    <path d="M 220 36.978857 
C 224.508453 36.978857 228.832858 35.188653 232.020815 32.002518 
C 235.208773 28.816382 237 24.494448 237 19.988571 
C 237 15.482695 235.208773 11.160761 232.020815 7.974625 
C 228.832858 4.788489 224.508453 2.998286 220 2.998286 
C 215.491547 2.998286 211.167142 4.788489 207.979185 7.974625 
C 204.791227 11.160761 203 15.482695 203 19.988571 
C 203 24.494448 204.791227 28.816382 207.979185 32.002518 
C 211.167142 35.188653 215.491547 36.978857 220 36.978857 
L 220 36.978857 
z
" clip-path="url(#pc09f3f331a)" style="fill: none; stroke: #000000; stroke-linejoin: miter"/>
   </g>
   <g id="patch_12">
    <path d="M 36.99707 69.96 
Q 59.998292 69.96 81.881481 69.96 
" clip-path="url(#pc09f3f331a)" style="fill: none; stroke: #000000; stroke-linecap: round"/>
    <path d="M 73.881481 65.96 
L 81.881481 69.96 
L 73.881481 73.96 
" clip-path="url(#pc09f3f331a)" style="fill: none; stroke: #000000; stroke-linecap: round"/>
   </g>
   <g id="patch_13">
    <path d="M 116.99707 69.96 
Q 139.998292 69.96 161.881481 69.96 
" clip-path="url(#pc09f3f331a)" style="fill: none; stroke: #000000; stroke-linecap: round"/>
    <path d="M 153.881481 65.96 
L 161.881481 69.96 
L 153.881481 73.96 
" clip-path="url(#pc09f3f331a)" style="fill: none; stroke: #000000; stroke-linecap: round"/>
   </g>
   <g id="patch_14">
    <path d="M 196.99707 69.96 
Q 219.998292 69.96 241.881481 69.96 
" clip-path="url(#pc09f3f331a)" style="fill: none; stroke: #000000; stroke-linecap: round"/>
    <path d="M 233.881481 65.96 
L 241.881481 69.96 
L 233.881481 73.96 
" clip-path="url(#pc09f3f331a)" style="fill: none; stroke: #000000; stroke-linecap: round"/>
   </g>
   <g id="patch_15">
    <path d="M 276.99707 69.96 
Q 299.998292 69.96 321.881481 69.96 
" clip-path="url(#pc09f3f331a)" style="fill: none; stroke: #000000; stroke-linecap: round"/>
    <path d="M 313.881481 65.96 
L 321.881481 69.96 
L 313.881481 73.96 
" clip-path="url(#pc09f3f331a)" style="fill: none; stroke: #000000; stroke-linecap: round"/>
   </g>
   <g id="patch_16">
    <path d="M 30.622559 83.230611 
Q 39.999349 94.944901 48.677465 105.786348 
" clip-path="url(#pc09f3f331a)" style="fill: none; stroke: #000000; stroke-linecap: round"/>
    <path d="M 46.800941 97.04114 
L 48.677465 105.786348 
L 40.555385 102.040442 
" clip-path="url(#pc09f3f331a)" style="fill: none; stroke: #000000; stroke-linecap: round"/>
   </g>
   <g id="patch_17">
    <path d="M 110.622559 83.230611 
Q 119.999349 94.944901 128.677465 105.786348 
" clip-path="url(#pc09f3f331a)" style="fill: none; stroke: #000000; stroke-linecap: round"/>
    <path d="M 126.800941 97.04114 
L 128.677465 105.786348 
L 120.555385 102.040442 
" clip-path="url(#pc09f3f331a)" style="fill: none; stroke: #000000; stroke-linecap: round"/>
   </g>
   <g id="patch_18">
    <path d="M 190.622559 83.230611 
Q 199.999349 94.944901 208.677465 105.786348 
" clip-path="url(#pc09f3f331a)" style="fill: none; stroke: #000000; stroke-linecap: round"/>
    <path d="M 206.800941 97.04114 
L 208.677465 105.786348 
L 200.555385 102.040442 
" clip-path="url(#pc09f3f331a)" style="fill: none; stroke: #000000; stroke-linecap: round"/>
   </g>
   <g id="patch_19">
    <path d="M 270.622559 83.230611 
Q 279.999349 94.944901 288.677465 105.786348 
" clip-path="url(#pc09f3f331a)" style="fill: none; stroke: #000000; stroke-linecap: round"/>
    <path d="M 286.800941 97.04114 
L 288.677465 105.786348 
L 280.555385 102.040442 
" clip-path="url(#pc09f3f331a)" style="fill: none; stroke: #000000; stroke-linecap: round"/>
   </g>
   <g id="patch_20">
    <path d="M 30.622559 56.689389 
Q 39.999349 44.975099 48.677465 34.133652 
" clip-path="url(#pc09f3f331a)" style="fill: none; stroke: #000000; stroke-linecap: round"/>
    <path d="M 40.555385 37.879558 
L 48.677465 34.133652 
L 46.800941 42.87886 
" clip-path="url(#pc09f3f331a)" style="fill: none; stroke: #000000; stroke-linecap: round"/>
   </g>
   <g id="patch_21">
    <path d="M 110.622559 56.689389 
Q 119.999349 44.975099 128.677465 34.133652 
" clip-path="url(#pc09f3f331a)" style="fill: none; stroke: #000000; stroke-linecap: round"/>
    <path d="M 120.555385 37.879558 
L 128.677465 34.133652 
L 126.800941 42.87886 
" clip-path="url(#pc09f3f331a)" style="fill: none; stroke: #000000; stroke-linecap: round"/>
   </g>
   <g id="patch_22">
    <path d="M 190.622559 56.689389 
Q 199.999349 44.975099 208.677465 34.133652 
" clip-path="url(#pc09f3f331a)" style="fill: none; stroke: #000000; stroke-linecap: round"/>
    <path d="M 200.555385 37.879558 
L 208.677465 34.133652 
L 206.800941 42.87886 
" clip-path="url(#pc09f3f331a)" style="fill: none; stroke: #000000; stroke-linecap: round"/>
   </g>
   <g id="patch_23">
    <path d="M 270.622559 56.689389 
Q 279.999349 44.975099 288.677465 34.133652 
" clip-path="url(#pc09f3f331a)" style="fill: none; stroke: #000000; stroke-linecap: round"/>
    <path d="M 280.555385 37.879558 
L 288.677465 34.133652 
L 286.800941 42.87886 
" clip-path="url(#pc09f3f331a)" style="fill: none; stroke: #000000; stroke-linecap: round"/>
   </g>
   <g id="patch_24">
    <path d="M 70.622559 106.660818 
Q 79.999349 94.946528 88.677465 84.105081 
" clip-path="url(#pc09f3f331a)" style="fill: none; stroke: #000000; stroke-linecap: round"/>
    <path d="M 80.555385 87.850987 
L 88.677465 84.105081 
L 86.800941 92.850289 
" clip-path="url(#pc09f3f331a)" style="fill: none; stroke: #000000; stroke-linecap: round"/>
   </g>
   <g id="patch_25">
    <path d="M 150.622559 106.660818 
Q 159.999349 94.946528 168.677465 84.105081 
" clip-path="url(#pc09f3f331a)" style="fill: none; stroke: #000000; stroke-linecap: round"/>
    <path d="M 160.555385 87.850987 
L 168.677465 84.105081 
L 166.800941 92.850289 
" clip-path="url(#pc09f3f331a)" style="fill: none; stroke: #000000; stroke-linecap: round"/>
   </g>
   <g id="patch_26">
    <path d="M 230.622559 106.660818 
Q 239.999349 94.946528 248.677465 84.105081 
" clip-path="url(#pc09f3f331a)" style="fill: none; stroke: #000000; stroke-linecap: round"/>
    <path d="M 240.555385 87.850987 
L 248.677465 84.105081 
L 246.800941 92.850289 
" clip-path="url(#pc09f3f331a)" style="fill: none; stroke: #000000; stroke-linecap: round"/>
   </g>
   <g id="patch_27">
    <path d="M 60 102.933701 
Q 60 69.959924 60 38.104181 
" clip-path="url(#pc09f3f331a)" style="fill: none; stroke: #000000; stroke-linecap: round"/>
    <path d="M 56 46.104181 
L 60 38.104181 
L 64 46.104181 
" clip-path="url(#pc09f3f331a)" style="fill: none; stroke: #000000; stroke-linecap: round"/>
   </g>
   <g id="patch_28">
    <path d="M 140 102.933701 
Q 140 69.959924 140 38.104181 
" clip-path="url(#pc09f3f331a)" style="fill: none; stroke: #000000; stroke-linecap: round"/>
    <path d="M 136 46.104181 
L 140 38.104181 
L 144 46.104181 
" clip-path="url(#pc09f3f331a)" style="fill: none; stroke: #000000; stroke-linecap: round"/>
   </g>
   <g id="patch_29">
    <path d="M 220 102.933701 
Q 220 69.959924 220 38.104181 
" clip-path="url(#pc09f3f331a)" style="fill: none; stroke: #000000; stroke-linecap: round"/>
    <path d="M 216 46.104181 
L 220 38.104181 
L 224 46.104181 
" clip-path="url(#pc09f3f331a)" style="fill: none; stroke: #000000; stroke-linecap: round"/>
   </g>
   <g id="text_1">
    <!-- $\mathbf{s}_0$ -->
    <g transform="translate(13.98 73.823125) scale(0.14 -0.14)">
     <defs>
      <path id="Cmb10-73" d="M 213 44 
L 213 934 
Q 228 994 294 1013 
L 459 1013 
Q 522 991 538 934 
Q 703 219 1259 219 
Q 1825 219 1825 684 
Q 1825 800 1765 892 
Q 1706 984 1609 1045 
Q 1513 1106 1403 1131 
L 1019 1209 
Q 672 1294 442 1508 
Q 213 1722 213 2041 
Q 213 2272 292 2440 
Q 372 2609 517 2711 
Q 663 2813 847 2856 
Q 1031 2900 1259 2900 
Q 1559 2900 1759 2791 
L 1966 2894 
L 1991 2900 
L 2069 2900 
Q 2128 2884 2144 2822 
L 2144 2119 
Q 2128 2050 2069 2034 
L 1900 2034 
Q 1834 2050 1819 2119 
Q 1819 2288 1748 2411 
Q 1678 2534 1550 2601 
Q 1422 2669 1247 2669 
Q 691 2669 691 2284 
Q 691 2144 811 2048 
Q 931 1953 1088 1913 
L 1478 1838 
Q 1713 1778 1897 1654 
Q 2081 1531 2192 1339 
Q 2303 1147 2303 909 
Q 2303 428 2022 195 
Q 1741 -38 1259 -38 
Q 897 -38 659 141 
L 391 -31 
L 366 -38 
L 294 -38 
Q 228 -22 213 44 
z
" transform="scale(0.015625)"/>
      <path id="Cmr10-30" d="M 1600 -141 
Q 816 -141 533 504 
Q 250 1150 250 2041 
Q 250 2597 351 3087 
Q 453 3578 754 3920 
Q 1056 4263 1600 4263 
Q 2022 4263 2290 4056 
Q 2559 3850 2700 3523 
Q 2841 3197 2892 2823 
Q 2944 2450 2944 2041 
Q 2944 1491 2842 1011 
Q 2741 531 2444 195 
Q 2147 -141 1600 -141 
z
M 1600 25 
Q 1956 25 2131 390 
Q 2306 756 2347 1200 
Q 2388 1644 2388 2144 
Q 2388 2625 2347 3031 
Q 2306 3438 2132 3767 
Q 1959 4097 1600 4097 
Q 1238 4097 1063 3765 
Q 888 3434 847 3029 
Q 806 2625 806 2144 
Q 806 1788 823 1472 
Q 841 1156 916 820 
Q 991 484 1158 254 
Q 1325 25 1600 25 
z
" transform="scale(0.015625)"/>
     </defs>
     <use xlink:href="#Cmb10-73" transform="translate(0 0.6875)"/>
     <use xlink:href="#Cmr10-30" transform="translate(43.868437 -16.31875) scale(0.7)"/>
    </g>
   </g>
   <g id="text_2">
    <!-- $\mathbf{s}_1$ -->
    <g transform="translate(93.98 73.823125) scale(0.14 -0.14)">
     <defs>
      <path id="Cmr10-31" d="M 594 0 
L 594 225 
Q 1394 225 1394 428 
L 1394 3788 
Q 1063 3628 556 3628 
L 556 3853 
Q 1341 3853 1741 4263 
L 1831 4263 
Q 1853 4263 1873 4245 
Q 1894 4228 1894 4206 
L 1894 428 
Q 1894 225 2694 225 
L 2694 0 
L 594 0 
z
" transform="scale(0.015625)"/>
     </defs>
     <use xlink:href="#Cmb10-73" transform="translate(0 0.6875)"/>
     <use xlink:href="#Cmr10-31" transform="translate(43.868437 -16.31875) scale(0.7)"/>
    </g>
   </g>
   <g id="text_3">
    <!-- $\mathbf{s}_2$ -->
    <g transform="translate(173.98 73.823125) scale(0.14 -0.14)">
     <defs>
      <path id="Cmr10-32" d="M 319 0 
L 319 172 
Q 319 188 331 206 
L 1325 1306 
Q 1550 1550 1690 1715 
Q 1831 1881 1968 2097 
Q 2106 2313 2186 2536 
Q 2266 2759 2266 3009 
Q 2266 3272 2169 3511 
Q 2072 3750 1880 3894 
Q 1688 4038 1416 4038 
Q 1138 4038 916 3870 
Q 694 3703 603 3438 
Q 628 3444 672 3444 
Q 816 3444 917 3347 
Q 1019 3250 1019 3097 
Q 1019 2950 917 2848 
Q 816 2747 672 2747 
Q 522 2747 420 2851 
Q 319 2956 319 3097 
Q 319 3338 409 3548 
Q 500 3759 670 3923 
Q 841 4088 1055 4175 
Q 1269 4263 1509 4263 
Q 1875 4263 2190 4108 
Q 2506 3953 2690 3670 
Q 2875 3388 2875 3009 
Q 2875 2731 2753 2481 
Q 2631 2231 2440 2026 
Q 2250 1822 1953 1562 
Q 1656 1303 1563 1216 
L 838 519 
L 1453 519 
Q 1906 519 2211 526 
Q 2516 534 2534 550 
Q 2609 631 2688 1141 
L 2875 1141 
L 2694 0 
L 319 0 
z
" transform="scale(0.015625)"/>
     </defs>
     <use xlink:href="#Cmb10-73" transform="translate(0 0.6875)"/>
     <use xlink:href="#Cmr10-32" transform="translate(43.868437 -16.31875) scale(0.7)"/>
    </g>
   </g>
   <g id="text_4">
    <!-- $\mathbf{s}_3$ -->
    <g transform="translate(253.98 73.823125) scale(0.14 -0.14)">
     <defs>
      <path id="Cmr10-33" d="M 609 494 
Q 759 275 1012 169 
Q 1266 63 1556 63 
Q 1928 63 2084 380 
Q 2241 697 2241 1100 
Q 2241 1281 2208 1462 
Q 2175 1644 2097 1800 
Q 2019 1956 1883 2050 
Q 1747 2144 1550 2144 
L 1125 2144 
Q 1069 2144 1069 2203 
L 1069 2259 
Q 1069 2309 1125 2309 
L 1478 2338 
Q 1703 2338 1851 2506 
Q 2000 2675 2069 2917 
Q 2138 3159 2138 3378 
Q 2138 3684 1994 3881 
Q 1850 4078 1556 4078 
Q 1313 4078 1091 3986 
Q 869 3894 738 3706 
Q 750 3709 759 3711 
Q 769 3713 781 3713 
Q 925 3713 1022 3613 
Q 1119 3513 1119 3372 
Q 1119 3234 1022 3134 
Q 925 3034 781 3034 
Q 641 3034 541 3134 
Q 441 3234 441 3372 
Q 441 3647 606 3850 
Q 772 4053 1033 4158 
Q 1294 4263 1556 4263 
Q 1750 4263 1965 4205 
Q 2181 4147 2356 4039 
Q 2531 3931 2642 3762 
Q 2753 3594 2753 3378 
Q 2753 3109 2633 2881 
Q 2513 2653 2303 2487 
Q 2094 2322 1844 2241 
Q 2122 2188 2372 2031 
Q 2622 1875 2773 1631 
Q 2925 1388 2925 1106 
Q 2925 753 2731 467 
Q 2538 181 2222 20 
Q 1906 -141 1556 -141 
Q 1256 -141 954 -26 
Q 653 88 461 316 
Q 269 544 269 863 
Q 269 1022 375 1128 
Q 481 1234 641 1234 
Q 744 1234 830 1186 
Q 916 1138 964 1050 
Q 1013 963 1013 863 
Q 1013 706 903 600 
Q 794 494 641 494 
L 609 494 
z
" transform="scale(0.015625)"/>
     </defs>
     <use xlink:href="#Cmb10-73" transform="translate(0 0.6875)"/>
     <use xlink:href="#Cmr10-33" transform="translate(43.868437 -16.31875) scale(0.7)"/>
    </g>
   </g>
   <g id="text_5">
    <!-- $\mathbf{a}_0$ -->
    <g transform="translate(53.35 123.794554) scale(0.14 -0.14)">
     <defs>
      <path id="Cmb10-61" d="M 178 716 
Q 178 1081 468 1304 
Q 759 1528 1157 1618 
Q 1556 1709 1925 1709 
L 1925 1947 
Q 1925 2228 1803 2436 
Q 1681 2644 1416 2644 
Q 1244 2644 1050 2613 
Q 1184 2488 1184 2297 
Q 1184 2119 1068 2000 
Q 953 1881 775 1881 
Q 597 1881 478 2000 
Q 359 2119 359 2297 
Q 359 2541 529 2675 
Q 700 2809 937 2854 
Q 1175 2900 1422 2900 
Q 1731 2900 2018 2804 
Q 2306 2709 2493 2498 
Q 2681 2288 2681 1966 
L 2681 453 
Q 2709 325 3003 325 
Q 3084 306 3103 225 
L 3103 103 
Q 3084 19 3003 0 
L 2559 0 
Q 2366 0 2200 100 
Q 2034 200 2034 384 
L 2034 434 
Q 1922 219 1709 90 
Q 1497 -38 1253 -38 
Q 850 -38 514 153 
Q 178 344 178 716 
z
M 1331 219 
Q 1497 219 1633 305 
Q 1769 391 1847 533 
Q 1925 675 1925 838 
L 1925 1478 
Q 1697 1478 1472 1389 
Q 1247 1300 1100 1125 
Q 953 950 953 716 
Q 953 534 1058 376 
Q 1163 219 1331 219 
z
" transform="scale(0.015625)"/>
     </defs>
     <use xlink:href="#Cmb10-61" transform="translate(0 0.6875)"/>
     <use xlink:href="#Cmr10-30" transform="translate(53.048125 -16.31875) scale(0.7)"/>
    </g>
   </g>
   <g id="text_6">
    <!-- $\mathbf{a}_1$ -->
    <g transform="translate(133.35 123.794554) scale(0.14 -0.14)">
     <use xlink:href="#Cmb10-61" transform="translate(0 0.6875)"/>
     <use xlink:href="#Cmr10-31" transform="translate(53.048125 -16.31875) scale(0.7)"/>
    </g>
   </g>
   <g id="text_7">
    <!-- $\mathbf{a}_2$ -->
    <g transform="translate(213.35 123.794554) scale(0.14 -0.14)">
     <use xlink:href="#Cmb10-61" transform="translate(0 0.6875)"/>
     <use xlink:href="#Cmr10-32" transform="translate(53.048125 -16.31875) scale(0.7)"/>
    </g>
   </g>
   <g id="text_8">
    <!-- $\mathbf{r}_0$ -->
    <g transform="translate(53.77 23.851696) scale(0.14 -0.14)">
     <defs>
      <path id="Cmb10-72" d="M 91 0 
L 91 325 
L 531 325 
L 531 2322 
Q 531 2503 91 2503 
L 91 2828 
L 1178 2881 
L 1178 2356 
Q 1269 2594 1436 2737 
Q 1603 2881 1838 2881 
Q 2006 2881 2173 2822 
Q 2341 2763 2450 2641 
Q 2559 2519 2559 2344 
Q 2559 2178 2443 2059 
Q 2328 1941 2156 1941 
Q 1984 1941 1868 2059 
Q 1753 2178 1753 2344 
Q 1753 2513 1856 2625 
L 1838 2625 
Q 1488 2625 1367 2248 
Q 1247 1872 1247 1416 
L 1247 325 
L 1806 325 
L 1806 0 
L 91 0 
z
" transform="scale(0.015625)"/>
     </defs>
     <use xlink:href="#Cmb10-72" transform="translate(0 0.984375)"/>
     <use xlink:href="#Cmr10-30" transform="translate(47.139922 -16.021875) scale(0.7)"/>
    </g>
   </g>
   <g id="text_9">
    <!-- $\mathbf{r}_1$ -->
    <g transform="translate(133.77 23.851696) scale(0.14 -0.14)">
     <use xlink:href="#Cmb10-72" transform="translate(0 0.984375)"/>
     <use xlink:href="#Cmr10-31" transform="translate(47.139922 -16.021875) scale(0.7)"/>
    </g>
   </g>
   <g id="text_10">
    <!-- $\mathbf{r}_2$ -->
    <g transform="translate(213.77 23.851696) scale(0.14 -0.14)">
     <use xlink:href="#Cmb10-72" transform="translate(0 0.984375)"/>
     <use xlink:href="#Cmr10-32" transform="translate(47.139922 -16.021875) scale(0.7)"/>
    </g>
   </g>
  </g>
 </g>
 <defs>
  <clipPath id="pc09f3f331a">
   <rect x="0" y="0" width="330" height="139.92"/>
  </clipPath>
 </defs>
</svg>
