<?xml version="1.0" encoding="utf-8" standalone="no"?>
<!DOCTYPE svg PUBLIC "-//W3C//DTD SVG 1.1//EN"
  "http://www.w3.org/Graphics/SVG/1.1/DTD/svg11.dtd">
<svg xmlns:xlink="http://www.w3.org/1999/xlink" width="360pt" height="216pt" viewBox="0 0 360 216" xmlns="http://www.w3.org/2000/svg" version="1.1">
 <metadata>
  <rdf:RDF xmlns:dc="http://purl.org/dc/elements/1.1/" xmlns:cc="http://creativecommons.org/ns#" xmlns:rdf="http://www.w3.org/1999/02/22-rdf-syntax-ns#">
   <cc:Work>
    <dc:type rdf:resource="http://purl.org/dc/dcmitype/StillImage"/>
    <dc:date>2025-12-17T08:18:27.327484</dc:date>
    <dc:format>image/svg+xml</dc:format>
    <dc:creator>
     <cc:Agent>
      <dc:title>Matplotlib v3.10.3, https://matplotlib.org/</dc:title>
     </cc:Agent>
    </dc:creator>
   </cc:Work>
  </rdf:RDF>
 </metadata>
 <defs>
  <style type="text/css">*{stroke-linejoin: round; stroke-linecap: butt}</style>
 </defs>
 <g id="figure_1">
  <g id="patch_1">
   <path d="M 0 216 
L 360 216 
L 360 0 
L 0 0 
z
" style="fill: #ffffff"/>
  </g>
  <g id="axes_1">
   <g id="patch_2">
    <path d="M 3.6 183.6 
L 356.4 183.6 
L 356.4 2.16 
L 3.6 2.16 
z
" style="fill: #ffffff"/>
   </g>
   <g id="matplotlib.axis_1">
    <g id="xtick_1">
     <g id="line2d_1">
      <defs>
       <path id="ma95a6d0747" d="M 0 0 
L 0 3.5 
" style="stroke: #000000; stroke-width: 0.8"/>
      </defs>
      <g>
       <use xlink:href="#ma95a6d0747" x="59.727273" y="183.6" style="stroke: #000000; stroke-width: 0.8"/>
      </g>
     </g>
     <g id="text_1">
      <!-- $\theta_0$ -->
      <g transform="translate(53.497273 201.237812) scale(0.14 -0.14)">
       <defs>
        <path id="Cmmi10-b5" d="M 1031 -72 
Q 741 -72 566 140 
Q 391 353 323 653 
Q 256 953 256 1247 
L 256 1253 
Q 256 1572 317 1915 
Q 378 2259 493 2601 
Q 609 2944 744 3213 
Q 838 3400 986 3631 
Q 1134 3863 1317 4064 
Q 1500 4266 1711 4389 
Q 1922 4513 2138 4513 
L 2144 4513 
Q 2375 4513 2529 4384 
Q 2684 4256 2770 4056 
Q 2856 3856 2890 3628 
Q 2925 3400 2925 3194 
Q 2925 2709 2794 2204 
Q 2663 1700 2431 1228 
Q 2344 1050 2189 809 
Q 2034 569 1861 378 
Q 1688 188 1472 58 
Q 1256 -72 1038 -72 
L 1031 -72 
z
M 1044 97 
Q 1256 97 1451 323 
Q 1647 550 1794 873 
Q 1941 1197 2052 1536 
Q 2163 1875 2216 2113 
L 909 2113 
Q 809 1709 753 1417 
Q 697 1125 697 844 
Q 697 97 1044 97 
z
M 959 2338 
L 2272 2338 
Q 2341 2619 2381 2808 
Q 2422 2997 2450 3206 
Q 2478 3416 2478 3597 
Q 2478 4347 2138 4347 
Q 1731 4347 1436 3692 
Q 1141 3038 959 2338 
z
" transform="scale(0.015625)"/>
        <path id="Cmr10-30" d="M 1600 -141 
Q 816 -141 533 504 
Q 250 1150 250 2041 
Q 250 2597 351 3087 
Q 453 3578 754 3920 
Q 1056 4263 1600 4263 
Q 2022 4263 2290 4056 
Q 2559 3850 2700 3523 
Q 2841 3197 2892 2823 
Q 2944 2450 2944 2041 
Q 2944 1491 2842 1011 
Q 2741 531 2444 195 
Q 2147 -141 1600 -141 
z
M 1600 25 
Q 1956 25 2131 390 
Q 2306 756 2347 1200 
Q 2388 1644 2388 2144 
Q 2388 2625 2347 3031 
Q 2306 3438 2132 3767 
Q 1959 4097 1600 4097 
Q 1238 4097 1063 3765 
Q 888 3434 847 3029 
Q 806 2625 806 2144 
Q 806 1788 823 1472 
Q 841 1156 916 820 
Q 991 484 1158 254 
Q 1325 25 1600 25 
z
" transform="scale(0.015625)"/>
       </defs>
       <use xlink:href="#Cmmi10-b5" transform="translate(0 0.484375)"/>
       <use xlink:href="#Cmr10-30" transform="translate(46.923828 -16.521875) scale(0.7)"/>
      </g>
     </g>
    </g>
    <g id="xtick_2">
     <g id="line2d_2">
      <g>
       <use xlink:href="#ma95a6d0747" x="153.272727" y="183.6" style="stroke: #000000; stroke-width: 0.8"/>
      </g>
     </g>
     <g id="text_2">
      <!-- $\theta_\mathrm{max}$ -->
      <g transform="translate(140.392727 201.237812) scale(0.14 -0.14)">
       <defs>
        <path id="Cmr10-6d" d="M 191 0 
L 191 225 
Q 409 225 550 259 
Q 691 294 691 428 
L 691 2175 
Q 691 2347 639 2423 
Q 588 2500 491 2517 
Q 394 2534 191 2534 
L 191 2759 
L 1119 2828 
L 1119 2203 
Q 1247 2478 1498 2653 
Q 1750 2828 2047 2828 
Q 2784 2828 2913 2228 
Q 3041 2497 3287 2662 
Q 3534 2828 3828 2828 
Q 4119 2828 4317 2734 
Q 4516 2641 4616 2448 
Q 4716 2256 4716 1966 
L 4716 428 
Q 4716 294 4858 259 
Q 5000 225 5216 225 
L 5216 0 
L 3750 0 
L 3750 225 
Q 3969 225 4109 259 
Q 4250 294 4250 428 
L 4250 1947 
Q 4250 2269 4159 2466 
Q 4069 2663 3788 2663 
Q 3419 2663 3178 2366 
Q 2938 2069 2938 1691 
L 2938 428 
Q 2938 294 3078 259 
Q 3219 225 3438 225 
L 3438 0 
L 1972 0 
L 1972 225 
Q 2191 225 2331 259 
Q 2472 294 2472 428 
L 2472 1947 
Q 2472 2259 2381 2461 
Q 2291 2663 2009 2663 
Q 1638 2663 1398 2366 
Q 1159 2069 1159 1691 
L 1159 428 
Q 1159 294 1300 259 
Q 1441 225 1656 225 
L 1656 0 
L 191 0 
z
" transform="scale(0.015625)"/>
        <path id="Cmr10-61" d="M 256 628 
Q 256 1009 556 1248 
Q 856 1488 1276 1586 
Q 1697 1684 2075 1684 
L 2075 1947 
Q 2075 2131 1994 2304 
Q 1913 2478 1759 2589 
Q 1606 2700 1422 2700 
Q 997 2700 775 2509 
Q 897 2509 976 2417 
Q 1056 2325 1056 2203 
Q 1056 2075 965 1984 
Q 875 1894 750 1894 
Q 622 1894 531 1984 
Q 441 2075 441 2203 
Q 441 2541 747 2705 
Q 1053 2869 1422 2869 
Q 1681 2869 1943 2758 
Q 2206 2647 2373 2440 
Q 2541 2234 2541 1959 
L 2541 519 
Q 2541 394 2594 289 
Q 2647 184 2759 184 
Q 2866 184 2917 290 
Q 2969 397 2969 519 
L 2969 928 
L 3156 928 
L 3156 519 
Q 3156 375 3081 245 
Q 3006 116 2879 39 
Q 2753 -38 2606 -38 
Q 2419 -38 2283 107 
Q 2147 253 2131 453 
Q 2013 213 1781 70 
Q 1550 -72 1288 -72 
Q 1044 -72 808 0 
Q 572 72 414 226 
Q 256 381 256 628 
z
M 775 628 
Q 775 403 940 250 
Q 1106 97 1331 97 
Q 1538 97 1706 200 
Q 1875 303 1975 481 
Q 2075 659 2075 856 
L 2075 1522 
Q 1784 1522 1479 1426 
Q 1175 1331 975 1128 
Q 775 925 775 628 
z
" transform="scale(0.015625)"/>
        <path id="Cmr10-78" d="M 78 0 
L 78 225 
Q 322 225 537 320 
Q 753 416 903 603 
L 1484 1344 
L 728 2328 
Q 616 2469 483 2501 
Q 350 2534 109 2534 
L 109 2759 
L 1441 2759 
L 1441 2534 
Q 1356 2534 1282 2496 
Q 1209 2459 1209 2388 
Q 1209 2363 1228 2328 
L 1741 1663 
L 2125 2156 
Q 2203 2250 2203 2344 
Q 2203 2422 2151 2478 
Q 2100 2534 2016 2534 
L 2016 2759 
L 3194 2759 
L 3194 2534 
Q 2947 2534 2730 2439 
Q 2513 2344 2363 2156 
L 1856 1509 
L 2675 428 
Q 2797 288 2928 256 
Q 3059 225 3303 225 
L 3303 0 
L 1972 0 
L 1972 225 
Q 2050 225 2122 262 
Q 2194 300 2194 372 
Q 2194 400 2175 428 
L 1600 1191 
L 1141 603 
Q 1069 522 1069 416 
Q 1069 338 1122 281 
Q 1175 225 1247 225 
L 1247 0 
L 78 0 
z
" transform="scale(0.015625)"/>
       </defs>
       <use xlink:href="#Cmmi10-b5" transform="translate(0 0.484375)"/>
       <use xlink:href="#Cmr10-6d" transform="translate(46.923828 -16.521875) scale(0.7)"/>
       <use xlink:href="#Cmr10-61" transform="translate(105.234375 -16.521875) scale(0.7)"/>
       <use xlink:href="#Cmr10-78" transform="translate(140.234375 -16.521875) scale(0.7)"/>
      </g>
     </g>
    </g>
    <g id="xtick_3">
     <g id="line2d_3">
      <g>
       <use xlink:href="#ma95a6d0747" x="293.590909" y="183.6" style="stroke: #000000; stroke-width: 0.8"/>
      </g>
     </g>
     <g id="text_3">
      <!-- $\theta_\mathrm{naive}$ -->
      <g transform="translate(278.540909 201.237812) scale(0.14 -0.14)">
       <defs>
        <path id="Cmr10-6e" d="M 191 0 
L 191 225 
Q 409 225 550 259 
Q 691 294 691 428 
L 691 2175 
Q 691 2347 639 2423 
Q 588 2500 491 2517 
Q 394 2534 191 2534 
L 191 2759 
L 1119 2828 
L 1119 2203 
Q 1247 2478 1498 2653 
Q 1750 2828 2047 2828 
Q 2491 2828 2714 2615 
Q 2938 2403 2938 1966 
L 2938 428 
Q 2938 294 3078 259 
Q 3219 225 3438 225 
L 3438 0 
L 1972 0 
L 1972 225 
Q 2191 225 2331 259 
Q 2472 294 2472 428 
L 2472 1947 
Q 2472 2259 2381 2461 
Q 2291 2663 2009 2663 
Q 1638 2663 1398 2366 
Q 1159 2069 1159 1691 
L 1159 428 
Q 1159 294 1300 259 
Q 1441 225 1656 225 
L 1656 0 
L 191 0 
z
" transform="scale(0.015625)"/>
        <path id="Cmr10-69" d="M 197 0 
L 197 225 
Q 416 225 556 259 
Q 697 294 697 428 
L 697 2175 
Q 697 2422 601 2478 
Q 506 2534 225 2534 
L 225 2759 
L 1147 2828 
L 1147 428 
Q 1147 294 1269 259 
Q 1391 225 1594 225 
L 1594 0 
L 197 0 
z
M 469 3928 
Q 469 4069 575 4175 
Q 681 4281 819 4281 
Q 909 4281 993 4234 
Q 1078 4188 1125 4103 
Q 1172 4019 1172 3928 
Q 1172 3791 1065 3684 
Q 959 3578 819 3578 
Q 681 3578 575 3684 
Q 469 3791 469 3928 
z
" transform="scale(0.015625)"/>
        <path id="Cmr10-76" d="M 1563 0 
L 628 2350 
Q 569 2469 445 2501 
Q 322 2534 122 2534 
L 122 2759 
L 1466 2759 
L 1466 2534 
Q 1106 2534 1106 2381 
Q 1106 2356 1113 2344 
L 1831 538 
L 2478 2169 
Q 2497 2219 2497 2272 
Q 2497 2394 2405 2464 
Q 2313 2534 2188 2534 
L 2188 2759 
L 3250 2759 
L 3250 2534 
Q 3053 2534 2904 2443 
Q 2756 2353 2675 2175 
L 1813 0 
Q 1788 -72 1709 -72 
L 1663 -72 
Q 1584 -72 1563 0 
z
" transform="scale(0.015625)"/>
        <path id="Cmr10-65" d="M 1594 -72 
Q 1203 -72 876 133 
Q 550 338 364 680 
Q 178 1022 178 1403 
Q 178 1778 348 2115 
Q 519 2453 823 2661 
Q 1128 2869 1503 2869 
Q 1797 2869 2014 2770 
Q 2231 2672 2372 2497 
Q 2513 2322 2584 2084 
Q 2656 1847 2656 1563 
Q 2656 1478 2591 1478 
L 738 1478 
L 738 1409 
Q 738 878 952 497 
Q 1166 116 1650 116 
Q 1847 116 2014 203 
Q 2181 291 2304 447 
Q 2428 603 2472 781 
Q 2478 803 2495 820 
Q 2513 838 2534 838 
L 2591 838 
Q 2656 838 2656 756 
Q 2566 394 2266 161 
Q 1966 -72 1594 -72 
z
M 744 1638 
L 2203 1638 
Q 2203 1878 2136 2125 
Q 2069 2372 1912 2536 
Q 1756 2700 1503 2700 
Q 1141 2700 942 2361 
Q 744 2022 744 1638 
z
" transform="scale(0.015625)"/>
       </defs>
       <use xlink:href="#Cmmi10-b5" transform="translate(0 0.484375)"/>
       <use xlink:href="#Cmr10-6e" transform="translate(46.923828 -16.521875) scale(0.7)"/>
       <use xlink:href="#Cmr10-61" transform="translate(85.786133 -16.521875) scale(0.7)"/>
       <use xlink:href="#Cmr10-69" transform="translate(120.786133 -16.521875) scale(0.7)"/>
       <use xlink:href="#Cmr10-76" transform="translate(140.166016 -16.521875) scale(0.7)"/>
       <use xlink:href="#Cmr10-65" transform="translate(177.045898 -16.521875) scale(0.7)"/>
      </g>
     </g>
    </g>
    <g id="xtick_4">
     <g id="line2d_4">
      <g>
       <use xlink:href="#ma95a6d0747" x="106.5" y="183.6" style="stroke: #000000; stroke-width: 0.8"/>
      </g>
     </g>
     <g id="text_4">
      <!-- $\theta_\mathrm{TRPO}$ -->
      <g transform="translate(88.44 201.237812) scale(0.14 -0.14)">
       <defs>
        <path id="Cmr10-54" d="M 1081 0 
L 1081 225 
Q 1403 225 1706 261 
Q 2009 297 2009 428 
L 2009 3944 
Q 2009 4081 1932 4114 
Q 1856 4147 1684 4147 
L 1416 4147 
Q 888 4147 666 3916 
Q 550 3800 500 3545 
Q 450 3291 416 2906 
L 231 2906 
L 353 4372 
L 4263 4372 
L 4384 2906 
L 4197 2906 
Q 4159 3319 4114 3561 
Q 4069 3803 3950 3916 
Q 3725 4147 3200 4147 
L 2931 4147 
Q 2816 4147 2752 4137 
Q 2688 4128 2647 4083 
Q 2606 4038 2606 3944 
L 2606 428 
Q 2606 297 2909 261 
Q 3213 225 3531 225 
L 3531 0 
L 1081 0 
z
" transform="scale(0.015625)"/>
        <path id="Cmr10-52" d="M 213 0 
L 213 225 
Q 872 225 872 428 
L 872 3944 
Q 872 4147 213 4147 
L 213 4372 
L 2222 4372 
Q 2581 4372 2976 4242 
Q 3372 4113 3637 3847 
Q 3903 3581 3903 3213 
Q 3903 2944 3742 2733 
Q 3581 2522 3329 2380 
Q 3078 2238 2816 2175 
Q 3103 2075 3318 1856 
Q 3534 1638 3578 1356 
L 3669 788 
Q 3731 403 3800 214 
Q 3869 25 4103 25 
Q 4303 25 4401 211 
Q 4500 397 4500 616 
Q 4500 638 4520 655 
Q 4541 672 4563 672 
L 4622 672 
Q 4684 672 4684 588 
Q 4684 413 4615 245 
Q 4547 78 4417 -31 
Q 4288 -141 4109 -141 
Q 3647 -141 3314 89 
Q 2981 319 2981 763 
L 2981 1331 
Q 2981 1650 2759 1878 
Q 2538 2106 2216 2106 
L 1447 2106 
L 1447 428 
Q 1447 225 2106 225 
L 2106 0 
L 213 0 
z
M 1447 2272 
L 2131 2272 
Q 2663 2272 2941 2486 
Q 3219 2700 3219 3213 
Q 3219 3722 2944 3934 
Q 2669 4147 2131 4147 
L 1772 4147 
Q 1656 4147 1592 4137 
Q 1528 4128 1487 4083 
Q 1447 4038 1447 3944 
L 1447 2272 
z
" transform="scale(0.015625)"/>
        <path id="Cmr10-50" d="M 213 0 
L 213 225 
Q 872 225 872 428 
L 872 3944 
Q 872 4147 213 4147 
L 213 4372 
L 2491 4372 
Q 2841 4372 3191 4228 
Q 3541 4084 3767 3809 
Q 3994 3534 3994 3169 
Q 3994 2813 3766 2544 
Q 3538 2275 3191 2136 
Q 2844 1997 2491 1997 
L 1466 1997 
L 1466 428 
Q 1466 225 2125 225 
L 2125 0 
L 213 0 
z
M 1447 2188 
L 2316 2188 
Q 2669 2188 2887 2289 
Q 3106 2391 3207 2605 
Q 3309 2819 3309 3169 
Q 3309 3691 3079 3919 
Q 2850 4147 2316 4147 
L 1772 4147 
Q 1656 4147 1592 4137 
Q 1528 4128 1487 4083 
Q 1447 4038 1447 3944 
L 1447 2188 
z
" transform="scale(0.015625)"/>
        <path id="Cmr10-4f" d="M 2491 -141 
Q 1881 -141 1395 182 
Q 909 506 634 1042 
Q 359 1578 359 2169 
Q 359 2606 517 3034 
Q 675 3463 958 3794 
Q 1241 4125 1637 4319 
Q 2034 4513 2491 4513 
Q 2944 4513 3342 4317 
Q 3741 4122 4025 3787 
Q 4309 3453 4462 3037 
Q 4616 2622 4616 2169 
Q 4616 1578 4341 1042 
Q 4066 506 3578 182 
Q 3091 -141 2491 -141 
z
M 1428 691 
Q 1616 397 1891 223 
Q 2166 50 2491 50 
Q 2700 50 2901 134 
Q 3103 219 3267 366 
Q 3431 513 3547 691 
Q 3928 1266 3928 2272 
Q 3928 3194 3547 3731 
Q 3359 4000 3079 4162 
Q 2800 4325 2491 4325 
Q 2178 4325 1897 4162 
Q 1616 4000 1428 3731 
Q 1278 3522 1195 3286 
Q 1113 3050 1078 2797 
Q 1044 2544 1044 2272 
Q 1044 1981 1076 1704 
Q 1109 1428 1198 1162 
Q 1288 897 1428 691 
z
" transform="scale(0.015625)"/>
       </defs>
       <use xlink:href="#Cmmi10-b5" transform="translate(0 0.484375)"/>
       <use xlink:href="#Cmr10-54" transform="translate(46.923828 -16.521875) scale(0.7)"/>
       <use xlink:href="#Cmr10-52" transform="translate(97.475586 -16.521875) scale(0.7)"/>
       <use xlink:href="#Cmr10-50" transform="translate(148.984375 -16.521875) scale(0.7)"/>
       <use xlink:href="#Cmr10-4f" transform="translate(196.59668 -16.521875) scale(0.7)"/>
      </g>
     </g>
    </g>
    <g id="text_5">
     <!-- $\theta$ -->
     <g transform="translate(353.11 199.681013) scale(0.14 -0.14)">
      <use xlink:href="#Cmmi10-b5" transform="translate(0 0.484375)"/>
     </g>
    </g>
   </g>
   <g id="matplotlib.axis_2"/>
   <g id="line2d_5">
    <path d="M 19.636364 141.729231 
L 27.212598 134.040938 
L 34.788833 126.801233 
L 42.365068 120.010116 
L 47.415891 115.73192 
L 52.466714 111.653096 
L 57.517538 107.773644 
L 62.568361 104.093564 
L 67.619184 100.612857 
L 72.670007 97.331522 
L 77.72083 94.249559 
L 82.771654 91.366969 
L 87.822477 88.683751 
L 92.8733 86.199905 
L 97.924123 83.915431 
L 102.974946 81.830329 
L 108.02577 79.9446 
L 113.076593 78.258243 
L 118.127416 76.771258 
L 123.178239 75.483646 
L 128.229062 74.395406 
L 133.279885 73.506538 
L 138.330709 72.817042 
L 143.381532 72.326919 
L 148.432355 72.036167 
L 153.483178 71.944788 
L 158.534001 72.052782 
L 163.584825 72.360147 
L 168.635648 72.866885 
L 173.686471 73.572995 
L 178.737294 74.478478 
L 183.788117 75.583332 
L 188.838941 76.887559 
L 193.889764 78.391158 
L 198.940587 80.094129 
L 203.99141 81.996473 
L 209.042233 84.098189 
L 214.093057 86.399277 
L 219.14388 88.899737 
L 224.194703 91.59957 
L 229.245526 94.498775 
L 234.296349 97.597352 
L 239.347173 100.895301 
L 244.397996 104.392623 
L 249.448819 108.089317 
L 254.499642 111.985383 
L 259.550465 116.080821 
L 264.601288 120.375632 
L 269.652112 124.869815 
L 277.228346 131.984912 
L 284.804581 139.548597 
L 292.380816 147.560869 
L 299.957051 156.021729 
L 307.533286 164.931177 
L 315.10952 174.289212 
L 322.685755 184.095835 
L 330.26199 194.351045 
L 337.838225 205.054843 
L 340.363636 208.722462 
L 340.363636 208.722462 
" clip-path="url(#paa3d4fa6dd)" style="fill: none; stroke: #000000; stroke-width: 1.5; stroke-linecap: square"/>
   </g>
   <g id="line2d_6">
    <path d="M 19.636364 137.960862 
L 29.73801 129.469265 
L 39.839656 121.296664 
L 49.941303 113.443059 
L 60.042949 105.908449 
L 70.144596 98.692835 
L 80.246242 91.796216 
L 90.347888 85.218593 
L 100.449535 78.959966 
L 110.551181 73.020334 
L 120.652827 67.399698 
L 130.754474 62.098058 
L 140.85612 57.115413 
L 150.957767 52.451763 
L 161.059413 48.10711 
L 171.161059 44.081452 
L 178.737294 41.271549 
L 186.313529 38.641081 
L 193.889764 36.190049 
L 201.465999 33.918451 
L 209.042233 31.826288 
L 216.618468 29.913561 
L 224.194703 28.180268 
L 231.770938 26.626411 
L 239.347173 25.251988 
L 246.923407 24.057001 
L 254.499642 23.041449 
L 262.075877 22.205331 
L 269.652112 21.548649 
L 277.228346 21.071401 
L 284.804581 20.773589 
L 292.380816 20.655212 
L 299.957051 20.71627 
L 307.533286 20.956762 
L 315.10952 21.37669 
L 322.685755 21.976053 
L 330.26199 22.754851 
L 337.838225 23.713084 
L 340.363636 24.072369 
L 340.363636 24.072369 
" clip-path="url(#paa3d4fa6dd)" style="fill: none; stroke: #000000; stroke-width: 1.5; stroke-linecap: square"/>
   </g>
   <g id="line2d_7">
    <path d="M 19.636364 148.009846 
L 24.687187 141.351644 
L 29.73801 135.092186 
L 34.788833 129.231472 
L 39.839656 123.769503 
L 44.89048 118.706278 
L 49.941303 114.041798 
L 54.992126 109.776063 
L 60.042949 105.909072 
L 65.093772 102.440825 
L 70.144596 99.371323 
L 75.195419 96.700566 
L 80.246242 94.428553 
L 85.297065 92.555285 
L 90.347888 91.080761 
L 95.398712 90.004981 
L 100.449535 89.327946 
L 105.500358 89.049656 
L 110.551181 89.17011 
L 115.602004 89.689308 
L 120.652827 90.607251 
L 125.703651 91.923939 
L 130.754474 93.639371 
L 135.805297 95.753548 
L 140.85612 98.266469 
L 145.906943 101.178135 
L 150.957767 104.488545 
L 156.00859 108.197699 
L 161.059413 112.305598 
L 166.110236 116.812242 
L 171.161059 121.71763 
L 176.211883 127.021763 
L 181.262706 132.72464 
L 186.313529 138.826262 
L 191.364352 145.326628 
L 196.415175 152.225739 
L 201.465999 159.523594 
L 206.516822 167.220193 
L 211.567645 175.315538 
L 216.618468 183.809626 
L 221.669291 192.70246 
L 226.720115 201.994037 
L 231.770938 211.68436 
L 234.455452 217 
L 234.455452 217 
" clip-path="url(#paa3d4fa6dd)" style="fill: none; stroke: #000000; stroke-width: 1.5; stroke-linecap: square"/>
   </g>
   <g id="line2d_8">
    <defs>
     <path id="m81c67c31df" d="M 0 2 
C 0.530406 2 1.03916 1.789267 1.414214 1.414214 
C 1.789267 1.03916 2 0.530406 2 0 
C 2 -0.530406 1.789267 -1.03916 1.414214 -1.414214 
C 1.03916 -1.789267 0.530406 -2 0 -2 
C -0.530406 -2 -1.03916 -1.789267 -1.414214 -1.414214 
C -1.789267 -1.03916 -2 -0.530406 -2 0 
C -2 0.530406 -1.789267 1.03916 -1.414214 1.414214 
C -1.03916 1.789267 -0.530406 2 0 2 
z
" style="stroke: #000000"/>
    </defs>
    <g clip-path="url(#paa3d4fa6dd)">
     <use xlink:href="#m81c67c31df" x="59.727273" y="106.139077" style="stroke: #000000"/>
     <use xlink:href="#m81c67c31df" x="153.272727" y="71.944615" style="stroke: #000000"/>
     <use xlink:href="#m81c67c31df" x="293.590909" y="20.652923" style="stroke: #000000"/>
     <use xlink:href="#m81c67c31df" x="293.590909" y="148.882154" style="stroke: #000000"/>
     <use xlink:href="#m81c67c31df" x="106.5" y="89.041846" style="stroke: #000000"/>
     <use xlink:href="#m81c67c31df" x="106.5" y="80.493231" style="stroke: #000000"/>
    </g>
   </g>
   <g id="line2d_9">
    <path d="M 59.727273 183.6 
L 59.727273 2.16 
" clip-path="url(#paa3d4fa6dd)" style="fill: none; stroke: #000000; stroke-linecap: square"/>
   </g>
   <g id="line2d_10">
    <path d="M 153.272727 183.6 
L 153.272727 2.16 
" clip-path="url(#paa3d4fa6dd)" style="fill: none; stroke: #000000; stroke-linecap: square"/>
   </g>
   <g id="line2d_11">
    <path d="M 293.590909 183.6 
L 293.590909 2.16 
" clip-path="url(#paa3d4fa6dd)" style="fill: none; stroke: #000000; stroke-linecap: square"/>
   </g>
   <g id="line2d_12">
    <path d="M 106.5 183.6 
L 106.5 2.16 
" clip-path="url(#paa3d4fa6dd)" style="fill: none; stroke: #000000; stroke-linecap: square"/>
   </g>
   <g id="patch_3">
    <path d="M 3.6 183.6 
L 3.6 2.16 
" style="fill: none; stroke: #000000; stroke-width: 0.8; stroke-linejoin: miter; stroke-linecap: square"/>
   </g>
   <g id="patch_4">
    <path d="M 356.4 183.6 
L 356.4 2.16 
" style="fill: none; stroke: #000000; stroke-width: 0.8; stroke-linejoin: miter; stroke-linecap: square"/>
   </g>
   <g id="patch_5">
    <path d="M 3.6 183.6 
L 356.4 183.6 
" style="fill: none; stroke: #000000; stroke-width: 0.8; stroke-linejoin: miter; stroke-linecap: square"/>
   </g>
   <g id="patch_6">
    <path d="M 3.6 2.16 
L 356.4 2.16 
" style="fill: none; stroke: #000000; stroke-width: 0.8; stroke-linejoin: miter; stroke-linecap: square"/>
   </g>
   <g id="text_6">
    <!-- $\eta(\theta)$ -->
    <g transform="translate(251.818182 97.639077) scale(0.14 -0.14)">
     <defs>
      <path id="Cmmi10-b4" d="M 684 -72 
Q 606 -72 550 -22 
Q 494 28 494 109 
Q 494 147 500 166 
L 978 2075 
Q 1025 2253 1025 2388 
Q 1025 2663 838 2663 
Q 638 2663 541 2423 
Q 444 2184 353 1819 
Q 353 1800 334 1789 
Q 316 1778 300 1778 
L 225 1778 
Q 203 1778 187 1801 
Q 172 1825 172 1844 
Q 241 2122 305 2315 
Q 369 2509 505 2668 
Q 641 2828 844 2828 
Q 1081 2828 1267 2678 
Q 1453 2528 1453 2291 
Q 1641 2541 1894 2684 
Q 2147 2828 2444 2828 
Q 2778 2828 2979 2648 
Q 3181 2469 3181 2138 
Q 3181 1947 3138 1784 
L 2394 -1178 
Q 2375 -1269 2300 -1325 
Q 2225 -1381 2131 -1381 
Q 2053 -1381 1997 -1332 
Q 1941 -1284 1941 -1203 
Q 1941 -1166 1947 -1153 
L 2681 1797 
Q 2747 2059 2747 2234 
Q 2747 2413 2672 2538 
Q 2597 2663 2431 2663 
Q 1803 2663 1388 1888 
L 953 141 
Q 931 53 854 -9 
Q 778 -72 684 -72 
z
" transform="scale(0.015625)"/>
      <path id="Cmr10-28" d="M 1984 -1588 
Q 1628 -1306 1370 -942 
Q 1113 -578 948 -165 
Q 784 247 703 697 
Q 622 1147 622 1600 
Q 622 2059 703 2509 
Q 784 2959 951 3375 
Q 1119 3791 1378 4153 
Q 1638 4516 1984 4788 
Q 1984 4800 2016 4800 
L 2075 4800 
Q 2094 4800 2109 4783 
Q 2125 4766 2125 4744 
Q 2125 4716 2113 4703 
Q 1800 4397 1592 4047 
Q 1384 3697 1257 3301 
Q 1131 2906 1075 2482 
Q 1019 2059 1019 1600 
Q 1019 -434 2106 -1491 
Q 2125 -1509 2125 -1544 
Q 2125 -1559 2108 -1579 
Q 2091 -1600 2075 -1600 
L 2016 -1600 
Q 1984 -1600 1984 -1588 
z
" transform="scale(0.015625)"/>
      <path id="Cmr10-29" d="M 416 -1600 
Q 359 -1600 359 -1544 
Q 359 -1516 372 -1503 
Q 1466 -434 1466 1600 
Q 1466 3634 384 4691 
Q 359 4706 359 4744 
Q 359 4766 376 4783 
Q 394 4800 416 4800 
L 475 4800 
Q 494 4800 506 4788 
Q 966 4425 1272 3906 
Q 1578 3388 1720 2800 
Q 1863 2213 1863 1600 
Q 1863 1147 1786 708 
Q 1709 269 1542 -157 
Q 1375 -584 1119 -945 
Q 863 -1306 506 -1588 
Q 494 -1600 475 -1600 
L 416 -1600 
z
" transform="scale(0.015625)"/>
     </defs>
     <use xlink:href="#Cmmi10-b4"/>
     <use xlink:href="#Cmr10-28" transform="translate(49.609375 0)"/>
     <use xlink:href="#Cmmi10-b5" transform="translate(88.427734 0)"/>
     <use xlink:href="#Cmr10-29" transform="translate(135.351562 0)"/>
    </g>
   </g>
   <g id="text_7">
    <!-- $L_{\mathrm{naive}}(\theta, \theta_0)$ -->
    <g transform="translate(212.072727 46.539665) scale(0.14 -0.14)">
     <defs>
      <path id="Cmmi10-4c" d="M 300 0 
Q 238 0 238 84 
Q 241 100 250 139 
Q 259 178 276 201 
Q 294 225 319 225 
Q 709 225 863 269 
Q 947 297 984 441 
L 1863 3956 
Q 1875 4019 1875 4044 
Q 1875 4113 1797 4122 
Q 1678 4147 1338 4147 
Q 1275 4147 1275 4231 
Q 1297 4313 1309 4342 
Q 1322 4372 1381 4372 
L 3272 4372 
Q 3328 4372 3328 4288 
Q 3319 4222 3306 4184 
Q 3294 4147 3244 4147 
Q 2772 4147 2613 4116 
Q 2456 4088 2419 3928 
L 1544 416 
Q 1516 338 1516 275 
Q 1516 225 1734 225 
L 2328 225 
Q 2831 225 3143 425 
Q 3456 625 3606 876 
Q 3756 1128 3857 1398 
Q 3959 1669 4006 1678 
L 4063 1678 
Q 4128 1678 4128 1594 
L 3559 44 
Q 3550 0 3500 0 
L 300 0 
z
" transform="scale(0.015625)"/>
      <path id="Cmmi10-3b" d="M 634 -1153 
Q 634 -1125 659 -1100 
Q 891 -878 1019 -587 
Q 1147 -297 1147 25 
L 1147 103 
Q 1044 0 891 0 
Q 744 0 641 103 
Q 538 206 538 353 
Q 538 503 641 603 
Q 744 703 891 703 
Q 1119 703 1216 492 
Q 1313 281 1313 25 
Q 1313 -331 1170 -651 
Q 1028 -972 769 -1228 
Q 744 -1241 728 -1241 
Q 697 -1241 665 -1212 
Q 634 -1184 634 -1153 
z
" transform="scale(0.015625)"/>
     </defs>
     <use xlink:href="#Cmmi10-4c"/>
     <use xlink:href="#Cmr10-6e" transform="translate(68.017578 -17.00625) scale(0.7)"/>
     <use xlink:href="#Cmr10-61" transform="translate(106.879883 -17.00625) scale(0.7)"/>
     <use xlink:href="#Cmr10-69" transform="translate(141.879883 -17.00625) scale(0.7)"/>
     <use xlink:href="#Cmr10-76" transform="translate(161.259766 -17.00625) scale(0.7)"/>
     <use xlink:href="#Cmr10-65" transform="translate(198.139648 -17.00625) scale(0.7)"/>
     <use xlink:href="#Cmr10-28" transform="translate(235.586328 0)"/>
     <use xlink:href="#Cmmi10-b5" transform="translate(274.404688 0)"/>
     <use xlink:href="#Cmmi10-3b" transform="translate(321.328516 0)"/>
     <use xlink:href="#Cmmi10-b5" transform="translate(366.572656 0)"/>
     <use xlink:href="#Cmr10-30" transform="translate(413.496484 -17.00625) scale(0.7)"/>
     <use xlink:href="#Cmr10-29" transform="translate(454.873828 0)"/>
    </g>
   </g>
   <g id="text_8">
    <!-- $L_{\mathrm{TRPO}}(\theta, \theta_0)$ -->
    <g transform="translate(217.072727 172.647003) scale(0.14 -0.14)">
     <use xlink:href="#Cmmi10-4c"/>
     <use xlink:href="#Cmr10-54" transform="translate(68.017578 -17.00625) scale(0.7)"/>
     <use xlink:href="#Cmr10-52" transform="translate(118.569336 -17.00625) scale(0.7)"/>
     <use xlink:href="#Cmr10-50" transform="translate(170.078125 -17.00625) scale(0.7)"/>
     <use xlink:href="#Cmr10-4f" transform="translate(217.69043 -17.00625) scale(0.7)"/>
     <use xlink:href="#Cmr10-28" transform="translate(278.447656 0)"/>
     <use xlink:href="#Cmmi10-b5" transform="translate(317.266016 0)"/>
     <use xlink:href="#Cmmi10-3b" transform="translate(364.189844 0)"/>
     <use xlink:href="#Cmmi10-b5" transform="translate(409.433984 0)"/>
     <use xlink:href="#Cmr10-30" transform="translate(456.357813 -17.00625) scale(0.7)"/>
     <use xlink:href="#Cmr10-29" transform="translate(497.735156 0)"/>
    </g>
   </g>
  </g>
 </g>
 <defs>
  <clipPath id="paa3d4fa6dd">
   <rect x="3.6" y="2.16" width="352.8" height="181.44"/>
  </clipPath>
 </defs>
</svg>
