<?xml version="1.0" encoding="utf-8" standalone="no"?>
<!DOCTYPE svg PUBLIC "-//W3C//DTD SVG 1.1//EN"
  "http://www.w3.org/Graphics/SVG/1.1/DTD/svg11.dtd">
<svg xmlns:xlink="http://www.w3.org/1999/xlink" width="360pt" height="216pt" viewBox="0 0 360 216" xmlns="http://www.w3.org/2000/svg" version="1.1">
 <metadata>
  <rdf:RDF xmlns:dc="http://purl.org/dc/elements/1.1/" xmlns:cc="http://creativecommons.org/ns#" xmlns:rdf="http://www.w3.org/1999/02/22-rdf-syntax-ns#">
   <cc:Work>
    <dc:type rdf:resource="http://purl.org/dc/dcmitype/StillImage"/>
    <dc:date>2025-12-16T08:39:11.671243</dc:date>
    <dc:format>image/svg+xml</dc:format>
    <dc:creator>
     <cc:Agent>
      <dc:title>Matplotlib v3.10.3, https://matplotlib.org/</dc:title>
     </cc:Agent>
    </dc:creator>
   </cc:Work>
  </rdf:RDF>
 </metadata>
 <defs>
  <style type="text/css">*{stroke-linejoin: round; stroke-linecap: butt}</style>
 </defs>
 <g id="figure_1">
  <g id="patch_1">
   <path d="M 0 216 
L 360 216 
L 360 0 
L 0 0 
z
" style="fill: #ffffff"/>
  </g>
  <g id="axes_1">
   <g id="patch_2">
    <path d="M 3.6 183.6 
L 356.4 183.6 
L 356.4 2.16 
L 3.6 2.16 
z
" style="fill: #ffffff"/>
   </g>
   <g id="matplotlib.axis_1">
    <g id="xtick_1">
     <g id="line2d_1">
      <defs>
       <path id="m0569e4fa1f" d="M 0 0 
L 0 3.5 
" style="stroke: #000000; stroke-width: 0.8"/>
      </defs>
      <g>
       <use xlink:href="#m0569e4fa1f" x="150.842975" y="183.6" style="stroke: #000000; stroke-width: 0.8"/>
      </g>
     </g>
     <g id="text_1">
      <!-- $\theta_0$ -->
      <g transform="translate(144.612975 201.237812) scale(0.14 -0.14)">
       <defs>
        <path id="Cmmi10-b5" d="M 1031 -72 
Q 741 -72 566 140 
Q 391 353 323 653 
Q 256 953 256 1247 
L 256 1253 
Q 256 1572 317 1915 
Q 378 2259 493 2601 
Q 609 2944 744 3213 
Q 838 3400 986 3631 
Q 1134 3863 1317 4064 
Q 1500 4266 1711 4389 
Q 1922 4513 2138 4513 
L 2144 4513 
Q 2375 4513 2529 4384 
Q 2684 4256 2770 4056 
Q 2856 3856 2890 3628 
Q 2925 3400 2925 3194 
Q 2925 2709 2794 2204 
Q 2663 1700 2431 1228 
Q 2344 1050 2189 809 
Q 2034 569 1861 378 
Q 1688 188 1472 58 
Q 1256 -72 1038 -72 
L 1031 -72 
z
M 1044 97 
Q 1256 97 1451 323 
Q 1647 550 1794 873 
Q 1941 1197 2052 1536 
Q 2163 1875 2216 2113 
L 909 2113 
Q 809 1709 753 1417 
Q 697 1125 697 844 
Q 697 97 1044 97 
z
M 959 2338 
L 2272 2338 
Q 2341 2619 2381 2808 
Q 2422 2997 2450 3206 
Q 2478 3416 2478 3597 
Q 2478 4347 2138 4347 
Q 1731 4347 1436 3692 
Q 1141 3038 959 2338 
z
" transform="scale(0.015625)"/>
        <path id="Cmr10-30" d="M 1600 -141 
Q 816 -141 533 504 
Q 250 1150 250 2041 
Q 250 2597 351 3087 
Q 453 3578 754 3920 
Q 1056 4263 1600 4263 
Q 2022 4263 2290 4056 
Q 2559 3850 2700 3523 
Q 2841 3197 2892 2823 
Q 2944 2450 2944 2041 
Q 2944 1491 2842 1011 
Q 2741 531 2444 195 
Q 2147 -141 1600 -141 
z
M 1600 25 
Q 1956 25 2131 390 
Q 2306 756 2347 1200 
Q 2388 1644 2388 2144 
Q 2388 2625 2347 3031 
Q 2306 3438 2132 3767 
Q 1959 4097 1600 4097 
Q 1238 4097 1063 3765 
Q 888 3434 847 3029 
Q 806 2625 806 2144 
Q 806 1788 823 1472 
Q 841 1156 916 820 
Q 991 484 1158 254 
Q 1325 25 1600 25 
z
" transform="scale(0.015625)"/>
       </defs>
       <use xlink:href="#Cmmi10-b5" transform="translate(0 0.484375)"/>
       <use xlink:href="#Cmr10-30" transform="translate(46.923828 -16.521875) scale(0.7)"/>
      </g>
     </g>
    </g>
    <g id="text_2">
     <!-- $\theta$ -->
     <g transform="translate(317.83 203.309812) scale(0.14 -0.14)">
      <use xlink:href="#Cmmi10-b5" transform="translate(0 0.484375)"/>
     </g>
    </g>
   </g>
   <g id="matplotlib.axis_2"/>
   <g id="line2d_2">
    <path d="M 19.636364 146.925957 
L 29.73801 139.312812 
L 39.839656 132.036668 
L 49.941303 125.097524 
L 60.042949 118.49538 
L 70.144596 112.230236 
L 80.246242 106.302093 
L 90.347888 100.710951 
L 97.924123 96.73875 
L 105.500358 92.956112 
L 113.076593 89.363037 
L 120.652827 85.959525 
L 128.229062 82.745575 
L 135.805297 79.721188 
L 143.381532 76.886364 
L 150.957767 74.241102 
L 158.534001 71.785404 
L 166.110236 69.519268 
L 173.686471 67.442694 
L 181.262706 65.555684 
L 188.838941 63.858236 
L 196.415175 62.35035 
L 203.99141 61.032028 
L 211.567645 59.903268 
L 219.14388 58.964071 
L 226.720115 58.214437 
L 234.296349 57.654365 
L 241.872584 57.283856 
L 249.448819 57.10291 
L 257.025054 57.111526 
L 264.601288 57.309705 
L 272.177523 57.697447 
L 279.753758 58.274752 
L 287.329993 59.041619 
L 294.906228 59.998049 
L 302.482462 61.144042 
L 310.058697 62.479598 
L 317.634932 64.004716 
L 325.211167 65.719397 
L 332.787402 67.62364 
L 340.363636 69.717447 
L 340.363636 69.717447 
" clip-path="url(#p299b91cf21)" style="fill: none; stroke: #000000; stroke-width: 1.5; stroke-linecap: square"/>
   </g>
   <g id="line2d_3">
    <path d="M 19.636364 118.499188 
L 340.363636 10.407273 
L 340.363636 10.407273 
" clip-path="url(#p299b91cf21)" style="fill: none; stroke: #000000; stroke-width: 1.5; stroke-linecap: square"/>
   </g>
   <g id="line2d_4">
    <path d="M 19.636364 175.352727 
L 27.212598 166.423175 
L 34.788833 157.872747 
L 42.365068 149.701445 
L 49.941303 141.909269 
L 57.517538 134.496218 
L 65.093772 127.462292 
L 72.670007 120.807492 
L 80.246242 114.531818 
L 87.822477 108.635268 
L 95.398712 103.117844 
L 102.974946 97.979546 
L 110.551181 93.220373 
L 118.127416 88.840325 
L 125.703651 84.839403 
L 130.754474 82.382747 
L 135.805297 80.094591 
L 140.85612 77.974935 
L 145.906943 76.02378 
L 150.957767 74.241124 
L 156.00859 72.626969 
L 161.059413 71.181314 
L 166.110236 69.904159 
L 171.161059 68.795504 
L 176.211883 67.85535 
L 181.262706 67.083696 
L 186.313529 66.480542 
L 191.364352 66.045888 
L 196.415175 65.779734 
L 201.465999 65.68208 
L 206.516822 65.752927 
L 211.567645 65.992274 
L 216.618468 66.400121 
L 221.669291 66.976468 
L 226.720115 67.721316 
L 231.770938 68.634663 
L 236.821761 69.716511 
L 241.872584 70.966859 
L 246.923407 72.385707 
L 251.97423 73.973056 
L 257.025054 75.728904 
L 262.075877 77.653253 
L 267.1267 79.746102 
L 272.177523 82.007451 
L 277.228346 84.437301 
L 282.27917 87.03565 
L 287.329993 89.8025 
L 294.906228 94.268712 
L 302.482462 99.11405 
L 310.058697 104.338513 
L 317.634932 109.942102 
L 325.211167 115.924816 
L 332.787402 122.286656 
L 340.363636 129.027621 
L 340.363636 129.027621 
" clip-path="url(#p299b91cf21)" style="fill: none; stroke: #000000; stroke-width: 1.5; stroke-linecap: square"/>
   </g>
   <g id="line2d_5">
    <defs>
     <path id="m9acfab1cae" d="M 0 2 
C 0.530406 2 1.03916 1.789267 1.414214 1.414214 
C 1.789267 1.03916 2 0.530406 2 0 
C 2 -0.530406 1.789267 -1.03916 1.414214 -1.414214 
C 1.03916 -1.789267 0.530406 -2 0 -2 
C -0.530406 -2 -1.03916 -1.789267 -1.414214 -1.414214 
C -1.789267 -1.03916 -2 -0.530406 -2 0 
C -2 0.530406 -1.789267 1.03916 -1.414214 1.414214 
C -1.03916 1.789267 -0.530406 2 0 2 
z
" style="stroke: #000000"/>
    </defs>
    <g clip-path="url(#p299b91cf21)">
     <use xlink:href="#m9acfab1cae" x="150.842975" y="74.279768" style="stroke: #000000"/>
     <use xlink:href="#m9acfab1cae" x="252.892562" y="57.083327" style="stroke: #000000"/>
     <use xlink:href="#m9acfab1cae" x="201.867769" y="65.681547" style="stroke: #000000"/>
    </g>
   </g>
   <g id="line2d_6">
    <path d="M 150.842975 183.6 
L 150.842975 38.448 
" clip-path="url(#p299b91cf21)" style="fill: none; stroke: #000000; stroke-linecap: square"/>
   </g>
   <g id="patch_3">
    <path d="M 3.6 183.6 
L 3.6 2.16 
" style="fill: none; stroke: #000000; stroke-width: 0.8; stroke-linejoin: miter; stroke-linecap: square"/>
   </g>
   <g id="patch_4">
    <path d="M 356.4 183.6 
L 356.4 2.16 
" style="fill: none; stroke: #000000; stroke-width: 0.8; stroke-linejoin: miter; stroke-linecap: square"/>
   </g>
   <g id="patch_5">
    <path d="M 3.6 183.6 
L 356.4 183.6 
" style="fill: none; stroke: #000000; stroke-width: 0.8; stroke-linejoin: miter; stroke-linecap: square"/>
   </g>
   <g id="patch_6">
    <path d="M 3.6 2.16 
L 356.4 2.16 
" style="fill: none; stroke: #000000; stroke-width: 0.8; stroke-linejoin: miter; stroke-linecap: square"/>
   </g>
   <g id="text_3">
    <!-- $\eta(\theta)$ -->
    <g transform="translate(286.706612 54.198491) scale(0.14 -0.14)">
     <defs>
      <path id="Cmmi10-b4" d="M 684 -72 
Q 606 -72 550 -22 
Q 494 28 494 109 
Q 494 147 500 166 
L 978 2075 
Q 1025 2253 1025 2388 
Q 1025 2663 838 2663 
Q 638 2663 541 2423 
Q 444 2184 353 1819 
Q 353 1800 334 1789 
Q 316 1778 300 1778 
L 225 1778 
Q 203 1778 187 1801 
Q 172 1825 172 1844 
Q 241 2122 305 2315 
Q 369 2509 505 2668 
Q 641 2828 844 2828 
Q 1081 2828 1267 2678 
Q 1453 2528 1453 2291 
Q 1641 2541 1894 2684 
Q 2147 2828 2444 2828 
Q 2778 2828 2979 2648 
Q 3181 2469 3181 2138 
Q 3181 1947 3138 1784 
L 2394 -1178 
Q 2375 -1269 2300 -1325 
Q 2225 -1381 2131 -1381 
Q 2053 -1381 1997 -1332 
Q 1941 -1284 1941 -1203 
Q 1941 -1166 1947 -1153 
L 2681 1797 
Q 2747 2059 2747 2234 
Q 2747 2413 2672 2538 
Q 2597 2663 2431 2663 
Q 1803 2663 1388 1888 
L 953 141 
Q 931 53 854 -9 
Q 778 -72 684 -72 
z
" transform="scale(0.015625)"/>
      <path id="Cmr10-28" d="M 1984 -1588 
Q 1628 -1306 1370 -942 
Q 1113 -578 948 -165 
Q 784 247 703 697 
Q 622 1147 622 1600 
Q 622 2059 703 2509 
Q 784 2959 951 3375 
Q 1119 3791 1378 4153 
Q 1638 4516 1984 4788 
Q 1984 4800 2016 4800 
L 2075 4800 
Q 2094 4800 2109 4783 
Q 2125 4766 2125 4744 
Q 2125 4716 2113 4703 
Q 1800 4397 1592 4047 
Q 1384 3697 1257 3301 
Q 1131 2906 1075 2482 
Q 1019 2059 1019 1600 
Q 1019 -434 2106 -1491 
Q 2125 -1509 2125 -1544 
Q 2125 -1559 2108 -1579 
Q 2091 -1600 2075 -1600 
L 2016 -1600 
Q 1984 -1600 1984 -1588 
z
" transform="scale(0.015625)"/>
      <path id="Cmr10-29" d="M 416 -1600 
Q 359 -1600 359 -1544 
Q 359 -1516 372 -1503 
Q 1466 -434 1466 1600 
Q 1466 3634 384 4691 
Q 359 4706 359 4744 
Q 359 4766 376 4783 
Q 394 4800 416 4800 
L 475 4800 
Q 494 4800 506 4788 
Q 966 4425 1272 3906 
Q 1578 3388 1720 2800 
Q 1863 2213 1863 1600 
Q 1863 1147 1786 708 
Q 1709 269 1542 -157 
Q 1375 -584 1119 -945 
Q 863 -1306 506 -1588 
Q 494 -1600 475 -1600 
L 416 -1600 
z
" transform="scale(0.015625)"/>
     </defs>
     <use xlink:href="#Cmmi10-b4"/>
     <use xlink:href="#Cmr10-28" transform="translate(49.609375 0)"/>
     <use xlink:href="#Cmmi10-b5" transform="translate(88.427734 0)"/>
     <use xlink:href="#Cmr10-29" transform="translate(135.351562 0)"/>
    </g>
   </g>
   <g id="patch_7">
    <path d="M 236.042378 25.50217 
Q 254.071509 27.288412 270.988053 28.964423 
" style="fill: none; stroke: #000000; stroke-linecap: round"/>
    <path d="M 265.691397 25.625947 
L 270.988053 28.964423 
L 265.139278 31.198663 
" style="fill: none; stroke: #000000; stroke-linecap: round"/>
   </g>
   <g id="text_4">
    <!-- $\eta(\theta_0) + (\theta - \theta_0) \cdot \nabla \eta(\theta_0)$ -->
    <g transform="translate(89.809587 21.560348) scale(0.14 -0.14)">
     <defs>
      <path id="Cmr10-2b" d="M 481 1472 
Q 428 1472 393 1512 
Q 359 1553 359 1600 
Q 359 1647 393 1687 
Q 428 1728 481 1728 
L 2363 1728 
L 2363 3616 
Q 2363 3666 2400 3698 
Q 2438 3731 2491 3731 
Q 2538 3731 2578 3698 
Q 2619 3666 2619 3616 
L 2619 1728 
L 4500 1728 
Q 4547 1728 4581 1687 
Q 4616 1647 4616 1600 
Q 4616 1553 4581 1512 
Q 4547 1472 4500 1472 
L 2619 1472 
L 2619 -416 
Q 2619 -466 2578 -498 
Q 2538 -531 2491 -531 
Q 2438 -531 2400 -498 
Q 2363 -466 2363 -416 
L 2363 1472 
L 481 1472 
z
" transform="scale(0.015625)"/>
      <path id="Cmsy10-a1" d="M 653 1472 
Q 600 1472 565 1512 
Q 531 1553 531 1600 
Q 531 1647 565 1687 
Q 600 1728 653 1728 
L 4325 1728 
Q 4375 1728 4408 1687 
Q 4441 1647 4441 1600 
Q 4441 1553 4408 1512 
Q 4375 1472 4325 1472 
L 653 1472 
z
" transform="scale(0.015625)"/>
      <path id="Cmsy10-a2" d="M 538 1600 
Q 538 1691 584 1772 
Q 631 1853 714 1903 
Q 797 1953 891 1953 
Q 981 1953 1064 1903 
Q 1147 1853 1194 1772 
Q 1241 1691 1241 1600 
Q 1241 1456 1139 1351 
Q 1038 1247 891 1247 
Q 747 1247 642 1351 
Q 538 1456 538 1600 
z
" transform="scale(0.015625)"/>
      <path id="Cmsy10-72" d="M 2503 -141 
L 300 4300 
Q 300 4306 298 4311 
Q 297 4316 294 4319 
Q 294 4372 347 4372 
L 4978 4372 
Q 5031 4372 5031 4319 
Q 5031 4313 5029 4309 
Q 5028 4306 5025 4300 
L 2822 -141 
Q 2791 -213 2706 -213 
L 2619 -213 
Q 2534 -213 2503 -141 
z
M 2847 416 
L 4569 3891 
L 1125 3891 
L 2847 416 
z
" transform="scale(0.015625)"/>
     </defs>
     <use xlink:href="#Cmmi10-b4"/>
     <use xlink:href="#Cmr10-28" transform="translate(49.609375 0)"/>
     <use xlink:href="#Cmmi10-b5" transform="translate(88.427734 0)"/>
     <use xlink:href="#Cmr10-30" transform="translate(135.351562 -17.00625) scale(0.7)"/>
     <use xlink:href="#Cmr10-29" transform="translate(176.728906 0)"/>
     <use xlink:href="#Cmr10-2b" transform="translate(233.105859 0)"/>
     <use xlink:href="#Cmr10-28" transform="translate(328.35 0)"/>
     <use xlink:href="#Cmmi10-b5" transform="translate(367.168359 0)"/>
     <use xlink:href="#Cmsy10-a1" transform="translate(431.650781 0)"/>
     <use xlink:href="#Cmmi10-b5" transform="translate(526.894922 0)"/>
     <use xlink:href="#Cmr10-30" transform="translate(573.81875 -17.00625) scale(0.7)"/>
     <use xlink:href="#Cmr10-29" transform="translate(615.196094 0)"/>
     <use xlink:href="#Cmsy10-a2" transform="translate(671.573047 0)"/>
     <use xlink:href="#Cmsy10-72" transform="translate(716.817188 0)"/>
     <use xlink:href="#Cmmi10-b4" transform="translate(800.117969 0)"/>
     <use xlink:href="#Cmr10-28" transform="translate(849.727344 0)"/>
     <use xlink:href="#Cmmi10-b5" transform="translate(888.545703 0)"/>
     <use xlink:href="#Cmr10-30" transform="translate(935.469531 -17.00625) scale(0.7)"/>
     <use xlink:href="#Cmr10-29" transform="translate(976.846875 0)"/>
    </g>
   </g>
   <g id="text_5">
    <!-- $L_{\mathrm{TRPO}}(\theta, \theta_0)$ -->
    <g transform="translate(236.026612 120.663172) scale(0.14 -0.14)">
     <defs>
      <path id="Cmmi10-4c" d="M 300 0 
Q 238 0 238 84 
Q 241 100 250 139 
Q 259 178 276 201 
Q 294 225 319 225 
Q 709 225 863 269 
Q 947 297 984 441 
L 1863 3956 
Q 1875 4019 1875 4044 
Q 1875 4113 1797 4122 
Q 1678 4147 1338 4147 
Q 1275 4147 1275 4231 
Q 1297 4313 1309 4342 
Q 1322 4372 1381 4372 
L 3272 4372 
Q 3328 4372 3328 4288 
Q 3319 4222 3306 4184 
Q 3294 4147 3244 4147 
Q 2772 4147 2613 4116 
Q 2456 4088 2419 3928 
L 1544 416 
Q 1516 338 1516 275 
Q 1516 225 1734 225 
L 2328 225 
Q 2831 225 3143 425 
Q 3456 625 3606 876 
Q 3756 1128 3857 1398 
Q 3959 1669 4006 1678 
L 4063 1678 
Q 4128 1678 4128 1594 
L 3559 44 
Q 3550 0 3500 0 
L 300 0 
z
" transform="scale(0.015625)"/>
      <path id="Cmr10-54" d="M 1081 0 
L 1081 225 
Q 1403 225 1706 261 
Q 2009 297 2009 428 
L 2009 3944 
Q 2009 4081 1932 4114 
Q 1856 4147 1684 4147 
L 1416 4147 
Q 888 4147 666 3916 
Q 550 3800 500 3545 
Q 450 3291 416 2906 
L 231 2906 
L 353 4372 
L 4263 4372 
L 4384 2906 
L 4197 2906 
Q 4159 3319 4114 3561 
Q 4069 3803 3950 3916 
Q 3725 4147 3200 4147 
L 2931 4147 
Q 2816 4147 2752 4137 
Q 2688 4128 2647 4083 
Q 2606 4038 2606 3944 
L 2606 428 
Q 2606 297 2909 261 
Q 3213 225 3531 225 
L 3531 0 
L 1081 0 
z
" transform="scale(0.015625)"/>
      <path id="Cmr10-52" d="M 213 0 
L 213 225 
Q 872 225 872 428 
L 872 3944 
Q 872 4147 213 4147 
L 213 4372 
L 2222 4372 
Q 2581 4372 2976 4242 
Q 3372 4113 3637 3847 
Q 3903 3581 3903 3213 
Q 3903 2944 3742 2733 
Q 3581 2522 3329 2380 
Q 3078 2238 2816 2175 
Q 3103 2075 3318 1856 
Q 3534 1638 3578 1356 
L 3669 788 
Q 3731 403 3800 214 
Q 3869 25 4103 25 
Q 4303 25 4401 211 
Q 4500 397 4500 616 
Q 4500 638 4520 655 
Q 4541 672 4563 672 
L 4622 672 
Q 4684 672 4684 588 
Q 4684 413 4615 245 
Q 4547 78 4417 -31 
Q 4288 -141 4109 -141 
Q 3647 -141 3314 89 
Q 2981 319 2981 763 
L 2981 1331 
Q 2981 1650 2759 1878 
Q 2538 2106 2216 2106 
L 1447 2106 
L 1447 428 
Q 1447 225 2106 225 
L 2106 0 
L 213 0 
z
M 1447 2272 
L 2131 2272 
Q 2663 2272 2941 2486 
Q 3219 2700 3219 3213 
Q 3219 3722 2944 3934 
Q 2669 4147 2131 4147 
L 1772 4147 
Q 1656 4147 1592 4137 
Q 1528 4128 1487 4083 
Q 1447 4038 1447 3944 
L 1447 2272 
z
" transform="scale(0.015625)"/>
      <path id="Cmr10-50" d="M 213 0 
L 213 225 
Q 872 225 872 428 
L 872 3944 
Q 872 4147 213 4147 
L 213 4372 
L 2491 4372 
Q 2841 4372 3191 4228 
Q 3541 4084 3767 3809 
Q 3994 3534 3994 3169 
Q 3994 2813 3766 2544 
Q 3538 2275 3191 2136 
Q 2844 1997 2491 1997 
L 1466 1997 
L 1466 428 
Q 1466 225 2125 225 
L 2125 0 
L 213 0 
z
M 1447 2188 
L 2316 2188 
Q 2669 2188 2887 2289 
Q 3106 2391 3207 2605 
Q 3309 2819 3309 3169 
Q 3309 3691 3079 3919 
Q 2850 4147 2316 4147 
L 1772 4147 
Q 1656 4147 1592 4137 
Q 1528 4128 1487 4083 
Q 1447 4038 1447 3944 
L 1447 2188 
z
" transform="scale(0.015625)"/>
      <path id="Cmr10-4f" d="M 2491 -141 
Q 1881 -141 1395 182 
Q 909 506 634 1042 
Q 359 1578 359 2169 
Q 359 2606 517 3034 
Q 675 3463 958 3794 
Q 1241 4125 1637 4319 
Q 2034 4513 2491 4513 
Q 2944 4513 3342 4317 
Q 3741 4122 4025 3787 
Q 4309 3453 4462 3037 
Q 4616 2622 4616 2169 
Q 4616 1578 4341 1042 
Q 4066 506 3578 182 
Q 3091 -141 2491 -141 
z
M 1428 691 
Q 1616 397 1891 223 
Q 2166 50 2491 50 
Q 2700 50 2901 134 
Q 3103 219 3267 366 
Q 3431 513 3547 691 
Q 3928 1266 3928 2272 
Q 3928 3194 3547 3731 
Q 3359 4000 3079 4162 
Q 2800 4325 2491 4325 
Q 2178 4325 1897 4162 
Q 1616 4000 1428 3731 
Q 1278 3522 1195 3286 
Q 1113 3050 1078 2797 
Q 1044 2544 1044 2272 
Q 1044 1981 1076 1704 
Q 1109 1428 1198 1162 
Q 1288 897 1428 691 
z
" transform="scale(0.015625)"/>
      <path id="Cmmi10-3b" d="M 634 -1153 
Q 634 -1125 659 -1100 
Q 891 -878 1019 -587 
Q 1147 -297 1147 25 
L 1147 103 
Q 1044 0 891 0 
Q 744 0 641 103 
Q 538 206 538 353 
Q 538 503 641 603 
Q 744 703 891 703 
Q 1119 703 1216 492 
Q 1313 281 1313 25 
Q 1313 -331 1170 -651 
Q 1028 -972 769 -1228 
Q 744 -1241 728 -1241 
Q 697 -1241 665 -1212 
Q 634 -1184 634 -1153 
z
" transform="scale(0.015625)"/>
     </defs>
     <use xlink:href="#Cmmi10-4c"/>
     <use xlink:href="#Cmr10-54" transform="translate(68.017578 -17.00625) scale(0.7)"/>
     <use xlink:href="#Cmr10-52" transform="translate(118.569336 -17.00625) scale(0.7)"/>
     <use xlink:href="#Cmr10-50" transform="translate(170.078125 -17.00625) scale(0.7)"/>
     <use xlink:href="#Cmr10-4f" transform="translate(217.69043 -17.00625) scale(0.7)"/>
     <use xlink:href="#Cmr10-28" transform="translate(278.447656 0)"/>
     <use xlink:href="#Cmmi10-b5" transform="translate(317.266016 0)"/>
     <use xlink:href="#Cmmi10-3b" transform="translate(364.189844 0)"/>
     <use xlink:href="#Cmmi10-b5" transform="translate(409.433984 0)"/>
     <use xlink:href="#Cmr10-30" transform="translate(456.357813 -17.00625) scale(0.7)"/>
     <use xlink:href="#Cmr10-29" transform="translate(497.735156 0)"/>
    </g>
   </g>
  </g>
 </g>
 <defs>
  <clipPath id="p299b91cf21">
   <rect x="3.6" y="2.16" width="352.8" height="181.44"/>
  </clipPath>
 </defs>
</svg>
