<?xml version="1.0" encoding="utf-8" standalone="no"?>
<!DOCTYPE svg PUBLIC "-//W3C//DTD SVG 1.1//EN"
  "http://www.w3.org/Graphics/SVG/1.1/DTD/svg11.dtd">
<svg xmlns:xlink="http://www.w3.org/1999/xlink" width="504pt" height="360pt" viewBox="0 0 504 360" xmlns="http://www.w3.org/2000/svg" version="1.1">
 <metadata>
  <rdf:RDF xmlns:dc="http://purl.org/dc/elements/1.1/" xmlns:cc="http://creativecommons.org/ns#" xmlns:rdf="http://www.w3.org/1999/02/22-rdf-syntax-ns#">
   <cc:Work>
    <dc:type rdf:resource="http://purl.org/dc/dcmitype/StillImage"/>
    <dc:date>2025-07-01T19:23:28.024878</dc:date>
    <dc:format>image/svg+xml</dc:format>
    <dc:creator>
     <cc:Agent>
      <dc:title>Matplotlib v3.10.3, https://matplotlib.org/</dc:title>
     </cc:Agent>
    </dc:creator>
   </cc:Work>
  </rdf:RDF>
 </metadata>
 <defs>
  <style type="text/css">*{stroke-linejoin: round; stroke-linecap: butt}</style>
 </defs>
 <g id="figure_1">
  <g id="patch_1">
   <path d="M 0 360 
L 504 360 
L 504 0 
L 0 0 
z
" style="fill: #ffffff"/>
  </g>
  <g id="axes_1">
   <g id="patch_2">
    <path d="M 45.36 309.6 
L 87.94481 309.6 
L 87.94481 76.984615 
L 45.36 76.984615 
z
" style="fill: #ffffff"/>
   </g>
   <g id="matplotlib.axis_1">
    <g id="text_1">
     <!-- $p(x, 0)$ -->
     <g transform="translate(46.982405 344.47) scale(0.14 -0.14)">
      <defs>
       <path id="Cmmi10-70" d="M -159 -1241 
Q -219 -1241 -219 -1159 
Q -197 -1019 -134 -1019 
Q 66 -1019 145 -983 
Q 225 -947 269 -800 
L 991 2081 
Q 1038 2200 1038 2388 
Q 1038 2663 850 2663 
Q 650 2663 553 2423 
Q 456 2184 366 1819 
Q 366 1778 313 1778 
L 238 1778 
Q 222 1778 203 1801 
Q 184 1825 184 1844 
Q 253 2122 317 2315 
Q 381 2509 517 2668 
Q 653 2828 856 2828 
Q 1075 2828 1240 2704 
Q 1406 2581 1453 2369 
Q 1628 2572 1840 2700 
Q 2053 2828 2278 2828 
Q 2547 2828 2745 2684 
Q 2944 2541 3044 2308 
Q 3144 2075 3144 1806 
Q 3144 1394 2933 953 
Q 2722 513 2361 220 
Q 2000 -72 1588 -72 
Q 1400 -72 1248 34 
Q 1097 141 1013 313 
L 722 -825 
Q 706 -919 703 -934 
Q 703 -1019 1125 -1019 
Q 1191 -1019 1191 -1100 
Q 1169 -1184 1155 -1212 
Q 1141 -1241 1081 -1241 
L -159 -1241 
z
M 1594 97 
Q 1816 97 2006 280 
Q 2197 463 2316 691 
Q 2403 863 2479 1111 
Q 2556 1359 2612 1640 
Q 2669 1922 2669 2088 
Q 2669 2234 2630 2362 
Q 2591 2491 2502 2577 
Q 2413 2663 2266 2663 
Q 2031 2663 1823 2495 
Q 1616 2328 1447 2081 
L 1447 2059 
L 1094 647 
Q 1138 419 1263 258 
Q 1388 97 1594 97 
z
" transform="scale(0.015625)"/>
       <path id="Cmr10-28" d="M 1984 -1588 
Q 1628 -1306 1370 -942 
Q 1113 -578 948 -165 
Q 784 247 703 697 
Q 622 1147 622 1600 
Q 622 2059 703 2509 
Q 784 2959 951 3375 
Q 1119 3791 1378 4153 
Q 1638 4516 1984 4788 
Q 1984 4800 2016 4800 
L 2075 4800 
Q 2094 4800 2109 4783 
Q 2125 4766 2125 4744 
Q 2125 4716 2113 4703 
Q 1800 4397 1592 4047 
Q 1384 3697 1257 3301 
Q 1131 2906 1075 2482 
Q 1019 2059 1019 1600 
Q 1019 -434 2106 -1491 
Q 2125 -1509 2125 -1544 
Q 2125 -1559 2108 -1579 
Q 2091 -1600 2075 -1600 
L 2016 -1600 
Q 1984 -1600 1984 -1588 
z
" transform="scale(0.015625)"/>
       <path id="Cmmi10-78" d="M 500 184 
Q 613 97 819 97 
Q 1019 97 1172 289 
Q 1325 481 1381 709 
L 1672 1844 
Q 1741 2153 1741 2266 
Q 1741 2425 1652 2544 
Q 1563 2663 1403 2663 
Q 1200 2663 1022 2536 
Q 844 2409 722 2214 
Q 600 2019 550 1819 
Q 538 1778 500 1778 
L 422 1778 
Q 372 1778 372 1838 
L 372 1856 
Q 434 2094 584 2320 
Q 734 2547 951 2687 
Q 1169 2828 1416 2828 
Q 1650 2828 1839 2703 
Q 2028 2578 2106 2363 
Q 2216 2559 2386 2693 
Q 2556 2828 2759 2828 
Q 2897 2828 3040 2779 
Q 3184 2731 3275 2631 
Q 3366 2531 3366 2381 
Q 3366 2219 3261 2101 
Q 3156 1984 2994 1984 
Q 2891 1984 2822 2050 
Q 2753 2116 2753 2216 
Q 2753 2350 2845 2451 
Q 2938 2553 3066 2572 
Q 2950 2663 2747 2663 
Q 2541 2663 2389 2472 
Q 2238 2281 2175 2047 
L 1894 916 
Q 1825 659 1825 494 
Q 1825 331 1917 214 
Q 2009 97 2163 97 
Q 2463 97 2698 361 
Q 2934 625 3009 941 
Q 3022 978 3059 978 
L 3138 978 
Q 3163 978 3178 961 
Q 3194 944 3194 922 
Q 3194 916 3188 903 
Q 3097 522 2806 225 
Q 2516 -72 2150 -72 
Q 1916 -72 1727 54 
Q 1538 181 1459 397 
Q 1359 209 1182 68 
Q 1006 -72 806 -72 
Q 669 -72 523 -23 
Q 378 25 287 125 
Q 197 225 197 378 
Q 197 528 301 651 
Q 406 775 563 775 
Q 669 775 741 711 
Q 813 647 813 544 
Q 813 409 723 309 
Q 634 209 500 184 
z
" transform="scale(0.015625)"/>
       <path id="Cmmi10-3b" d="M 634 -1153 
Q 634 -1125 659 -1100 
Q 891 -878 1019 -587 
Q 1147 -297 1147 25 
L 1147 103 
Q 1044 0 891 0 
Q 744 0 641 103 
Q 538 206 538 353 
Q 538 503 641 603 
Q 744 703 891 703 
Q 1119 703 1216 492 
Q 1313 281 1313 25 
Q 1313 -331 1170 -651 
Q 1028 -972 769 -1228 
Q 744 -1241 728 -1241 
Q 697 -1241 665 -1212 
Q 634 -1184 634 -1153 
z
" transform="scale(0.015625)"/>
       <path id="Cmr10-30" d="M 1600 -141 
Q 816 -141 533 504 
Q 250 1150 250 2041 
Q 250 2597 351 3087 
Q 453 3578 754 3920 
Q 1056 4263 1600 4263 
Q 2022 4263 2290 4056 
Q 2559 3850 2700 3523 
Q 2841 3197 2892 2823 
Q 2944 2450 2944 2041 
Q 2944 1491 2842 1011 
Q 2741 531 2444 195 
Q 2147 -141 1600 -141 
z
M 1600 25 
Q 1956 25 2131 390 
Q 2306 756 2347 1200 
Q 2388 1644 2388 2144 
Q 2388 2625 2347 3031 
Q 2306 3438 2132 3767 
Q 1959 4097 1600 4097 
Q 1238 4097 1063 3765 
Q 888 3434 847 3029 
Q 806 2625 806 2144 
Q 806 1788 823 1472 
Q 841 1156 916 820 
Q 991 484 1158 254 
Q 1325 25 1600 25 
z
" transform="scale(0.015625)"/>
       <path id="Cmr10-29" d="M 416 -1600 
Q 359 -1600 359 -1544 
Q 359 -1516 372 -1503 
Q 1466 -434 1466 1600 
Q 1466 3634 384 4691 
Q 359 4706 359 4744 
Q 359 4766 376 4783 
Q 394 4800 416 4800 
L 475 4800 
Q 494 4800 506 4788 
Q 966 4425 1272 3906 
Q 1578 3388 1720 2800 
Q 1863 2213 1863 1600 
Q 1863 1147 1786 708 
Q 1709 269 1542 -157 
Q 1375 -584 1119 -945 
Q 863 -1306 506 -1588 
Q 494 -1600 475 -1600 
L 416 -1600 
z
" transform="scale(0.015625)"/>
      </defs>
      <use xlink:href="#Cmmi10-70"/>
      <use xlink:href="#Cmr10-28" transform="translate(50.292969 0)"/>
      <use xlink:href="#Cmmi10-78" transform="translate(89.111328 0)"/>
      <use xlink:href="#Cmmi10-3b" transform="translate(146.191406 0)"/>
      <use xlink:href="#Cmr10-30" transform="translate(191.435547 0)"/>
      <use xlink:href="#Cmr10-29" transform="translate(241.435547 0)"/>
     </g>
    </g>
   </g>
   <g id="matplotlib.axis_2">
    <g id="ytick_1">
     <g id="line2d_1">
      <path d="M 45.36 309.6 
L 87.94481 309.6 
" clip-path="url(#pfe0c645ade)" style="fill: none; stroke: #b0b0b0; stroke-width: 0.8; stroke-linecap: square"/>
     </g>
     <g id="line2d_2">
      <defs>
       <path id="m948a06515f" d="M 0 0 
L -3.5 0 
" style="stroke: #000000; stroke-width: 0.8"/>
      </defs>
      <g>
       <use xlink:href="#m948a06515f" x="45.36" y="309.6" style="stroke: #000000; stroke-width: 0.8"/>
      </g>
     </g>
     <g id="text_2">
      <!-- −3 -->
      <g transform="translate(23.24 314.535) scale(0.14 -0.14)">
       <defs>
        <path id="EBGaramond-Regular-2212" d="M 410 1421 
Q 378 1421 349 1446 
Q 320 1472 320 1498 
Q 320 1530 329 1603 
Q 339 1677 374 1741 
Q 410 1805 474 1805 
L 3437 1805 
Q 3469 1805 3494 1782 
Q 3520 1760 3520 1728 
Q 3520 1626 3465 1523 
Q 3411 1421 3322 1421 
L 410 1421 
z
" transform="scale(0.015625)"/>
        <path id="EBGaramond-Regular-33" d="M 1030 -243 
Q 883 -243 716 -195 
Q 550 -147 435 -83 
Q 320 -19 320 32 
Q 320 77 371 147 
Q 422 218 489 272 
Q 557 326 602 326 
Q 672 326 729 288 
Q 787 250 851 198 
Q 934 128 1043 64 
Q 1152 0 1331 0 
Q 1568 0 1779 121 
Q 1990 243 2128 457 
Q 2266 672 2266 934 
Q 2266 1184 2182 1414 
Q 2099 1645 1936 1795 
Q 1773 1946 1523 1946 
Q 1453 1946 1334 1930 
Q 1216 1914 1107 1850 
Q 1075 1830 1033 1852 
Q 992 1875 998 1907 
Q 1024 1990 1075 2044 
Q 1126 2099 1190 2125 
Q 1248 2150 1376 2224 
Q 1504 2298 1648 2410 
Q 1792 2522 1894 2666 
Q 1997 2810 1997 2982 
Q 1997 3245 1827 3446 
Q 1658 3648 1395 3648 
Q 1146 3648 995 3561 
Q 845 3475 755 3363 
Q 666 3251 621 3164 
Q 576 3078 538 3078 
Q 512 3078 473 3116 
Q 435 3155 435 3200 
Q 435 3283 505 3420 
Q 576 3558 726 3699 
Q 877 3840 1110 3936 
Q 1344 4032 1670 4032 
Q 1882 4032 2070 3939 
Q 2259 3846 2380 3683 
Q 2502 3520 2502 3302 
Q 2502 3149 2438 2982 
Q 2374 2816 2227 2653 
Q 2080 2490 1830 2342 
Q 1811 2336 1811 2320 
Q 1811 2304 1837 2304 
Q 2112 2304 2329 2166 
Q 2547 2029 2678 1801 
Q 2810 1574 2810 1299 
Q 2810 941 2656 656 
Q 2502 371 2246 169 
Q 1990 -32 1673 -137 
Q 1357 -243 1030 -243 
z
" transform="scale(0.015625)"/>
       </defs>
       <use xlink:href="#EBGaramond-Regular-2212"/>
       <use xlink:href="#EBGaramond-Regular-33" transform="translate(59.999985 0)"/>
      </g>
     </g>
    </g>
    <g id="ytick_2">
     <g id="line2d_3">
      <path d="M 45.36 270.830769 
L 87.94481 270.830769 
" clip-path="url(#pfe0c645ade)" style="fill: none; stroke: #b0b0b0; stroke-width: 0.8; stroke-linecap: square"/>
     </g>
     <g id="line2d_4">
      <g>
       <use xlink:href="#m948a06515f" x="45.36" y="270.830769" style="stroke: #000000; stroke-width: 0.8"/>
      </g>
     </g>
     <g id="text_3">
      <!-- −2 -->
      <g transform="translate(23.24 275.765769) scale(0.14 -0.14)">
       <defs>
        <path id="EBGaramond-Regular-32" d="M 2683 -19 
Q 2638 -19 2542 -12 
Q 2446 -6 2324 0 
Q 2203 6 2072 12 
Q 1941 19 1819 19 
Q 1698 19 1474 12 
Q 1250 6 1003 3 
Q 757 0 571 -6 
Q 386 -13 334 -13 
Q 309 -13 257 28 
Q 206 70 206 96 
Q 206 128 219 141 
Q 232 154 258 179 
L 1352 1312 
Q 1672 1645 1883 2057 
Q 2094 2470 2094 2893 
Q 2094 3232 1889 3427 
Q 1685 3622 1410 3622 
Q 1147 3622 923 3478 
Q 699 3334 565 3104 
Q 546 3066 517 3040 
Q 488 3014 456 3014 
Q 430 3014 395 3068 
Q 360 3123 360 3206 
Q 360 3283 453 3417 
Q 546 3552 712 3693 
Q 878 3834 1108 3933 
Q 1339 4032 1608 4032 
Q 1928 4032 2158 3897 
Q 2389 3763 2510 3526 
Q 2632 3290 2632 2976 
Q 2632 2803 2571 2604 
Q 2510 2406 2404 2214 
Q 2299 2022 2165 1856 
Q 2082 1754 1918 1584 
Q 1755 1414 1566 1222 
Q 1378 1030 1208 860 
Q 1038 691 929 579 
Q 821 467 821 454 
Q 821 422 910 410 
Q 1019 403 1156 396 
Q 1294 390 1474 390 
Q 1659 390 1844 396 
Q 2030 403 2203 410 
Q 2389 422 2491 441 
Q 2594 461 2664 521 
Q 2734 582 2811 710 
Q 2837 749 2878 803 
Q 2920 858 2971 858 
Q 3003 858 3009 832 
Q 3016 806 3016 781 
Q 3016 749 2981 656 
Q 2946 563 2901 428 
Q 2856 294 2824 134 
Q 2805 32 2760 6 
Q 2715 -19 2683 -19 
z
" transform="scale(0.015625)"/>
       </defs>
       <use xlink:href="#EBGaramond-Regular-2212"/>
       <use xlink:href="#EBGaramond-Regular-32" transform="translate(59.999985 0)"/>
      </g>
     </g>
    </g>
    <g id="ytick_3">
     <g id="line2d_5">
      <path d="M 45.36 232.061538 
L 87.94481 232.061538 
" clip-path="url(#pfe0c645ade)" style="fill: none; stroke: #b0b0b0; stroke-width: 0.8; stroke-linecap: square"/>
     </g>
     <g id="line2d_6">
      <g>
       <use xlink:href="#m948a06515f" x="45.36" y="232.061538" style="stroke: #000000; stroke-width: 0.8"/>
      </g>
     </g>
     <g id="text_4">
      <!-- −1 -->
      <g transform="translate(23.24 236.996538) scale(0.14 -0.14)">
       <defs>
        <path id="EBGaramond-Regular-31" d="M 685 -19 
Q 640 -19 614 6 
Q 589 32 589 58 
Q 589 115 685 141 
Q 928 205 1085 259 
Q 1242 314 1315 413 
Q 1389 512 1389 698 
L 1389 3142 
Q 1389 3264 1312 3328 
Q 1235 3392 1113 3417 
Q 992 3443 851 3450 
Q 787 3456 736 3481 
Q 685 3507 685 3558 
Q 685 3603 733 3635 
Q 781 3667 845 3674 
Q 1133 3718 1360 3785 
Q 1587 3853 1805 4070 
Q 1811 4077 1820 4077 
Q 1830 4077 1837 4077 
Q 1869 4077 1894 4061 
Q 1920 4045 1914 4019 
Q 1901 3923 1894 3811 
Q 1888 3699 1888 3565 
L 1888 621 
Q 1888 461 1949 377 
Q 2010 294 2157 246 
Q 2304 198 2566 134 
Q 2605 128 2640 105 
Q 2675 83 2675 51 
Q 2675 -19 2586 -19 
Q 2406 -19 2256 -9 
Q 2106 0 1962 6 
Q 1818 13 1645 13 
Q 1472 13 1318 6 
Q 1165 0 1011 -9 
Q 858 -19 685 -19 
z
" transform="scale(0.015625)"/>
       </defs>
       <use xlink:href="#EBGaramond-Regular-2212"/>
       <use xlink:href="#EBGaramond-Regular-31" transform="translate(59.999985 0)"/>
      </g>
     </g>
    </g>
    <g id="ytick_4">
     <g id="line2d_7">
      <path d="M 45.36 193.292308 
L 87.94481 193.292308 
" clip-path="url(#pfe0c645ade)" style="fill: none; stroke: #b0b0b0; stroke-width: 0.8; stroke-linecap: square"/>
     </g>
     <g id="line2d_8">
      <g>
       <use xlink:href="#m948a06515f" x="45.36" y="193.292308" style="stroke: #000000; stroke-width: 0.8"/>
      </g>
     </g>
     <g id="text_5">
      <!-- 0 -->
      <g transform="translate(31.64 198.227308) scale(0.14 -0.14)">
       <defs>
        <path id="EBGaramond-Regular-30" d="M 1571 -90 
Q 1245 -90 1005 89 
Q 765 269 605 566 
Q 445 864 368 1222 
Q 291 1581 291 1933 
Q 291 2298 368 2669 
Q 445 3040 608 3347 
Q 771 3654 1027 3843 
Q 1283 4032 1635 4032 
Q 1962 4032 2202 3853 
Q 2442 3674 2602 3376 
Q 2762 3078 2838 2723 
Q 2915 2368 2915 2022 
Q 2915 1664 2838 1293 
Q 2762 922 2598 608 
Q 2435 294 2182 102 
Q 1930 -90 1571 -90 
z
M 1680 77 
Q 1936 77 2093 336 
Q 2250 595 2320 1011 
Q 2390 1427 2390 1907 
Q 2390 2266 2336 2611 
Q 2282 2957 2170 3238 
Q 2058 3520 1894 3686 
Q 1731 3853 1514 3853 
Q 1258 3853 1107 3603 
Q 957 3354 889 2941 
Q 822 2528 822 2048 
Q 822 1690 876 1338 
Q 931 986 1036 701 
Q 1142 416 1302 246 
Q 1462 77 1680 77 
z
" transform="scale(0.015625)"/>
       </defs>
       <use xlink:href="#EBGaramond-Regular-30"/>
      </g>
     </g>
    </g>
    <g id="ytick_5">
     <g id="line2d_9">
      <path d="M 45.36 154.523077 
L 87.94481 154.523077 
" clip-path="url(#pfe0c645ade)" style="fill: none; stroke: #b0b0b0; stroke-width: 0.8; stroke-linecap: square"/>
     </g>
     <g id="line2d_10">
      <g>
       <use xlink:href="#m948a06515f" x="45.36" y="154.523077" style="stroke: #000000; stroke-width: 0.8"/>
      </g>
     </g>
     <g id="text_6">
      <!-- 1 -->
      <g transform="translate(31.64 159.458077) scale(0.14 -0.14)">
       <use xlink:href="#EBGaramond-Regular-31"/>
      </g>
     </g>
    </g>
    <g id="ytick_6">
     <g id="line2d_11">
      <path d="M 45.36 115.753846 
L 87.94481 115.753846 
" clip-path="url(#pfe0c645ade)" style="fill: none; stroke: #b0b0b0; stroke-width: 0.8; stroke-linecap: square"/>
     </g>
     <g id="line2d_12">
      <g>
       <use xlink:href="#m948a06515f" x="45.36" y="115.753846" style="stroke: #000000; stroke-width: 0.8"/>
      </g>
     </g>
     <g id="text_7">
      <!-- 2 -->
      <g transform="translate(31.64 120.688846) scale(0.14 -0.14)">
       <use xlink:href="#EBGaramond-Regular-32"/>
      </g>
     </g>
    </g>
    <g id="ytick_7">
     <g id="line2d_13">
      <path d="M 45.36 76.984615 
L 87.94481 76.984615 
" clip-path="url(#pfe0c645ade)" style="fill: none; stroke: #b0b0b0; stroke-width: 0.8; stroke-linecap: square"/>
     </g>
     <g id="line2d_14">
      <g>
       <use xlink:href="#m948a06515f" x="45.36" y="76.984615" style="stroke: #000000; stroke-width: 0.8"/>
      </g>
     </g>
     <g id="text_8">
      <!-- 3 -->
      <g transform="translate(31.64 81.919615) scale(0.14 -0.14)">
       <use xlink:href="#EBGaramond-Regular-33"/>
      </g>
     </g>
    </g>
    <g id="text_9">
     <!-- $x$ -->
     <g transform="translate(15.25 197.352308) rotate(-90) scale(0.14 -0.14)">
      <use xlink:href="#Cmmi10-78" transform="translate(0 0.8125)"/>
     </g>
    </g>
   </g>
   <g id="line2d_15">
    <path d="M 45.36 309.486418 
L 45.466558 245.426322 
L 45.696575 244.063341 
L 46.036486 243.154687 
L 46.647 242.246034 
L 47.371003 241.564543 
L 48.406684 240.883053 
L 49.835309 240.201562 
L 51.733813 239.520072 
L 55.094042 238.611418 
L 59.431183 237.702764 
L 66.005679 236.566947 
L 79.715706 234.295312 
L 82.794727 233.613822 
L 84.908606 232.932332 
L 85.685556 232.478005 
L 85.916962 232.023678 
L 85.824241 231.796514 
L 85.226697 231.342187 
L 84.102264 230.887861 
L 81.53132 230.20637 
L 76.817852 229.297716 
L 55.750174 225.663101 
L 52.226019 224.754447 
L 49.654678 223.845793 
L 48.273695 223.164303 
L 47.276629 222.482812 
L 46.582399 221.801322 
L 45.999595 220.892668 
L 45.676767 219.984014 
L 45.459601 218.621034 
L 45.371003 216.349399 
L 45.36 204.536899 
L 45.460705 127.528486 
L 45.68175 125.938341 
L 46.025457 124.802524 
L 46.623124 123.666707 
L 47.342752 122.758053 
L 48.306008 121.849399 
L 49.833453 120.713582 
L 54.486 117.533293 
L 55.101146 116.851803 
L 55.441389 116.170312 
L 55.47606 115.488822 
L 55.201995 114.807332 
L 54.64401 114.125841 
L 53.545862 113.217187 
L 51.114203 111.627043 
L 48.778577 110.036899 
L 47.486111 108.901082 
L 46.573531 107.765264 
L 45.995682 106.629447 
L 45.6656 105.49363 
L 45.454887 103.903486 
L 45.368639 101.177524 
L 45.36 85.503245 
L 45.36 77.098197 
L 45.36 77.098197 
" clip-path="url(#pfe0c645ade)" style="fill: none; stroke: #000000; stroke-width: 1.5; stroke-linecap: square"/>
   </g>
   <g id="patch_3">
    <path d="M 45.36 309.6 
L 45.36 76.984615 
" style="fill: none; stroke: #000000; stroke-width: 0.8; stroke-linejoin: miter; stroke-linecap: square"/>
   </g>
   <g id="patch_4">
    <path d="M 87.94481 309.6 
L 87.94481 76.984615 
" style="fill: none; stroke: #000000; stroke-width: 0.8; stroke-linejoin: miter; stroke-linecap: square"/>
   </g>
   <g id="patch_5">
    <path d="M 45.36 309.6 
L 87.94481 309.6 
" style="fill: none; stroke: #000000; stroke-width: 0.8; stroke-linejoin: miter; stroke-linecap: square"/>
   </g>
   <g id="patch_6">
    <path d="M 45.36 76.984615 
L 87.94481 76.984615 
" style="fill: none; stroke: #000000; stroke-width: 0.8; stroke-linejoin: miter; stroke-linecap: square"/>
   </g>
  </g>
  <g id="axes_2">
   <g id="patch_7">
    <path d="M 99.300759 309.6 
L 439.979241 309.6 
L 439.979241 76.984615 
L 99.300759 76.984615 
z
" style="fill: #ffffff"/>
   </g>
   <g id="matplotlib.axis_3">
    <g id="xtick_1">
     <g id="line2d_16">
      <defs>
       <path id="ma2f1d2c3bb" d="M 0 0 
L 0 3.5 
" style="stroke: #000000; stroke-width: 0.8"/>
      </defs>
      <g>
       <use xlink:href="#ma2f1d2c3bb" x="99.300759" y="309.6" style="stroke: #000000; stroke-width: 0.8"/>
      </g>
     </g>
     <g id="text_10">
      <!-- 0.0 -->
      <g transform="translate(90.970759 326.47) scale(0.14 -0.14)">
       <defs>
        <path id="EBGaramond-Regular-2e" d="M 736 -90 
Q 595 -90 489 16 
Q 384 122 384 262 
Q 384 410 489 512 
Q 595 614 736 614 
Q 883 614 985 512 
Q 1088 410 1088 262 
Q 1088 122 985 16 
Q 883 -90 736 -90 
z
" transform="scale(0.015625)"/>
       </defs>
       <use xlink:href="#EBGaramond-Regular-30"/>
       <use xlink:href="#EBGaramond-Regular-2e" transform="translate(47.999985 0)"/>
       <use xlink:href="#EBGaramond-Regular-30" transform="translate(70.999969 0)"/>
      </g>
     </g>
    </g>
    <g id="xtick_2">
     <g id="line2d_17">
      <g>
       <use xlink:href="#ma2f1d2c3bb" x="167.436456" y="309.6" style="stroke: #000000; stroke-width: 0.8"/>
      </g>
     </g>
     <g id="text_11">
      <!-- 0.2 -->
      <g transform="translate(159.106456 326.47) scale(0.14 -0.14)">
       <use xlink:href="#EBGaramond-Regular-30"/>
       <use xlink:href="#EBGaramond-Regular-2e" transform="translate(47.999985 0)"/>
       <use xlink:href="#EBGaramond-Regular-32" transform="translate(70.999969 0)"/>
      </g>
     </g>
    </g>
    <g id="xtick_3">
     <g id="line2d_18">
      <g>
       <use xlink:href="#ma2f1d2c3bb" x="235.572152" y="309.6" style="stroke: #000000; stroke-width: 0.8"/>
      </g>
     </g>
     <g id="text_12">
      <!-- 0.4 -->
      <g transform="translate(227.242152 326.47) scale(0.14 -0.14)">
       <defs>
        <path id="EBGaramond-Regular-34" d="M 1344 -19 
Q 1312 -19 1270 0 
Q 1229 19 1229 64 
Q 1229 96 1267 115 
Q 1306 134 1344 141 
Q 1645 179 1741 268 
Q 1837 358 1837 512 
L 1837 1107 
Q 1837 1139 1792 1152 
Q 1747 1165 1741 1165 
Q 1478 1165 1251 1155 
Q 1024 1146 774 1136 
Q 525 1126 186 1120 
Q 160 1120 141 1142 
Q 122 1165 122 1184 
Q 122 1197 128 1203 
Q 211 1306 249 1347 
Q 288 1389 313 1417 
Q 339 1446 378 1504 
L 2067 3930 
Q 2106 3987 2160 4048 
Q 2214 4109 2259 4109 
L 2394 4109 
Q 2426 4109 2403 4064 
Q 2381 4019 2381 4019 
L 653 1536 
Q 646 1523 640 1500 
Q 634 1478 653 1478 
L 1760 1478 
Q 1786 1478 1811 1494 
Q 1837 1510 1837 1530 
L 1837 2522 
Q 1837 2592 1846 2617 
Q 1856 2643 1894 2662 
Q 1990 2714 2099 2730 
Q 2208 2746 2253 2746 
Q 2323 2746 2336 2643 
Q 2349 2541 2349 2336 
L 2349 1510 
Q 2349 1472 2381 1472 
Q 2451 1466 2515 1466 
Q 2579 1466 2637 1466 
Q 2726 1466 2819 1469 
Q 2912 1472 3014 1478 
Q 3085 1478 3085 1427 
Q 3085 1376 3056 1318 
Q 3027 1261 2995 1222 
Q 2963 1184 2950 1184 
Q 2880 1184 2797 1187 
Q 2714 1190 2637 1190 
Q 2579 1190 2528 1187 
Q 2477 1184 2438 1178 
Q 2413 1171 2384 1158 
Q 2355 1146 2355 1139 
L 2355 538 
Q 2355 352 2441 281 
Q 2528 211 2784 141 
Q 2822 134 2860 108 
Q 2899 83 2899 51 
Q 2899 26 2870 3 
Q 2842 -19 2803 -19 
Q 2624 -19 2518 -9 
Q 2413 0 2323 6 
Q 2234 13 2080 13 
Q 1920 13 1821 6 
Q 1722 0 1619 -9 
Q 1517 -19 1344 -19 
z
" transform="scale(0.015625)"/>
       </defs>
       <use xlink:href="#EBGaramond-Regular-30"/>
       <use xlink:href="#EBGaramond-Regular-2e" transform="translate(47.999985 0)"/>
       <use xlink:href="#EBGaramond-Regular-34" transform="translate(70.999969 0)"/>
      </g>
     </g>
    </g>
    <g id="xtick_4">
     <g id="line2d_19">
      <g>
       <use xlink:href="#ma2f1d2c3bb" x="303.707848" y="309.6" style="stroke: #000000; stroke-width: 0.8"/>
      </g>
     </g>
     <g id="text_13">
      <!-- 0.6 -->
      <g transform="translate(295.377848 326.47) scale(0.14 -0.14)">
       <defs>
        <path id="EBGaramond-Regular-36" d="M 1614 -102 
Q 1288 -102 987 45 
Q 686 192 494 489 
Q 302 787 302 1235 
Q 302 1594 385 1888 
Q 469 2182 597 2409 
Q 725 2637 856 2800 
Q 987 2963 1077 3053 
Q 1237 3219 1486 3424 
Q 1736 3629 2065 3814 
Q 2395 4000 2786 4102 
Q 2843 4115 2878 4096 
Q 2914 4077 2901 4058 
Q 2875 4000 2820 3971 
Q 2766 3942 2734 3930 
Q 2306 3744 1995 3507 
Q 1685 3270 1442 2918 
Q 1339 2765 1198 2499 
Q 1058 2234 955 1907 
Q 853 1581 853 1248 
Q 859 896 1000 649 
Q 1141 403 1349 275 
Q 1557 147 1768 141 
Q 2030 134 2228 323 
Q 2427 512 2427 909 
Q 2427 1107 2353 1276 
Q 2280 1446 2149 1555 
Q 2018 1664 1845 1664 
Q 1678 1664 1560 1645 
Q 1442 1626 1333 1568 
Q 1275 1542 1265 1571 
Q 1256 1600 1288 1638 
Q 1339 1690 1374 1722 
Q 1410 1754 1461 1792 
Q 1531 1843 1720 1923 
Q 1909 2003 2088 2003 
Q 2312 2003 2501 1900 
Q 2690 1798 2808 1622 
Q 2926 1446 2926 1216 
Q 2926 915 2811 672 
Q 2696 429 2504 256 
Q 2312 83 2078 -9 
Q 1845 -102 1614 -102 
z
" transform="scale(0.015625)"/>
       </defs>
       <use xlink:href="#EBGaramond-Regular-30"/>
       <use xlink:href="#EBGaramond-Regular-2e" transform="translate(47.999985 0)"/>
       <use xlink:href="#EBGaramond-Regular-36" transform="translate(70.999969 0)"/>
      </g>
     </g>
    </g>
    <g id="xtick_5">
     <g id="line2d_20">
      <g>
       <use xlink:href="#ma2f1d2c3bb" x="371.843544" y="309.6" style="stroke: #000000; stroke-width: 0.8"/>
      </g>
     </g>
     <g id="text_14">
      <!-- 0.8 -->
      <g transform="translate(363.513544 326.47) scale(0.14 -0.14)">
       <defs>
        <path id="EBGaramond-Regular-38" d="M 1549 -90 
Q 1254 -90 995 35 
Q 736 160 576 384 
Q 416 608 416 902 
Q 416 1184 563 1382 
Q 710 1581 912 1712 
Q 1114 1843 1274 1933 
Q 1318 1958 1305 1971 
Q 1293 1984 1254 2016 
Q 1062 2182 892 2332 
Q 723 2483 617 2672 
Q 512 2861 512 3130 
Q 512 3379 685 3584 
Q 858 3789 1126 3910 
Q 1395 4032 1677 4032 
Q 1933 4032 2166 3926 
Q 2400 3821 2547 3629 
Q 2694 3437 2694 3174 
Q 2694 2944 2579 2800 
Q 2464 2656 2355 2560 
Q 2266 2483 2195 2428 
Q 2125 2374 2016 2291 
Q 1933 2234 1933 2211 
Q 1933 2189 1984 2157 
Q 2227 1990 2412 1830 
Q 2598 1670 2704 1484 
Q 2810 1299 2810 1050 
Q 2810 717 2624 461 
Q 2438 205 2150 57 
Q 1862 -90 1549 -90 
z
M 1638 96 
Q 1920 96 2109 304 
Q 2298 512 2298 794 
Q 2298 992 2186 1171 
Q 2074 1350 1901 1507 
Q 1728 1664 1542 1792 
Q 1504 1824 1475 1840 
Q 1446 1856 1414 1856 
Q 1389 1856 1338 1818 
Q 1133 1651 1030 1481 
Q 928 1312 928 1005 
Q 928 781 1011 573 
Q 1094 365 1254 230 
Q 1414 96 1638 96 
z
M 1843 2291 
Q 2067 2477 2134 2701 
Q 2202 2925 2202 3219 
Q 2202 3488 2064 3683 
Q 1926 3878 1645 3878 
Q 1498 3878 1350 3795 
Q 1203 3712 1104 3571 
Q 1005 3430 1005 3258 
Q 1005 3014 1097 2873 
Q 1190 2733 1360 2614 
Q 1530 2496 1754 2310 
Q 1773 2298 1798 2288 
Q 1824 2278 1843 2291 
z
" transform="scale(0.015625)"/>
       </defs>
       <use xlink:href="#EBGaramond-Regular-30"/>
       <use xlink:href="#EBGaramond-Regular-2e" transform="translate(47.999985 0)"/>
       <use xlink:href="#EBGaramond-Regular-38" transform="translate(70.999969 0)"/>
      </g>
     </g>
    </g>
    <g id="xtick_6">
     <g id="line2d_21">
      <g>
       <use xlink:href="#ma2f1d2c3bb" x="439.979241" y="309.6" style="stroke: #000000; stroke-width: 0.8"/>
      </g>
     </g>
     <g id="text_15">
      <!-- 1.0 -->
      <g transform="translate(431.649241 326.47) scale(0.14 -0.14)">
       <use xlink:href="#EBGaramond-Regular-31"/>
       <use xlink:href="#EBGaramond-Regular-2e" transform="translate(47.999985 0)"/>
       <use xlink:href="#EBGaramond-Regular-30" transform="translate(70.999969 0)"/>
      </g>
     </g>
    </g>
    <g id="text_16">
     <!-- $t$ -->
     <g transform="translate(267.05 344.33) scale(0.14 -0.14)">
      <defs>
       <path id="Cmmi10-74" d="M 397 519 
Q 397 613 416 697 
L 878 2534 
L 206 2534 
Q 141 2534 141 2619 
Q 166 2759 225 2759 
L 934 2759 
L 1191 3803 
Q 1216 3888 1291 3947 
Q 1366 4006 1459 4006 
Q 1541 4006 1595 3957 
Q 1650 3909 1650 3828 
Q 1650 3809 1648 3798 
Q 1647 3788 1644 3775 
L 1388 2759 
L 2047 2759 
Q 2113 2759 2113 2675 
Q 2109 2659 2100 2621 
Q 2091 2584 2075 2559 
Q 2059 2534 2028 2534 
L 1331 2534 
L 872 684 
Q 825 503 825 372 
Q 825 97 1013 97 
Q 1294 97 1511 361 
Q 1728 625 1844 941 
Q 1869 978 1894 978 
L 1972 978 
Q 1997 978 2012 961 
Q 2028 944 2028 922 
Q 2028 909 2022 903 
Q 1881 516 1612 222 
Q 1344 -72 997 -72 
Q 744 -72 570 93 
Q 397 259 397 519 
z
" transform="scale(0.015625)"/>
      </defs>
      <use xlink:href="#Cmmi10-74" transform="translate(0 0.40625)"/>
     </g>
    </g>
   </g>
   <g id="matplotlib.axis_4">
    <g id="ytick_8">
     <g id="line2d_22">
      <g>
       <use xlink:href="#m948a06515f" x="99.300759" y="309.6" style="stroke: #000000; stroke-width: 0.8"/>
      </g>
     </g>
    </g>
    <g id="ytick_9">
     <g id="line2d_23">
      <g>
       <use xlink:href="#m948a06515f" x="99.300759" y="270.830769" style="stroke: #000000; stroke-width: 0.8"/>
      </g>
     </g>
    </g>
    <g id="ytick_10">
     <g id="line2d_24">
      <g>
       <use xlink:href="#m948a06515f" x="99.300759" y="232.061538" style="stroke: #000000; stroke-width: 0.8"/>
      </g>
     </g>
    </g>
    <g id="ytick_11">
     <g id="line2d_25">
      <g>
       <use xlink:href="#m948a06515f" x="99.300759" y="193.292308" style="stroke: #000000; stroke-width: 0.8"/>
      </g>
     </g>
    </g>
    <g id="ytick_12">
     <g id="line2d_26">
      <g>
       <use xlink:href="#m948a06515f" x="99.300759" y="154.523077" style="stroke: #000000; stroke-width: 0.8"/>
      </g>
     </g>
    </g>
    <g id="ytick_13">
     <g id="line2d_27">
      <g>
       <use xlink:href="#m948a06515f" x="99.300759" y="115.753846" style="stroke: #000000; stroke-width: 0.8"/>
      </g>
     </g>
    </g>
    <g id="ytick_14">
     <g id="line2d_28">
      <g>
       <use xlink:href="#m948a06515f" x="99.300759" y="76.984615" style="stroke: #000000; stroke-width: 0.8"/>
      </g>
     </g>
    </g>
   </g>
   <g id="line2d_29">
    <path d="M 439.979241 265.508989 
L 424.176284 262.991357 
L 408.539674 260.724748 
L 392.57037 258.635149 
L 375.769331 256.663868 
L 357.138477 254.708327 
L 334.515297 252.568835 
L 300.081485 249.56305 
L 235.372536 244.158124 
L 193.453113 240.853686 
L 167.669341 239.029494 
L 150.369262 238.014582 
L 137.726897 237.484902 
L 127.912429 237.288844 
L 119.927777 237.343673 
L 112.941206 237.609604 
L 106.620024 238.067778 
L 100.465188 238.736449 
L 99.300759 238.888264 
L 99.300759 238.888264 
" clip-path="url(#pf71f67fee2)" style="fill: none; stroke: #d3d3d3; stroke-linecap: square"/>
   </g>
   <g id="line2d_30">
    <path d="M 439.979241 244.390576 
L 421.68108 242.589201 
L 404.048307 241.075951 
L 386.914575 239.829264 
L 369.780843 238.807607 
L 351.981723 237.972727 
L 332.18644 237.273114 
L 306.735362 236.611115 
L 258.661104 235.629712 
L 198.110827 234.581883 
L 165.839525 234.22688 
L 145.877896 234.214562 
L 132.071102 234.416824 
L 121.591246 234.784386 
L 112.941206 235.304811 
L 105.289248 235.98183 
L 99.300759 236.672408 
L 99.300759 236.672408 
" clip-path="url(#pf71f67fee2)" style="fill: none; stroke: #d3d3d3; stroke-linecap: square"/>
   </g>
   <g id="line2d_31">
    <path d="M 439.979241 232.44885 
L 419.352223 231.127162 
L 400.222328 230.121858 
L 382.256861 229.399448 
L 364.956782 228.925758 
L 347.656703 228.674503 
L 329.192195 228.632101 
L 307.068056 228.815526 
L 271.80251 229.364561 
L 199.108908 230.734592 
L 161.680852 231.636923 
L 140.2221 232.361842 
L 125.916266 233.056508 
L 115.103716 233.795038 
L 105.788289 234.651805 
L 99.300759 235.392507 
L 99.300759 235.392507 
" clip-path="url(#pf71f67fee2)" style="fill: none; stroke: #d3d3d3; stroke-linecap: square"/>
   </g>
   <g id="line2d_32">
    <path d="M 439.979241 223.393582 
L 416.690672 222.507402 
L 396.230002 221.946061 
L 377.599148 221.653185 
L 360.132722 221.598759 
L 343.165336 221.767026 
L 325.532563 222.168113 
L 305.570934 222.853029 
L 276.959264 224.082014 
L 203.932969 227.509986 
L 158.353914 229.829534 
L 134.898999 231.228091 
L 119.76143 232.34231 
L 108.117146 233.416642 
L 99.300759 234.401502 
L 99.300759 234.401502 
" clip-path="url(#pf71f67fee2)" style="fill: none; stroke: #d3d3d3; stroke-linecap: square"/>
   </g>
   <g id="line2d_33">
    <path d="M 439.979241 215.744816 
L 413.696428 215.319564 
L 391.572288 215.178726 
L 372.276046 215.273976 
L 354.643273 215.58202 
L 338.008582 216.093905 
L 321.207544 216.835583 
L 302.743036 217.880006 
L 277.957346 219.525334 
L 213.913784 224.087877 
L 153.696201 228.541638 
L 127.579735 230.676084 
L 111.277737 232.221434 
L 99.300759 233.544753 
L 99.300759 233.544753 
" clip-path="url(#pf71f67fee2)" style="fill: none; stroke: #d3d3d3; stroke-linecap: square"/>
   </g>
   <g id="line2d_34">
    <path d="M 439.979241 208.887233 
L 409.537755 208.990189 
L 385.916493 209.284336 
L 366.12121 209.74719 
L 348.654784 210.373728 
L 332.352787 211.180479 
L 316.383483 212.194392 
L 299.249751 213.509457 
L 277.291958 215.434821 
L 226.223455 220.216099 
L 139.72306 228.482876 
L 111.776778 231.356568 
L 99.300759 232.755363 
L 99.300759 232.755363 
" clip-path="url(#pf71f67fee2)" style="fill: none; stroke: #d3d3d3; stroke-linecap: square"/>
   </g>
   <g id="line2d_35">
    <path d="M 439.979241 202.488451 
L 403.216572 203.281004 
L 378.098188 204.037041 
L 358.136559 204.85394 
L 341.002826 205.772994 
L 325.366216 206.832294 
L 310.228647 208.080448 
L 294.092996 209.640023 
L 273.96502 211.825769 
L 229.883087 216.910394 
L 99.300759 231.993743 
L 99.300759 231.993743 
" clip-path="url(#pf71f67fee2)" style="fill: none; stroke: #d3d3d3; stroke-linecap: square"/>
   </g>
   <g id="line2d_36">
    <path d="M 439.979241 196.332297 
L 392.237676 198.191177 
L 366.786598 199.399168 
L 347.490356 200.529112 
L 331.188358 201.700363 
L 316.383483 202.985546 
L 302.077648 204.452821 
L 286.940079 206.235435 
L 267.976531 208.708699 
L 223.395558 214.831989 
L 143.881733 225.674482 
L 116.268145 229.23688 
L 99.300759 231.22911 
L 99.300759 231.22911 
" clip-path="url(#pf71f67fee2)" style="fill: none; stroke: #d3d3d3; stroke-linecap: square"/>
   </g>
   <g id="line2d_37">
    <path d="M 439.979241 190.252319 
L 370.113536 194.16766 
L 347.82305 195.662868 
L 330.689318 197.028689 
L 316.050789 198.415202 
L 302.576689 199.915388 
L 289.268936 201.624272 
L 274.630407 203.735139 
L 254.00339 206.958496 
L 145.877896 224.115402 
L 124.08645 227.315778 
L 109.447921 229.250564 
L 99.300759 230.429786 
L 99.300759 230.429786 
" clip-path="url(#pf71f67fee2)" style="fill: none; stroke: #d3d3d3; stroke-linecap: square"/>
   </g>
   <g id="line2d_38">
    <path d="M 439.979241 184.096164 
L 384.253024 188.026262 
L 350.151907 190.536858 
L 330.689318 192.187929 
L 315.551748 193.691009 
L 302.576689 195.200044 
L 290.599711 196.8146 
L 278.456386 198.678742 
L 264.649593 201.032091 
L 243.357188 204.919484 
L 166.837607 218.995658 
L 140.388447 223.634775 
L 124.08645 226.281913 
L 112.109472 228.011337 
L 101.795963 229.280405 
L 99.300759 229.552712 
L 99.300759 229.552712 
" clip-path="url(#pf71f67fee2)" style="fill: none; stroke: #d3d3d3; stroke-linecap: square"/>
   </g>
   <g id="line2d_39">
    <path d="M 439.979241 177.697382 
L 405.212735 180.76015 
L 319.710421 188.147809 
L 305.570934 189.705972 
L 293.760303 191.226923 
L 283.1141 192.818697 
L 272.634244 194.61125 
L 261.156307 196.808846 
L 245.852391 199.987026 
L 154.694282 219.269885 
L 136.229775 222.883915 
L 123.254715 225.206354 
L 113.107553 226.802053 
L 104.291167 227.966521 
L 99.300759 228.520873 
L 99.300759 228.520873 
" clip-path="url(#pf71f67fee2)" style="fill: none; stroke: #d3d3d3; stroke-linecap: square"/>
   </g>
   <g id="line2d_40">
    <path d="M 439.979241 170.839799 
L 412.032959 173.84275 
L 383.92033 176.638096 
L 351.149988 179.660029 
L 311.226729 183.356615 
L 296.5882 184.94882 
L 285.442957 186.37824 
L 275.961183 187.81438 
L 267.311143 189.346017 
L 258.661104 191.104587 
L 249.012983 193.301359 
L 235.538883 196.621705 
L 165.007791 214.278068 
L 145.711549 218.833274 
L 132.237449 221.79824 
L 121.92394 223.847933 
L 113.440247 225.312672 
L 105.954636 226.385328 
L 99.300759 227.14123 
L 99.300759 227.14123 
" clip-path="url(#pf71f67fee2)" style="fill: none; stroke: #d3d3d3; stroke-linecap: square"/>
   </g>
   <g id="line2d_41">
    <path d="M 439.979241 163.191033 
L 416.191632 166.264838 
L 393.734798 168.944409 
L 372.276046 171.28313 
L 351.149988 173.363066 
L 329.358542 175.281966 
L 303.574771 177.314225 
L 273.96502 179.66957 
L 263.318817 180.745913 
L 255.334165 181.770436 
L 248.846636 182.819906 
L 243.024494 183.982063 
L 237.368699 185.337985 
L 231.213863 187.053186 
L 223.395558 189.483922 
L 206.095479 195.173719 
L 176.319381 204.88558 
L 157.023139 210.959361 
L 143.216345 215.085589 
L 132.736489 217.99772 
L 124.252797 220.132725 
L 117.099879 221.71017 
L 110.778697 222.883213 
L 104.790208 223.76784 
L 99.300759 224.369395 
L 99.300759 224.369395 
" clip-path="url(#pf71f67fee2)" style="fill: none; stroke: #d3d3d3; stroke-linecap: square"/>
   </g>
   <g id="line2d_42">
    <path d="M 439.979241 154.135766 
L 419.185876 157.360422 
L 400.222328 160.080663 
L 382.589555 162.387543 
L 366.287557 164.297982 
L 351.316335 165.83338 
L 337.509541 167.031119 
L 324.867176 167.908412 
L 313.555585 168.475691 
L 303.408424 168.764828 
L 294.592037 168.800155 
L 286.773732 168.615079 
L 279.787162 168.229828 
L 273.465979 167.65823 
L 267.643837 166.907563 
L 262.154389 165.978536 
L 256.498594 164.789901 
L 250.510105 163.29847 
L 243.190841 161.233556 
L 231.712903 157.729997 
L 152.864466 133.303602 
L 133.401877 127.552561 
L 120.094124 123.841588 
L 109.614268 121.142731 
L 100.132494 118.930353 
L 99.300759 118.747504 
L 99.300759 118.747504 
" clip-path="url(#pf71f67fee2)" style="fill: none; stroke: #d3d3d3; stroke-linecap: square"/>
   </g>
   <g id="line2d_43">
    <path d="M 439.979241 142.194039 
L 421.847427 145.627005 
L 405.545429 148.492672 
L 390.740554 150.875419 
L 377.100107 152.848968 
L 364.624088 154.432271 
L 353.146151 155.666353 
L 342.666295 156.571466 
L 333.184521 157.173459 
L 324.368135 157.513776 
L 316.217136 157.606831 
L 308.731525 157.474746 
L 301.578608 157.128408 
L 294.758384 156.579979 
L 287.938161 155.811527 
L 280.785243 154.779324 
L 272.800591 153.39376 
L 262.819777 151.419334 
L 246.517779 147.93078 
L 162.179893 129.442391 
L 108.117146 117.440145 
L 99.300759 115.435901 
L 99.300759 115.435901 
" clip-path="url(#pf71f67fee2)" style="fill: none; stroke: #d3d3d3; stroke-linecap: square"/>
   </g>
   <g id="line2d_44">
    <path d="M 439.979241 121.075626 
L 424.675324 124.902623 
L 411.034877 128.088364 
L 398.725206 130.738323 
L 387.579962 132.915716 
L 377.266454 134.70848 
L 367.618333 136.16065 
L 358.635599 137.28869 
L 350.151907 138.130599 
L 342.167255 138.704107 
L 334.34895 139.044311 
L 326.696992 139.156371 
L 318.878687 139.04584 
L 310.727688 138.703506 
L 301.744955 138.096105 
L 291.098752 137.144037 
L 275.961183 135.545257 
L 241.527371 131.618647 
L 185.967502 125.095016 
L 156.524098 121.432286 
L 138.225938 118.9453 
L 125.417225 116.990745 
L 115.43641 115.251758 
L 106.786371 113.523284 
L 99.300759 111.828964 
L 99.300759 111.828964 
" clip-path="url(#pf71f67fee2)" style="fill: none; stroke: #d3d3d3; stroke-linecap: square"/>
   </g>
   <g id="LineCollection_1">
    <path d="M 99.300759 230.330874 
L 439.979241 141.963151 
" clip-path="url(#pf71f67fee2)" style="fill: none; stroke: #ff4500; stroke-opacity: 0.5"/>
    <path d="M 99.300759 236.387535 
L 439.979241 137.927019 
" clip-path="url(#pf71f67fee2)" style="fill: none; stroke: #ff4500; stroke-opacity: 0.5"/>
    <path d="M 99.300759 231.730574 
L 439.979241 141.030397 
" clip-path="url(#pf71f67fee2)" style="fill: none; stroke: #ff4500; stroke-opacity: 0.5"/>
    <path d="M 99.300759 229.173874 
L 439.979241 142.734171 
" clip-path="url(#pf71f67fee2)" style="fill: none; stroke: #ff4500; stroke-opacity: 0.5"/>
    <path d="M 99.300759 120.903695 
L 439.979241 214.884924 
" clip-path="url(#pf71f67fee2)" style="fill: none; stroke: #ff4500; stroke-opacity: 0.5"/>
    <path d="M 99.300759 114.391403 
L 439.979241 219.224686 
" clip-path="url(#pf71f67fee2)" style="fill: none; stroke: #ff4500; stroke-opacity: 0.5"/>
    <path d="M 99.300759 230.050484 
L 439.979241 142.150002 
" clip-path="url(#pf71f67fee2)" style="fill: none; stroke: #ff4500; stroke-opacity: 0.5"/>
    <path d="M 99.300759 113.227338 
L 439.979241 220.000413 
" clip-path="url(#pf71f67fee2)" style="fill: none; stroke: #ff4500; stroke-opacity: 0.5"/>
    <path d="M 99.300759 236.293919 
L 439.979241 137.989405 
" clip-path="url(#pf71f67fee2)" style="fill: none; stroke: #ff4500; stroke-opacity: 0.5"/>
    <path d="M 99.300759 118.479563 
L 439.979241 216.500355 
" clip-path="url(#pf71f67fee2)" style="fill: none; stroke: #ff4500; stroke-opacity: 0.5"/>
    <path d="M 99.300759 117.608152 
L 439.979241 217.081059 
" clip-path="url(#pf71f67fee2)" style="fill: none; stroke: #ff4500; stroke-opacity: 0.5"/>
    <path d="M 99.300759 236.238539 
L 439.979241 138.02631 
" clip-path="url(#pf71f67fee2)" style="fill: none; stroke: #ff4500; stroke-opacity: 0.5"/>
    <path d="M 99.300759 109.191399 
L 439.979241 222.689945 
" clip-path="url(#pf71f67fee2)" style="fill: none; stroke: #ff4500; stroke-opacity: 0.5"/>
    <path d="M 99.300759 233.631697 
L 439.979241 139.763498 
" clip-path="url(#pf71f67fee2)" style="fill: none; stroke: #ff4500; stroke-opacity: 0.5"/>
    <path d="M 99.300759 114.647303 
L 439.979241 219.054155 
" clip-path="url(#pf71f67fee2)" style="fill: none; stroke: #ff4500; stroke-opacity: 0.5"/>
    <path d="M 99.300759 232.713591 
L 439.979241 140.375319 
" clip-path="url(#pf71f67fee2)" style="fill: none; stroke: #ff4500; stroke-opacity: 0.5"/>
    <path d="M 99.300759 109.794454 
L 439.979241 222.288072 
" clip-path="url(#pf71f67fee2)" style="fill: none; stroke: #ff4500; stroke-opacity: 0.5"/>
    <path d="M 99.300759 226.605734 
L 439.979241 144.445567 
" clip-path="url(#pf71f67fee2)" style="fill: none; stroke: #ff4500; stroke-opacity: 0.5"/>
    <path d="M 99.300759 229.263319 
L 439.979241 142.674565 
" clip-path="url(#pf71f67fee2)" style="fill: none; stroke: #ff4500; stroke-opacity: 0.5"/>
    <path d="M 99.300759 240.237277 
L 439.979241 135.361569 
" clip-path="url(#pf71f67fee2)" style="fill: none; stroke: #ff4500; stroke-opacity: 0.5"/>
    <path d="M 99.300759 231.512078 
L 439.979241 141.176002 
" clip-path="url(#pf71f67fee2)" style="fill: none; stroke: #ff4500; stroke-opacity: 0.5"/>
    <path d="M 99.300759 229.068611 
L 439.979241 142.804317 
" clip-path="url(#pf71f67fee2)" style="fill: none; stroke: #ff4500; stroke-opacity: 0.5"/>
    <path d="M 99.300759 112.036203 
L 439.979241 220.794181 
" clip-path="url(#pf71f67fee2)" style="fill: none; stroke: #ff4500; stroke-opacity: 0.5"/>
    <path d="M 99.300759 234.103621 
L 439.979241 139.44901 
" clip-path="url(#pf71f67fee2)" style="fill: none; stroke: #ff4500; stroke-opacity: 0.5"/>
    <path d="M 99.300759 224.665179 
L 439.979241 145.738745 
" clip-path="url(#pf71f67fee2)" style="fill: none; stroke: #ff4500; stroke-opacity: 0.5"/>
    <path d="M 99.300759 236.821224 
L 439.979241 137.638011 
" clip-path="url(#pf71f67fee2)" style="fill: none; stroke: #ff4500; stroke-opacity: 0.5"/>
    <path d="M 99.300759 118.478888 
L 439.979241 216.500805 
" clip-path="url(#pf71f67fee2)" style="fill: none; stroke: #ff4500; stroke-opacity: 0.5"/>
    <path d="M 99.300759 112.302776 
L 439.979241 220.616537 
" clip-path="url(#pf71f67fee2)" style="fill: none; stroke: #ff4500; stroke-opacity: 0.5"/>
    <path d="M 99.300759 115.730111 
L 439.979241 218.332577 
" clip-path="url(#pf71f67fee2)" style="fill: none; stroke: #ff4500; stroke-opacity: 0.5"/>
    <path d="M 99.300759 223.967402 
L 439.979241 146.20374 
" clip-path="url(#pf71f67fee2)" style="fill: none; stroke: #ff4500; stroke-opacity: 0.5"/>
    <path d="M 99.300759 115.190614 
L 439.979241 218.692096 
" clip-path="url(#pf71f67fee2)" style="fill: none; stroke: #ff4500; stroke-opacity: 0.5"/>
    <path d="M 99.300759 234.162756 
L 439.979241 139.409602 
" clip-path="url(#pf71f67fee2)" style="fill: none; stroke: #ff4500; stroke-opacity: 0.5"/>
    <path d="M 99.300759 233.173889 
L 439.979241 140.068579 
" clip-path="url(#pf71f67fee2)" style="fill: none; stroke: #ff4500; stroke-opacity: 0.5"/>
    <path d="M 99.300759 120.140798 
L 439.979241 215.393315 
" clip-path="url(#pf71f67fee2)" style="fill: none; stroke: #ff4500; stroke-opacity: 0.5"/>
    <path d="M 99.300759 236.655849 
L 439.979241 137.748216 
" clip-path="url(#pf71f67fee2)" style="fill: none; stroke: #ff4500; stroke-opacity: 0.5"/>
    <path d="M 99.300759 229.274696 
L 439.979241 142.666983 
" clip-path="url(#pf71f67fee2)" style="fill: none; stroke: #ff4500; stroke-opacity: 0.5"/>
    <path d="M 99.300759 229.465195 
L 439.979241 142.540035 
" clip-path="url(#pf71f67fee2)" style="fill: none; stroke: #ff4500; stroke-opacity: 0.5"/>
    <path d="M 99.300759 110.912073 
L 439.979241 221.543296 
" clip-path="url(#pf71f67fee2)" style="fill: none; stroke: #ff4500; stroke-opacity: 0.5"/>
    <path d="M 99.300759 118.838945 
L 439.979241 216.260864 
" clip-path="url(#pf71f67fee2)" style="fill: none; stroke: #ff4500; stroke-opacity: 0.5"/>
    <path d="M 99.300759 225.179297 
L 439.979241 145.396139 
" clip-path="url(#pf71f67fee2)" style="fill: none; stroke: #ff4500; stroke-opacity: 0.5"/>
    <path d="M 99.300759 232.825058 
L 439.979241 140.301038 
" clip-path="url(#pf71f67fee2)" style="fill: none; stroke: #ff4500; stroke-opacity: 0.5"/>
    <path d="M 99.300759 225.622992 
L 439.979241 145.100462 
" clip-path="url(#pf71f67fee2)" style="fill: none; stroke: #ff4500; stroke-opacity: 0.5"/>
    <path d="M 99.300759 233.387508 
L 439.979241 139.926224 
" clip-path="url(#pf71f67fee2)" style="fill: none; stroke: #ff4500; stroke-opacity: 0.5"/>
    <path d="M 99.300759 234.558446 
L 439.979241 139.145916 
" clip-path="url(#pf71f67fee2)" style="fill: none; stroke: #ff4500; stroke-opacity: 0.5"/>
    <path d="M 99.300759 230.747088 
L 439.979241 141.685788 
" clip-path="url(#pf71f67fee2)" style="fill: none; stroke: #ff4500; stroke-opacity: 0.5"/>
    <path d="M 99.300759 111.929856 
L 439.979241 220.86505 
" clip-path="url(#pf71f67fee2)" style="fill: none; stroke: #ff4500; stroke-opacity: 0.5"/>
    <path d="M 99.300759 231.090504 
L 439.979241 141.456937 
" clip-path="url(#pf71f67fee2)" style="fill: none; stroke: #ff4500; stroke-opacity: 0.5"/>
    <path d="M 99.300759 233.97837 
L 439.979241 139.532476 
" clip-path="url(#pf71f67fee2)" style="fill: none; stroke: #ff4500; stroke-opacity: 0.5"/>
    <path d="M 99.300759 236.901642 
L 439.979241 137.584421 
" clip-path="url(#pf71f67fee2)" style="fill: none; stroke: #ff4500; stroke-opacity: 0.5"/>
    <path d="M 99.300759 121.341432 
L 439.979241 214.593218 
" clip-path="url(#pf71f67fee2)" style="fill: none; stroke: #ff4500; stroke-opacity: 0.5"/>
   </g>
   <g id="line2d_45">
    <path d="M 303.741117 177.30161 
" clip-path="url(#pf71f67fee2)" style="fill: none; stroke: #1f77b4; stroke-width: 1.5; stroke-linecap: square"/>
    <defs>
     <path id="m9ae23871cc" d="M 0 1.5 
C 0.397805 1.5 0.77937 1.341951 1.06066 1.06066 
C 1.341951 0.77937 1.5 0.397805 1.5 0 
C 1.5 -0.397805 1.341951 -0.77937 1.06066 -1.06066 
C 0.77937 -1.341951 0.397805 -1.5 0 -1.5 
C -0.397805 -1.5 -0.77937 -1.341951 -1.06066 -1.06066 
C -1.341951 -0.77937 -1.5 -0.397805 -1.5 0 
C -1.5 0.397805 -1.341951 0.77937 -1.06066 1.06066 
C -0.77937 1.341951 -0.397805 1.5 0 1.5 
z
" style="stroke: #000000"/>
    </defs>
    <g clip-path="url(#pf71f67fee2)">
     <use xlink:href="#m9ae23871cc" x="303.741117" y="177.30161" style="stroke: #000000"/>
    </g>
   </g>
   <g id="line2d_46">
    <path d="M 439.979241 163.191033 
L 416.191632 166.264838 
L 393.734798 168.944409 
L 372.276046 171.28313 
L 351.149988 173.363066 
L 329.358542 175.281966 
L 303.574771 177.314225 
L 273.96502 179.66957 
L 263.318817 180.745913 
L 255.334165 181.770436 
L 248.846636 182.819906 
L 243.024494 183.982063 
L 237.368699 185.337985 
L 231.213863 187.053186 
L 223.395558 189.483922 
L 206.095479 195.173719 
L 176.319381 204.88558 
L 157.023139 210.959361 
L 143.216345 215.085589 
L 132.736489 217.99772 
L 124.252797 220.132725 
L 117.099879 221.71017 
L 110.778697 222.883213 
L 104.790208 223.76784 
L 99.300759 224.369395 
L 99.300759 224.369395 
" clip-path="url(#pf71f67fee2)" style="fill: none; stroke: #000000; stroke-width: 1.5; stroke-linecap: square"/>
   </g>
   <g id="patch_8">
    <path d="M 99.300759 309.6 
L 99.300759 76.984615 
" style="fill: none; stroke: #000000; stroke-width: 0.8; stroke-linejoin: miter; stroke-linecap: square"/>
   </g>
   <g id="patch_9">
    <path d="M 439.979241 309.6 
L 439.979241 76.984615 
" style="fill: none; stroke: #000000; stroke-width: 0.8; stroke-linejoin: miter; stroke-linecap: square"/>
   </g>
   <g id="patch_10">
    <path d="M 99.300759 309.6 
L 439.979241 309.6 
" style="fill: none; stroke: #000000; stroke-width: 0.8; stroke-linejoin: miter; stroke-linecap: square"/>
   </g>
   <g id="patch_11">
    <path d="M 99.300759 76.984615 
L 439.979241 76.984615 
" style="fill: none; stroke: #000000; stroke-width: 0.8; stroke-linejoin: miter; stroke-linecap: square"/>
   </g>
   <g id="text_17">
    <!-- $(t, x_t)$ -->
    <g transform="translate(286.381117 163.31161) scale(0.14 -0.14)">
     <use xlink:href="#Cmr10-28"/>
     <use xlink:href="#Cmmi10-74" transform="translate(38.818359 0)"/>
     <use xlink:href="#Cmmi10-3b" transform="translate(74.902344 0)"/>
     <use xlink:href="#Cmmi10-78" transform="translate(120.146484 0)"/>
     <use xlink:href="#Cmmi10-74" transform="translate(177.226562 -17.00625) scale(0.7)"/>
     <use xlink:href="#Cmr10-29" transform="translate(208.862695 0)"/>
    </g>
   </g>
  </g>
  <g id="axes_3">
   <g id="patch_12">
    <path d="M 451.33519 309.6 
L 493.92 309.6 
L 493.92 76.984615 
L 451.33519 76.984615 
z
" style="fill: #ffffff"/>
   </g>
   <g id="matplotlib.axis_5">
    <g id="text_18">
     <!-- $p(x, 1)$ -->
     <g transform="translate(452.957595 344.47) scale(0.14 -0.14)">
      <defs>
       <path id="Cmr10-31" d="M 594 0 
L 594 225 
Q 1394 225 1394 428 
L 1394 3788 
Q 1063 3628 556 3628 
L 556 3853 
Q 1341 3853 1741 4263 
L 1831 4263 
Q 1853 4263 1873 4245 
Q 1894 4228 1894 4206 
L 1894 428 
Q 1894 225 2694 225 
L 2694 0 
L 594 0 
z
" transform="scale(0.015625)"/>
      </defs>
      <use xlink:href="#Cmmi10-70"/>
      <use xlink:href="#Cmr10-28" transform="translate(50.292969 0)"/>
      <use xlink:href="#Cmmi10-78" transform="translate(89.111328 0)"/>
      <use xlink:href="#Cmmi10-3b" transform="translate(146.191406 0)"/>
      <use xlink:href="#Cmr10-31" transform="translate(191.435547 0)"/>
      <use xlink:href="#Cmr10-29" transform="translate(241.435547 0)"/>
     </g>
    </g>
   </g>
   <g id="matplotlib.axis_6">
    <g id="ytick_15">
     <g id="line2d_47">
      <path d="M 451.33519 309.6 
L 493.92 309.6 
" clip-path="url(#p7e16293562)" style="fill: none; stroke: #b0b0b0; stroke-width: 0.8; stroke-linecap: square"/>
     </g>
     <g id="line2d_48">
      <g>
       <use xlink:href="#m948a06515f" x="451.33519" y="309.6" style="stroke: #000000; stroke-width: 0.8"/>
      </g>
     </g>
    </g>
    <g id="ytick_16">
     <g id="line2d_49">
      <path d="M 451.33519 270.830769 
L 493.92 270.830769 
" clip-path="url(#p7e16293562)" style="fill: none; stroke: #b0b0b0; stroke-width: 0.8; stroke-linecap: square"/>
     </g>
     <g id="line2d_50">
      <g>
       <use xlink:href="#m948a06515f" x="451.33519" y="270.830769" style="stroke: #000000; stroke-width: 0.8"/>
      </g>
     </g>
    </g>
    <g id="ytick_17">
     <g id="line2d_51">
      <path d="M 451.33519 232.061538 
L 493.92 232.061538 
" clip-path="url(#p7e16293562)" style="fill: none; stroke: #b0b0b0; stroke-width: 0.8; stroke-linecap: square"/>
     </g>
     <g id="line2d_52">
      <g>
       <use xlink:href="#m948a06515f" x="451.33519" y="232.061538" style="stroke: #000000; stroke-width: 0.8"/>
      </g>
     </g>
    </g>
    <g id="ytick_18">
     <g id="line2d_53">
      <path d="M 451.33519 193.292308 
L 493.92 193.292308 
" clip-path="url(#p7e16293562)" style="fill: none; stroke: #b0b0b0; stroke-width: 0.8; stroke-linecap: square"/>
     </g>
     <g id="line2d_54">
      <g>
       <use xlink:href="#m948a06515f" x="451.33519" y="193.292308" style="stroke: #000000; stroke-width: 0.8"/>
      </g>
     </g>
    </g>
    <g id="ytick_19">
     <g id="line2d_55">
      <path d="M 451.33519 154.523077 
L 493.92 154.523077 
" clip-path="url(#p7e16293562)" style="fill: none; stroke: #b0b0b0; stroke-width: 0.8; stroke-linecap: square"/>
     </g>
     <g id="line2d_56">
      <g>
       <use xlink:href="#m948a06515f" x="451.33519" y="154.523077" style="stroke: #000000; stroke-width: 0.8"/>
      </g>
     </g>
    </g>
    <g id="ytick_20">
     <g id="line2d_57">
      <path d="M 451.33519 115.753846 
L 493.92 115.753846 
" clip-path="url(#p7e16293562)" style="fill: none; stroke: #b0b0b0; stroke-width: 0.8; stroke-linecap: square"/>
     </g>
     <g id="line2d_58">
      <g>
       <use xlink:href="#m948a06515f" x="451.33519" y="115.753846" style="stroke: #000000; stroke-width: 0.8"/>
      </g>
     </g>
    </g>
    <g id="ytick_21">
     <g id="line2d_59">
      <path d="M 451.33519 76.984615 
L 493.92 76.984615 
" clip-path="url(#p7e16293562)" style="fill: none; stroke: #b0b0b0; stroke-width: 0.8; stroke-linecap: square"/>
     </g>
     <g id="line2d_60">
      <g>
       <use xlink:href="#m948a06515f" x="451.33519" y="76.984615" style="stroke: #000000; stroke-width: 0.8"/>
      </g>
     </g>
    </g>
   </g>
   <g id="line2d_61">
    <path d="M 451.789957 309.486418 
L 452.213986 300.627043 
L 452.764488 293.584976 
L 453.46052 287.451562 
L 454.296338 281.999639 
L 455.279275 277.002043 
L 456.440735 272.231611 
L 457.772238 267.688341 
L 459.340299 263.145072 
L 461.15456 258.601803 
L 463.215722 254.058534 
L 465.63423 249.288101 
L 468.417918 244.290505 
L 471.967558 238.384255 
L 484.36529 218.166707 
L 486.591714 213.850601 
L 488.226248 210.215986 
L 489.52135 206.808534 
L 490.497208 203.628245 
L 491.184848 200.67512 
L 491.649969 197.721995 
L 491.884562 194.76887 
L 491.884562 191.815745 
L 491.649969 188.86262 
L 491.184848 185.909495 
L 490.497208 182.95637 
L 489.52135 179.776082 
L 488.226248 176.36863 
L 486.591714 172.734014 
L 484.489128 168.645072 
L 481.763248 163.874639 
L 477.842434 157.514062 
L 469.081485 143.429928 
L 465.999646 137.978005 
L 463.545715 133.207572 
L 461.448113 128.664303 
L 459.596614 124.121034 
L 457.992044 119.577764 
L 456.625961 115.034495 
L 455.431215 110.264062 
L 454.417387 105.266466 
L 453.584392 100.041707 
L 452.876361 94.135457 
L 452.318836 87.547716 
L 451.895251 79.824159 
L 451.789957 77.098197 
L 451.789957 77.098197 
" clip-path="url(#p7e16293562)" style="fill: none; stroke: #000000; stroke-width: 1.5; stroke-linecap: square"/>
   </g>
   <g id="patch_13">
    <path d="M 451.33519 309.6 
L 451.33519 76.984615 
" style="fill: none; stroke: #000000; stroke-width: 0.8; stroke-linejoin: miter; stroke-linecap: square"/>
   </g>
   <g id="patch_14">
    <path d="M 493.92 309.6 
L 493.92 76.984615 
" style="fill: none; stroke: #000000; stroke-width: 0.8; stroke-linejoin: miter; stroke-linecap: square"/>
   </g>
   <g id="patch_15">
    <path d="M 451.33519 309.6 
L 493.92 309.6 
" style="fill: none; stroke: #000000; stroke-width: 0.8; stroke-linejoin: miter; stroke-linecap: square"/>
   </g>
   <g id="patch_16">
    <path d="M 451.33519 76.984615 
L 493.92 76.984615 
" style="fill: none; stroke: #000000; stroke-width: 0.8; stroke-linejoin: miter; stroke-linecap: square"/>
   </g>
  </g>
  <g id="axes_4">
   <g id="patch_17">
    <path d="M 99.300759 65.353846 
L 439.979241 65.353846 
L 439.979241 7.2 
L 99.300759 7.2 
z
" style="fill: #ffffff"/>
   </g>
   <g id="matplotlib.axis_7">
    <g id="xtick_7">
     <g id="line2d_62">
      <path d="M 99.300759 65.353846 
L 99.300759 7.2 
" clip-path="url(#p105ffae84e)" style="fill: none; stroke: #b0b0b0; stroke-width: 0.8; stroke-linecap: square"/>
     </g>
     <g id="line2d_63">
      <g>
       <use xlink:href="#ma2f1d2c3bb" x="99.300759" y="65.353846" style="stroke: #000000; stroke-width: 0.8"/>
      </g>
     </g>
    </g>
    <g id="xtick_8">
     <g id="line2d_64">
      <path d="M 167.436456 65.353846 
L 167.436456 7.2 
" clip-path="url(#p105ffae84e)" style="fill: none; stroke: #b0b0b0; stroke-width: 0.8; stroke-linecap: square"/>
     </g>
     <g id="line2d_65">
      <g>
       <use xlink:href="#ma2f1d2c3bb" x="167.436456" y="65.353846" style="stroke: #000000; stroke-width: 0.8"/>
      </g>
     </g>
    </g>
    <g id="xtick_9">
     <g id="line2d_66">
      <path d="M 235.572152 65.353846 
L 235.572152 7.2 
" clip-path="url(#p105ffae84e)" style="fill: none; stroke: #b0b0b0; stroke-width: 0.8; stroke-linecap: square"/>
     </g>
     <g id="line2d_67">
      <g>
       <use xlink:href="#ma2f1d2c3bb" x="235.572152" y="65.353846" style="stroke: #000000; stroke-width: 0.8"/>
      </g>
     </g>
    </g>
    <g id="xtick_10">
     <g id="line2d_68">
      <path d="M 303.707848 65.353846 
L 303.707848 7.2 
" clip-path="url(#p105ffae84e)" style="fill: none; stroke: #b0b0b0; stroke-width: 0.8; stroke-linecap: square"/>
     </g>
     <g id="line2d_69">
      <g>
       <use xlink:href="#ma2f1d2c3bb" x="303.707848" y="65.353846" style="stroke: #000000; stroke-width: 0.8"/>
      </g>
     </g>
    </g>
    <g id="xtick_11">
     <g id="line2d_70">
      <path d="M 371.843544 65.353846 
L 371.843544 7.2 
" clip-path="url(#p105ffae84e)" style="fill: none; stroke: #b0b0b0; stroke-width: 0.8; stroke-linecap: square"/>
     </g>
     <g id="line2d_71">
      <g>
       <use xlink:href="#ma2f1d2c3bb" x="371.843544" y="65.353846" style="stroke: #000000; stroke-width: 0.8"/>
      </g>
     </g>
    </g>
    <g id="xtick_12">
     <g id="line2d_72">
      <path d="M 439.979241 65.353846 
L 439.979241 7.2 
" clip-path="url(#p105ffae84e)" style="fill: none; stroke: #b0b0b0; stroke-width: 0.8; stroke-linecap: square"/>
     </g>
     <g id="line2d_73">
      <g>
       <use xlink:href="#ma2f1d2c3bb" x="439.979241" y="65.353846" style="stroke: #000000; stroke-width: 0.8"/>
      </g>
     </g>
    </g>
   </g>
   <g id="matplotlib.axis_8">
    <g id="ytick_22">
     <g id="line2d_74">
      <path d="M 99.300759 65.353846 
L 439.979241 65.353846 
" clip-path="url(#p105ffae84e)" style="fill: none; stroke: #b0b0b0; stroke-width: 0.8; stroke-linecap: square"/>
     </g>
     <g id="line2d_75">
      <g>
       <use xlink:href="#m948a06515f" x="99.300759" y="65.353846" style="stroke: #000000; stroke-width: 0.8"/>
      </g>
     </g>
     <g id="text_19">
      <!-- 0 -->
      <g transform="translate(85.580759 70.288846) scale(0.14 -0.14)">
       <use xlink:href="#EBGaramond-Regular-30"/>
      </g>
     </g>
    </g>
    <g id="ytick_23">
     <g id="line2d_76">
      <path d="M 99.300759 12.486713 
L 439.979241 12.486713 
" clip-path="url(#p105ffae84e)" style="fill: none; stroke: #b0b0b0; stroke-width: 0.8; stroke-linecap: square"/>
     </g>
     <g id="line2d_77">
      <g>
       <use xlink:href="#m948a06515f" x="99.300759" y="12.486713" style="stroke: #000000; stroke-width: 0.8"/>
      </g>
     </g>
     <g id="text_20">
      <!-- 1 -->
      <g transform="translate(85.580759 17.421713) scale(0.14 -0.14)">
       <use xlink:href="#EBGaramond-Regular-31"/>
      </g>
     </g>
    </g>
   </g>
   <g id="line2d_78">
    <path d="M 99.300759 12.486713 
L 439.979241 65.353846 
L 439.979241 65.353846 
" clip-path="url(#p105ffae84e)" style="fill: none; stroke: #000000; stroke-width: 1.5; stroke-linecap: square"/>
   </g>
   <g id="line2d_79">
    <path d="M 99.300759 65.353846 
L 439.979241 12.486713 
L 439.979241 12.486713 
" clip-path="url(#p105ffae84e)" style="fill: none; stroke-dasharray: 5.55,2.4; stroke-dashoffset: 0; stroke: #000000; stroke-width: 1.5"/>
   </g>
   <g id="patch_18">
    <path d="M 99.300759 65.353846 
L 99.300759 7.2 
" style="fill: none; stroke: #000000; stroke-width: 0.8; stroke-linejoin: miter; stroke-linecap: square"/>
   </g>
   <g id="patch_19">
    <path d="M 439.979241 65.353846 
L 439.979241 7.2 
" style="fill: none; stroke: #000000; stroke-width: 0.8; stroke-linejoin: miter; stroke-linecap: square"/>
   </g>
   <g id="patch_20">
    <path d="M 99.300759 65.353846 
L 439.979241 65.353846 
" style="fill: none; stroke: #000000; stroke-width: 0.8; stroke-linejoin: miter; stroke-linecap: square"/>
   </g>
   <g id="patch_21">
    <path d="M 99.300759 7.2 
L 439.979241 7.2 
" style="fill: none; stroke: #000000; stroke-width: 0.8; stroke-linejoin: miter; stroke-linecap: square"/>
   </g>
   <g id="text_21">
    <!-- $\alpha_t$ -->
    <g transform="translate(133.368608 32.773427) scale(0.14 -0.14)">
     <defs>
      <path id="Cmmi10-ae" d="M 1288 -72 
Q 984 -72 748 72 
Q 513 216 384 459 
Q 256 703 256 1013 
Q 256 1447 498 1872 
Q 741 2297 1142 2562 
Q 1544 2828 1984 2828 
Q 2309 2828 2556 2658 
Q 2803 2488 2931 2205 
Q 3059 1922 3059 1600 
L 3066 1172 
Q 3284 1475 3436 1801 
Q 3588 2128 3669 2478 
Q 3681 2516 3719 2516 
L 3794 2516 
Q 3853 2516 3853 2456 
Q 3853 2450 3847 2438 
Q 3772 2144 3659 1873 
Q 3547 1603 3395 1350 
Q 3244 1097 3066 891 
Q 3066 97 3250 97 
Q 3369 97 3445 167 
Q 3522 238 3580 341 
Q 3638 444 3653 447 
L 3731 447 
Q 3781 447 3781 384 
Q 3781 225 3598 76 
Q 3416 -72 3238 -72 
Q 3006 -72 2853 78 
Q 2700 228 2644 469 
Q 2344 213 1994 70 
Q 1644 -72 1288 -72 
z
M 1300 97 
Q 1984 97 2613 659 
Q 2609 697 2603 751 
Q 2597 806 2597 813 
L 2597 1503 
Q 2597 2663 1972 2663 
Q 1597 2663 1315 2342 
Q 1034 2022 892 1576 
Q 750 1131 750 763 
Q 750 484 892 290 
Q 1034 97 1300 97 
z
" transform="scale(0.015625)"/>
     </defs>
     <use xlink:href="#Cmmi10-ae" transform="translate(0 0.8125)"/>
     <use xlink:href="#Cmmi10-74" transform="translate(63.916016 -16.19375) scale(0.7)"/>
    </g>
   </g>
   <g id="text_22">
    <!-- $\sigma_t$ -->
    <g transform="translate(405.911392 32.773427) scale(0.14 -0.14)">
     <defs>
      <path id="Cmmi10-be" d="M 1197 -72 
Q 913 -72 692 64 
Q 472 200 351 431 
Q 231 663 231 941 
Q 231 1238 365 1566 
Q 500 1894 733 2166 
Q 966 2438 1259 2598 
Q 1553 2759 1863 2759 
L 3475 2759 
Q 3541 2759 3587 2715 
Q 3634 2672 3634 2597 
Q 3634 2503 3567 2433 
Q 3500 2363 3406 2363 
L 2625 2363 
Q 2809 2088 2809 1697 
Q 2809 1375 2684 1062 
Q 2559 750 2337 492 
Q 2116 234 1820 81 
Q 1525 -72 1197 -72 
z
M 1203 97 
Q 1553 97 1823 370 
Q 2094 644 2237 1039 
Q 2381 1434 2381 1772 
Q 2381 2047 2229 2205 
Q 2078 2363 1806 2363 
Q 1434 2363 1173 2113 
Q 913 1863 783 1484 
Q 653 1106 653 756 
Q 653 481 798 289 
Q 944 97 1203 97 
z
" transform="scale(0.015625)"/>
     </defs>
     <use xlink:href="#Cmmi10-be" transform="translate(0 0.890625)"/>
     <use xlink:href="#Cmmi10-74" transform="translate(57.080078 -16.115625) scale(0.7)"/>
    </g>
   </g>
  </g>
 </g>
 <defs>
  <clipPath id="pfe0c645ade">
   <rect x="45.36" y="76.984615" width="42.58481" height="232.615385"/>
  </clipPath>
  <clipPath id="pf71f67fee2">
   <rect x="99.300759" y="76.984615" width="340.678481" height="232.615385"/>
  </clipPath>
  <clipPath id="p7e16293562">
   <rect x="451.33519" y="76.984615" width="42.58481" height="232.615385"/>
  </clipPath>
  <clipPath id="p105ffae84e">
   <rect x="99.300759" y="7.2" width="340.678481" height="58.153846"/>
  </clipPath>
 </defs>
</svg>
