<?xml version="1.0" encoding="utf-8" standalone="no"?>
<!DOCTYPE svg PUBLIC "-//W3C//DTD SVG 1.1//EN"
  "http://www.w3.org/Graphics/SVG/1.1/DTD/svg11.dtd">
<svg xmlns:xlink="http://www.w3.org/1999/xlink" width="432pt" height="360pt" viewBox="0 0 432 360" xmlns="http://www.w3.org/2000/svg" version="1.1">
 <metadata>
  <rdf:RDF xmlns:dc="http://purl.org/dc/elements/1.1/" xmlns:cc="http://creativecommons.org/ns#" xmlns:rdf="http://www.w3.org/1999/02/22-rdf-syntax-ns#">
   <cc:Work>
    <dc:type rdf:resource="http://purl.org/dc/dcmitype/StillImage"/>
    <dc:date>2025-05-30T06:18:35.658281</dc:date>
    <dc:format>image/svg+xml</dc:format>
    <dc:creator>
     <cc:Agent>
      <dc:title>Matplotlib v3.10.0, https://matplotlib.org/</dc:title>
     </cc:Agent>
    </dc:creator>
   </cc:Work>
  </rdf:RDF>
 </metadata>
 <defs>
  <style type="text/css">*{stroke-linejoin: round; stroke-linecap: butt}</style>
 </defs>
 <g id="figure_1">
  <g id="patch_1">
   <path d="M 0 360 
L 432 360 
L 432 0 
L 0 0 
z
" style="fill: #ffffff"/>
  </g>
  <g id="axes_1">
   <g id="patch_2">
    <path d="M 51.84 306 
L 225.047547 306 
L 225.047547 54 
L 51.84 54 
z
" style="fill: #ffffff"/>
   </g>
   <g id="matplotlib.axis_1">
    <g id="xtick_1">
     <g id="line2d_1">
      <path d="M 51.84 306 
L 51.84 54 
" clip-path="url(#pa014d58adc)" style="fill: none; stroke: #b0b0b0; stroke-width: 0.8; stroke-linecap: square"/>
     </g>
     <g id="line2d_2">
      <defs>
       <path id="m1b275293cf" d="M 0 0 
L 0 3.5 
" style="stroke: #000000; stroke-width: 0.8"/>
      </defs>
      <g>
       <use xlink:href="#m1b275293cf" x="51.84" y="306" style="stroke: #000000; stroke-width: 0.8"/>
      </g>
     </g>
     <g id="text_1">
      <!-- 0 -->
      <g transform="translate(48.48 322.87) scale(0.14 -0.14)">
       <defs>
        <path id="EBGaramond-Regular-30" d="M 1571 -90 
Q 1245 -90 1005 89 
Q 765 269 605 566 
Q 445 864 368 1222 
Q 291 1581 291 1933 
Q 291 2298 368 2669 
Q 445 3040 608 3347 
Q 771 3654 1027 3843 
Q 1283 4032 1635 4032 
Q 1962 4032 2202 3853 
Q 2442 3674 2602 3376 
Q 2762 3078 2838 2723 
Q 2915 2368 2915 2022 
Q 2915 1664 2838 1293 
Q 2762 922 2598 608 
Q 2435 294 2182 102 
Q 1930 -90 1571 -90 
z
M 1680 77 
Q 1936 77 2093 336 
Q 2250 595 2320 1011 
Q 2390 1427 2390 1907 
Q 2390 2266 2336 2611 
Q 2282 2957 2170 3238 
Q 2058 3520 1894 3686 
Q 1731 3853 1514 3853 
Q 1258 3853 1107 3603 
Q 957 3354 889 2941 
Q 822 2528 822 2048 
Q 822 1690 876 1338 
Q 931 986 1036 701 
Q 1142 416 1302 246 
Q 1462 77 1680 77 
z
" transform="scale(0.015625)"/>
       </defs>
       <use xlink:href="#EBGaramond-Regular-30"/>
      </g>
     </g>
    </g>
    <g id="xtick_2">
     <g id="line2d_3">
      <path d="M 95.141887 306 
L 95.141887 54 
" clip-path="url(#pa014d58adc)" style="fill: none; stroke: #b0b0b0; stroke-width: 0.8; stroke-linecap: square"/>
     </g>
     <g id="line2d_4">
      <g>
       <use xlink:href="#m1b275293cf" x="95.141887" y="306" style="stroke: #000000; stroke-width: 0.8"/>
      </g>
     </g>
     <g id="text_2">
      <!-- 5 -->
      <g transform="translate(91.781887 322.87) scale(0.14 -0.14)">
       <defs>
        <path id="EBGaramond-Regular-35" d="M 698 -243 
Q 627 -243 544 -227 
Q 461 -211 461 -166 
Q 461 -115 547 -80 
Q 634 -45 691 -45 
Q 1197 -45 1526 137 
Q 1856 320 2019 595 
Q 2182 870 2182 1146 
Q 2182 1395 2035 1587 
Q 1888 1779 1552 1939 
Q 1216 2099 646 2246 
Q 563 2317 528 2387 
Q 493 2458 493 2541 
Q 493 2630 528 2758 
Q 563 2886 614 3030 
Q 666 3174 717 3315 
Q 768 3456 800 3558 
Q 832 3654 896 3708 
Q 960 3763 1062 3789 
Q 1210 3827 1363 3859 
Q 1517 3891 1683 3920 
Q 1850 3949 2026 3971 
Q 2202 3994 2387 4013 
Q 2438 4019 2460 3984 
Q 2483 3949 2458 3904 
Q 2432 3853 2403 3798 
Q 2374 3744 2349 3693 
Q 2304 3597 2249 3549 
Q 2195 3501 2112 3488 
Q 1990 3475 1830 3459 
Q 1670 3443 1510 3427 
Q 1350 3411 1216 3398 
Q 1082 3386 1011 3373 
Q 966 3366 902 3260 
Q 838 3155 787 3036 
Q 736 2918 730 2867 
Q 723 2822 739 2790 
Q 755 2758 813 2746 
Q 1171 2643 1465 2537 
Q 1760 2432 1978 2317 
Q 2336 2131 2512 1878 
Q 2688 1626 2688 1235 
Q 2688 883 2477 576 
Q 2266 269 1907 64 
Q 1734 -32 1542 -99 
Q 1350 -166 1139 -204 
Q 928 -243 698 -243 
z
" transform="scale(0.015625)"/>
       </defs>
       <use xlink:href="#EBGaramond-Regular-35"/>
      </g>
     </g>
    </g>
    <g id="xtick_3">
     <g id="line2d_5">
      <path d="M 138.443774 306 
L 138.443774 54 
" clip-path="url(#pa014d58adc)" style="fill: none; stroke: #b0b0b0; stroke-width: 0.8; stroke-linecap: square"/>
     </g>
     <g id="line2d_6">
      <g>
       <use xlink:href="#m1b275293cf" x="138.443774" y="306" style="stroke: #000000; stroke-width: 0.8"/>
      </g>
     </g>
     <g id="text_3">
      <!-- 10 -->
      <g transform="translate(131.723774 322.87) scale(0.14 -0.14)">
       <defs>
        <path id="EBGaramond-Regular-31" d="M 685 -19 
Q 640 -19 614 6 
Q 589 32 589 58 
Q 589 115 685 141 
Q 928 205 1085 259 
Q 1242 314 1315 413 
Q 1389 512 1389 698 
L 1389 3142 
Q 1389 3264 1312 3328 
Q 1235 3392 1113 3417 
Q 992 3443 851 3450 
Q 787 3456 736 3481 
Q 685 3507 685 3558 
Q 685 3603 733 3635 
Q 781 3667 845 3674 
Q 1133 3718 1360 3785 
Q 1587 3853 1805 4070 
Q 1811 4077 1820 4077 
Q 1830 4077 1837 4077 
Q 1869 4077 1894 4061 
Q 1920 4045 1914 4019 
Q 1901 3923 1894 3811 
Q 1888 3699 1888 3565 
L 1888 621 
Q 1888 461 1949 377 
Q 2010 294 2157 246 
Q 2304 198 2566 134 
Q 2605 128 2640 105 
Q 2675 83 2675 51 
Q 2675 -19 2586 -19 
Q 2406 -19 2256 -9 
Q 2106 0 1962 6 
Q 1818 13 1645 13 
Q 1472 13 1318 6 
Q 1165 0 1011 -9 
Q 858 -19 685 -19 
z
" transform="scale(0.015625)"/>
       </defs>
       <use xlink:href="#EBGaramond-Regular-31"/>
       <use xlink:href="#EBGaramond-Regular-30" transform="translate(47.999985 0)"/>
      </g>
     </g>
    </g>
    <g id="xtick_4">
     <g id="line2d_7">
      <path d="M 181.74566 306 
L 181.74566 54 
" clip-path="url(#pa014d58adc)" style="fill: none; stroke: #b0b0b0; stroke-width: 0.8; stroke-linecap: square"/>
     </g>
     <g id="line2d_8">
      <g>
       <use xlink:href="#m1b275293cf" x="181.74566" y="306" style="stroke: #000000; stroke-width: 0.8"/>
      </g>
     </g>
     <g id="text_4">
      <!-- 15 -->
      <g transform="translate(175.02566 322.87) scale(0.14 -0.14)">
       <use xlink:href="#EBGaramond-Regular-31"/>
       <use xlink:href="#EBGaramond-Regular-35" transform="translate(47.999985 0)"/>
      </g>
     </g>
    </g>
    <g id="xtick_5">
     <g id="line2d_9">
      <path d="M 225.047547 306 
L 225.047547 54 
" clip-path="url(#pa014d58adc)" style="fill: none; stroke: #b0b0b0; stroke-width: 0.8; stroke-linecap: square"/>
     </g>
     <g id="line2d_10">
      <g>
       <use xlink:href="#m1b275293cf" x="225.047547" y="306" style="stroke: #000000; stroke-width: 0.8"/>
      </g>
     </g>
     <g id="text_5">
      <!-- 20 -->
      <g transform="translate(218.327547 322.87) scale(0.14 -0.14)">
       <defs>
        <path id="EBGaramond-Regular-32" d="M 2683 -19 
Q 2638 -19 2542 -12 
Q 2446 -6 2324 0 
Q 2203 6 2072 12 
Q 1941 19 1819 19 
Q 1698 19 1474 12 
Q 1250 6 1003 3 
Q 757 0 571 -6 
Q 386 -13 334 -13 
Q 309 -13 257 28 
Q 206 70 206 96 
Q 206 128 219 141 
Q 232 154 258 179 
L 1352 1312 
Q 1672 1645 1883 2057 
Q 2094 2470 2094 2893 
Q 2094 3232 1889 3427 
Q 1685 3622 1410 3622 
Q 1147 3622 923 3478 
Q 699 3334 565 3104 
Q 546 3066 517 3040 
Q 488 3014 456 3014 
Q 430 3014 395 3068 
Q 360 3123 360 3206 
Q 360 3283 453 3417 
Q 546 3552 712 3693 
Q 878 3834 1108 3933 
Q 1339 4032 1608 4032 
Q 1928 4032 2158 3897 
Q 2389 3763 2510 3526 
Q 2632 3290 2632 2976 
Q 2632 2803 2571 2604 
Q 2510 2406 2404 2214 
Q 2299 2022 2165 1856 
Q 2082 1754 1918 1584 
Q 1755 1414 1566 1222 
Q 1378 1030 1208 860 
Q 1038 691 929 579 
Q 821 467 821 454 
Q 821 422 910 410 
Q 1019 403 1156 396 
Q 1294 390 1474 390 
Q 1659 390 1844 396 
Q 2030 403 2203 410 
Q 2389 422 2491 441 
Q 2594 461 2664 521 
Q 2734 582 2811 710 
Q 2837 749 2878 803 
Q 2920 858 2971 858 
Q 3003 858 3009 832 
Q 3016 806 3016 781 
Q 3016 749 2981 656 
Q 2946 563 2901 428 
Q 2856 294 2824 134 
Q 2805 32 2760 6 
Q 2715 -19 2683 -19 
z
" transform="scale(0.015625)"/>
       </defs>
       <use xlink:href="#EBGaramond-Regular-32"/>
       <use xlink:href="#EBGaramond-Regular-30" transform="translate(47.999985 0)"/>
      </g>
     </g>
    </g>
    <g id="text_6">
     <!-- $x$ -->
     <g transform="translate(134.383774 340.73) scale(0.14 -0.14)">
      <defs>
       <path id="Cmmi10-78" d="M 500 184 
Q 613 97 819 97 
Q 1019 97 1172 289 
Q 1325 481 1381 709 
L 1672 1844 
Q 1741 2153 1741 2266 
Q 1741 2425 1652 2544 
Q 1563 2663 1403 2663 
Q 1200 2663 1022 2536 
Q 844 2409 722 2214 
Q 600 2019 550 1819 
Q 538 1778 500 1778 
L 422 1778 
Q 372 1778 372 1838 
L 372 1856 
Q 434 2094 584 2320 
Q 734 2547 951 2687 
Q 1169 2828 1416 2828 
Q 1650 2828 1839 2703 
Q 2028 2578 2106 2363 
Q 2216 2559 2386 2693 
Q 2556 2828 2759 2828 
Q 2897 2828 3040 2779 
Q 3184 2731 3275 2631 
Q 3366 2531 3366 2381 
Q 3366 2219 3261 2101 
Q 3156 1984 2994 1984 
Q 2891 1984 2822 2050 
Q 2753 2116 2753 2216 
Q 2753 2350 2845 2451 
Q 2938 2553 3066 2572 
Q 2950 2663 2747 2663 
Q 2541 2663 2389 2472 
Q 2238 2281 2175 2047 
L 1894 916 
Q 1825 659 1825 494 
Q 1825 331 1917 214 
Q 2009 97 2163 97 
Q 2463 97 2698 361 
Q 2934 625 3009 941 
Q 3022 978 3059 978 
L 3138 978 
Q 3163 978 3178 961 
Q 3194 944 3194 922 
Q 3194 916 3188 903 
Q 3097 522 2806 225 
Q 2516 -72 2150 -72 
Q 1916 -72 1727 54 
Q 1538 181 1459 397 
Q 1359 209 1182 68 
Q 1006 -72 806 -72 
Q 669 -72 523 -23 
Q 378 25 287 125 
Q 197 225 197 378 
Q 197 528 301 651 
Q 406 775 563 775 
Q 669 775 741 711 
Q 813 647 813 544 
Q 813 409 723 309 
Q 634 209 500 184 
z
" transform="scale(0.015625)"/>
      </defs>
      <use xlink:href="#Cmmi10-78" transform="translate(0 0.8125)"/>
     </g>
    </g>
   </g>
   <g id="matplotlib.axis_2">
    <g id="ytick_1">
     <g id="line2d_11">
      <path d="M 51.84 306 
L 225.047547 306 
" clip-path="url(#pa014d58adc)" style="fill: none; stroke: #b0b0b0; stroke-width: 0.8; stroke-linecap: square"/>
     </g>
     <g id="line2d_12">
      <defs>
       <path id="m5ec587386e" d="M 0 0 
L -3.5 0 
" style="stroke: #000000; stroke-width: 0.8"/>
      </defs>
      <g>
       <use xlink:href="#m5ec587386e" x="51.84" y="306" style="stroke: #000000; stroke-width: 0.8"/>
      </g>
     </g>
     <g id="text_7">
      <!-- $\mathdefault{10^{-2}}$ -->
      <g transform="translate(20.34 310.935) scale(0.14 -0.14)">
       <defs>
        <path id="EBGaramond-Regular-2212" d="M 410 1421 
Q 378 1421 349 1446 
Q 320 1472 320 1498 
Q 320 1530 329 1603 
Q 339 1677 374 1741 
Q 410 1805 474 1805 
L 3437 1805 
Q 3469 1805 3494 1782 
Q 3520 1760 3520 1728 
Q 3520 1626 3465 1523 
Q 3411 1421 3322 1421 
L 410 1421 
z
" transform="scale(0.015625)"/>
       </defs>
       <use xlink:href="#EBGaramond-Regular-31" transform="translate(0 0.55)"/>
       <use xlink:href="#EBGaramond-Regular-30" transform="translate(47.999985 0.55)"/>
       <use xlink:href="#EBGaramond-Regular-2212" transform="translate(96.708719 28.9) scale(0.7)"/>
       <use xlink:href="#EBGaramond-Regular-32" transform="translate(138.708709 28.9) scale(0.7)"/>
      </g>
     </g>
    </g>
    <g id="ytick_2">
     <g id="line2d_13">
      <path d="M 51.84 222 
L 225.047547 222 
" clip-path="url(#pa014d58adc)" style="fill: none; stroke: #b0b0b0; stroke-width: 0.8; stroke-linecap: square"/>
     </g>
     <g id="line2d_14">
      <g>
       <use xlink:href="#m5ec587386e" x="51.84" y="222" style="stroke: #000000; stroke-width: 0.8"/>
      </g>
     </g>
     <g id="text_8">
      <!-- $\mathdefault{10^{-1}}$ -->
      <g transform="translate(20.34 226.935) scale(0.14 -0.14)">
       <use xlink:href="#EBGaramond-Regular-31" transform="translate(0 0.057813)"/>
       <use xlink:href="#EBGaramond-Regular-30" transform="translate(47.999985 0.057813)"/>
       <use xlink:href="#EBGaramond-Regular-2212" transform="translate(96.708719 28.407813) scale(0.7)"/>
       <use xlink:href="#EBGaramond-Regular-31" transform="translate(138.708709 28.407813) scale(0.7)"/>
      </g>
     </g>
    </g>
    <g id="ytick_3">
     <g id="line2d_15">
      <path d="M 51.84 138 
L 225.047547 138 
" clip-path="url(#pa014d58adc)" style="fill: none; stroke: #b0b0b0; stroke-width: 0.8; stroke-linecap: square"/>
     </g>
     <g id="line2d_16">
      <g>
       <use xlink:href="#m5ec587386e" x="51.84" y="138" style="stroke: #000000; stroke-width: 0.8"/>
      </g>
     </g>
     <g id="text_9">
      <!-- $\mathdefault{10^{0}}$ -->
      <g transform="translate(26.22 142.935) scale(0.14 -0.14)">
       <use xlink:href="#EBGaramond-Regular-31" transform="translate(0 0.55)"/>
       <use xlink:href="#EBGaramond-Regular-30" transform="translate(47.999985 0.55)"/>
       <use xlink:href="#EBGaramond-Regular-30" transform="translate(96.708719 28.9) scale(0.7)"/>
      </g>
     </g>
    </g>
    <g id="ytick_4">
     <g id="line2d_17">
      <path d="M 51.84 54 
L 225.047547 54 
" clip-path="url(#pa014d58adc)" style="fill: none; stroke: #b0b0b0; stroke-width: 0.8; stroke-linecap: square"/>
     </g>
     <g id="line2d_18">
      <g>
       <use xlink:href="#m5ec587386e" x="51.84" y="54" style="stroke: #000000; stroke-width: 0.8"/>
      </g>
     </g>
     <g id="text_10">
      <!-- $\mathdefault{10^{1}}$ -->
      <g transform="translate(26.22 58.935) scale(0.14 -0.14)">
       <use xlink:href="#EBGaramond-Regular-31" transform="translate(0 0.057813)"/>
       <use xlink:href="#EBGaramond-Regular-30" transform="translate(47.999985 0.057813)"/>
       <use xlink:href="#EBGaramond-Regular-31" transform="translate(96.708719 28.407813) scale(0.7)"/>
      </g>
     </g>
    </g>
    <g id="ytick_5">
     <g id="line2d_19">
      <defs>
       <path id="mc0c6ef5c3d" d="M 0 0 
L -2 0 
" style="stroke: #000000; stroke-width: 0.6"/>
      </defs>
      <g>
       <use xlink:href="#mc0c6ef5c3d" x="51.84" y="280.71348" style="stroke: #000000; stroke-width: 0.6"/>
      </g>
     </g>
    </g>
    <g id="ytick_6">
     <g id="line2d_20">
      <g>
       <use xlink:href="#mc0c6ef5c3d" x="51.84" y="265.921815" style="stroke: #000000; stroke-width: 0.6"/>
      </g>
     </g>
    </g>
    <g id="ytick_7">
     <g id="line2d_21">
      <g>
       <use xlink:href="#mc0c6ef5c3d" x="51.84" y="255.426961" style="stroke: #000000; stroke-width: 0.6"/>
      </g>
     </g>
    </g>
    <g id="ytick_8">
     <g id="line2d_22">
      <g>
       <use xlink:href="#mc0c6ef5c3d" x="51.84" y="247.28652" style="stroke: #000000; stroke-width: 0.6"/>
      </g>
     </g>
    </g>
    <g id="ytick_9">
     <g id="line2d_23">
      <g>
       <use xlink:href="#mc0c6ef5c3d" x="51.84" y="240.635295" style="stroke: #000000; stroke-width: 0.6"/>
      </g>
     </g>
    </g>
    <g id="ytick_10">
     <g id="line2d_24">
      <g>
       <use xlink:href="#mc0c6ef5c3d" x="51.84" y="235.011765" style="stroke: #000000; stroke-width: 0.6"/>
      </g>
     </g>
    </g>
    <g id="ytick_11">
     <g id="line2d_25">
      <g>
       <use xlink:href="#mc0c6ef5c3d" x="51.84" y="230.140441" style="stroke: #000000; stroke-width: 0.6"/>
      </g>
     </g>
    </g>
    <g id="ytick_12">
     <g id="line2d_26">
      <g>
       <use xlink:href="#mc0c6ef5c3d" x="51.84" y="225.843629" style="stroke: #000000; stroke-width: 0.6"/>
      </g>
     </g>
    </g>
    <g id="ytick_13">
     <g id="line2d_27">
      <g>
       <use xlink:href="#mc0c6ef5c3d" x="51.84" y="196.71348" style="stroke: #000000; stroke-width: 0.6"/>
      </g>
     </g>
    </g>
    <g id="ytick_14">
     <g id="line2d_28">
      <g>
       <use xlink:href="#mc0c6ef5c3d" x="51.84" y="181.921815" style="stroke: #000000; stroke-width: 0.6"/>
      </g>
     </g>
    </g>
    <g id="ytick_15">
     <g id="line2d_29">
      <g>
       <use xlink:href="#mc0c6ef5c3d" x="51.84" y="171.426961" style="stroke: #000000; stroke-width: 0.6"/>
      </g>
     </g>
    </g>
    <g id="ytick_16">
     <g id="line2d_30">
      <g>
       <use xlink:href="#mc0c6ef5c3d" x="51.84" y="163.28652" style="stroke: #000000; stroke-width: 0.6"/>
      </g>
     </g>
    </g>
    <g id="ytick_17">
     <g id="line2d_31">
      <g>
       <use xlink:href="#mc0c6ef5c3d" x="51.84" y="156.635295" style="stroke: #000000; stroke-width: 0.6"/>
      </g>
     </g>
    </g>
    <g id="ytick_18">
     <g id="line2d_32">
      <g>
       <use xlink:href="#mc0c6ef5c3d" x="51.84" y="151.011765" style="stroke: #000000; stroke-width: 0.6"/>
      </g>
     </g>
    </g>
    <g id="ytick_19">
     <g id="line2d_33">
      <g>
       <use xlink:href="#mc0c6ef5c3d" x="51.84" y="146.140441" style="stroke: #000000; stroke-width: 0.6"/>
      </g>
     </g>
    </g>
    <g id="ytick_20">
     <g id="line2d_34">
      <g>
       <use xlink:href="#mc0c6ef5c3d" x="51.84" y="141.843629" style="stroke: #000000; stroke-width: 0.6"/>
      </g>
     </g>
    </g>
    <g id="ytick_21">
     <g id="line2d_35">
      <g>
       <use xlink:href="#mc0c6ef5c3d" x="51.84" y="112.71348" style="stroke: #000000; stroke-width: 0.6"/>
      </g>
     </g>
    </g>
    <g id="ytick_22">
     <g id="line2d_36">
      <g>
       <use xlink:href="#mc0c6ef5c3d" x="51.84" y="97.921815" style="stroke: #000000; stroke-width: 0.6"/>
      </g>
     </g>
    </g>
    <g id="ytick_23">
     <g id="line2d_37">
      <g>
       <use xlink:href="#mc0c6ef5c3d" x="51.84" y="87.426961" style="stroke: #000000; stroke-width: 0.6"/>
      </g>
     </g>
    </g>
    <g id="ytick_24">
     <g id="line2d_38">
      <g>
       <use xlink:href="#mc0c6ef5c3d" x="51.84" y="79.28652" style="stroke: #000000; stroke-width: 0.6"/>
      </g>
     </g>
    </g>
    <g id="ytick_25">
     <g id="line2d_39">
      <g>
       <use xlink:href="#mc0c6ef5c3d" x="51.84" y="72.635295" style="stroke: #000000; stroke-width: 0.6"/>
      </g>
     </g>
    </g>
    <g id="ytick_26">
     <g id="line2d_40">
      <g>
       <use xlink:href="#mc0c6ef5c3d" x="51.84" y="67.011765" style="stroke: #000000; stroke-width: 0.6"/>
      </g>
     </g>
    </g>
    <g id="ytick_27">
     <g id="line2d_41">
      <g>
       <use xlink:href="#mc0c6ef5c3d" x="51.84" y="62.140441" style="stroke: #000000; stroke-width: 0.6"/>
      </g>
     </g>
    </g>
    <g id="ytick_28">
     <g id="line2d_42">
      <g>
       <use xlink:href="#mc0c6ef5c3d" x="51.84" y="57.843629" style="stroke: #000000; stroke-width: 0.6"/>
      </g>
     </g>
    </g>
   </g>
   <g id="line2d_43">
    <path d="M 51.84 67.462402 
L 60.500377 138.451132 
L 69.160755 157.086811 
L 77.821132 168.114579 
L 86.481509 175.962313 
L 95.141887 182.056862 
L 103.802264 187.039517 
L 112.462642 191.25378 
L 121.123019 194.905156 
L 129.783396 198.126385 
L 138.443774 201.008184 
L 147.104151 203.615297 
L 155.764528 205.995551 
L 164.424906 208.18528 
L 173.085283 210.212732 
L 181.74566 212.100306 
L 190.406038 213.866063 
L 199.066415 215.524776 
L 207.726792 217.088684 
L 216.38717 218.568041 
L 225.047547 219.971523 
L 233.707925 221.306534 
L 242.368302 222.579445 
L 251.028679 223.795778 
L 259.689057 224.96035 
L 268.349434 226.077386 
L 277.009811 227.150617 
L 285.670189 228.183348 
L 294.330566 229.178525 
L 302.990943 230.138785 
L 311.651321 231.066494 
L 320.311698 231.963789 
L 328.972075 232.832599 
L 337.632453 233.674678 
L 346.29283 234.491623 
L 354.953208 235.28489 
L 363.613585 236.055813 
L 372.273962 236.805618 
L 380.93434 237.53543 
L 389.594717 238.246287 
L 398.255094 238.939151 
L 406.915472 239.614909 
L 415.575849 240.274385 
L 424.236226 240.918347 
L 432.896604 241.547507 
L 433 241.55485 
" clip-path="url(#pa014d58adc)" style="fill: none; stroke: #000000; stroke-width: 1.5; stroke-linecap: square"/>
   </g>
   <g id="line2d_44">
    <defs>
     <path id="mf1b489baa4" d="M 0 2 
C 0.530406 2 1.03916 1.789267 1.414214 1.414214 
C 1.789267 1.03916 2 0.530406 2 0 
C 2 -0.530406 1.789267 -1.03916 1.414214 -1.414214 
C 1.03916 -1.789267 0.530406 -2 0 -2 
C -0.530406 -2 -1.03916 -1.789267 -1.414214 -1.414214 
C -1.789267 -1.03916 -2 -0.530406 -2 0 
C -2 0.530406 -1.789267 1.03916 -1.414214 1.414214 
C -1.03916 1.789267 -0.530406 2 0 2 
z
" style="stroke: #000000"/>
    </defs>
    <g clip-path="url(#pa014d58adc)">
     <use xlink:href="#mf1b489baa4" x="51.84" y="67.462402" style="fill: #ffffff; stroke: #000000"/>
     <use xlink:href="#mf1b489baa4" x="60.500377" y="138.451132" style="fill: #ffffff; stroke: #000000"/>
     <use xlink:href="#mf1b489baa4" x="69.160755" y="157.086811" style="fill: #ffffff; stroke: #000000"/>
     <use xlink:href="#mf1b489baa4" x="77.821132" y="168.114579" style="fill: #ffffff; stroke: #000000"/>
     <use xlink:href="#mf1b489baa4" x="86.481509" y="175.962313" style="fill: #ffffff; stroke: #000000"/>
     <use xlink:href="#mf1b489baa4" x="95.141887" y="182.056862" style="fill: #ffffff; stroke: #000000"/>
     <use xlink:href="#mf1b489baa4" x="103.802264" y="187.039517" style="fill: #ffffff; stroke: #000000"/>
     <use xlink:href="#mf1b489baa4" x="112.462642" y="191.25378" style="fill: #ffffff; stroke: #000000"/>
     <use xlink:href="#mf1b489baa4" x="121.123019" y="194.905156" style="fill: #ffffff; stroke: #000000"/>
     <use xlink:href="#mf1b489baa4" x="129.783396" y="198.126385" style="fill: #ffffff; stroke: #000000"/>
     <use xlink:href="#mf1b489baa4" x="138.443774" y="201.008184" style="fill: #ffffff; stroke: #000000"/>
    </g>
   </g>
   <g id="line2d_45">
    <path d="M 51.84 98.434046 
L 60.500377 138.52467 
L 69.160755 150.80689 
L 77.821132 158.133311 
L 86.481509 163.35865 
L 95.141887 167.42058 
L 103.802264 170.743222 
L 112.462642 173.554428 
L 121.123019 175.99074 
L 129.783396 178.140444 
L 138.443774 180.063914 
L 147.104151 181.804263 
L 155.764528 183.393348 
L 164.424906 184.855378 
L 173.085283 186.209178 
L 181.74566 187.469679 
L 190.406038 188.648919 
L 199.066415 189.75675 
L 207.726792 190.80133 
L 216.38717 191.789499 
L 225.047547 192.727041 
L 233.707925 193.618895 
L 242.368302 194.469311 
L 251.028679 195.28197 
L 259.689057 196.060087 
L 268.349434 196.806481 
L 277.009811 197.523638 
L 285.670189 198.213766 
L 294.330566 198.878828 
L 302.990943 199.520585 
L 311.651321 200.140615 
L 320.311698 200.740344 
L 328.972075 201.321058 
L 337.632453 201.883929 
L 346.29283 202.430022 
L 354.953208 202.960308 
L 363.613585 203.475678 
L 372.273962 203.976948 
L 380.93434 204.464872 
L 389.594717 204.940141 
L 398.255094 205.403397 
L 406.915472 205.855232 
L 415.575849 206.296197 
L 424.236226 206.726802 
L 432.896604 207.147525 
L 433 207.152435 
" clip-path="url(#pa014d58adc)" style="fill: none; stroke-dasharray: 5.55,2.4; stroke-dashoffset: 0; stroke: #000000; stroke-width: 1.5"/>
   </g>
   <g id="line2d_46">
    <g clip-path="url(#pa014d58adc)">
     <use xlink:href="#mf1b489baa4" x="51.84" y="98.434046" style="fill: #ffffff; stroke: #000000"/>
     <use xlink:href="#mf1b489baa4" x="60.500377" y="138.52467" style="fill: #ffffff; stroke: #000000"/>
     <use xlink:href="#mf1b489baa4" x="69.160755" y="150.80689" style="fill: #ffffff; stroke: #000000"/>
     <use xlink:href="#mf1b489baa4" x="77.821132" y="158.133311" style="fill: #ffffff; stroke: #000000"/>
     <use xlink:href="#mf1b489baa4" x="86.481509" y="163.35865" style="fill: #ffffff; stroke: #000000"/>
     <use xlink:href="#mf1b489baa4" x="95.141887" y="167.42058" style="fill: #ffffff; stroke: #000000"/>
     <use xlink:href="#mf1b489baa4" x="103.802264" y="170.743222" style="fill: #ffffff; stroke: #000000"/>
     <use xlink:href="#mf1b489baa4" x="112.462642" y="173.554428" style="fill: #ffffff; stroke: #000000"/>
     <use xlink:href="#mf1b489baa4" x="121.123019" y="175.99074" style="fill: #ffffff; stroke: #000000"/>
     <use xlink:href="#mf1b489baa4" x="129.783396" y="178.140444" style="fill: #ffffff; stroke: #000000"/>
     <use xlink:href="#mf1b489baa4" x="138.443774" y="180.063914" style="fill: #ffffff; stroke: #000000"/>
    </g>
   </g>
   <g id="line2d_47">
    <path d="M 51.84 120.152646 
L 60.500377 139.108006 
L 69.160755 145.34868 
L 77.821132 149.100319 
L 86.481509 151.785569 
L 95.141887 153.877865 
L 103.802264 155.592447 
L 112.462642 157.045279 
L 121.123019 158.305989 
L 129.783396 159.419658 
L 138.443774 160.417151 
L 147.104151 161.320528 
L 155.764528 162.146106 
L 164.424906 162.906289 
L 173.085283 163.610732 
L 181.74566 164.267096 
L 190.406038 164.881562 
L 199.066415 165.459189 
L 207.726792 166.004172 
L 216.38717 166.520025 
L 225.047547 167.009724 
L 233.707925 167.475811 
L 242.368302 167.920473 
L 251.028679 168.345606 
L 259.689057 168.752865 
L 268.349434 169.143703 
L 277.009811 169.519403 
L 285.670189 169.881101 
L 294.330566 170.229812 
L 302.990943 170.566443 
L 311.651321 170.891808 
L 320.311698 171.206644 
L 328.972075 171.511616 
L 337.632453 171.807327 
L 346.29283 172.094329 
L 354.953208 172.373123 
L 363.613585 172.64417 
L 372.273962 172.907892 
L 380.93434 173.164678 
L 389.594717 173.414887 
L 398.255094 173.658849 
L 406.915472 173.896872 
L 415.575849 174.12924 
L 424.236226 174.356219 
L 432.896604 174.578054 
L 433 174.580644 
" clip-path="url(#pa014d58adc)" style="fill: none; stroke-dasharray: 9.6,2.4,1.5,2.4; stroke-dashoffset: 0; stroke: #000000; stroke-width: 1.5"/>
   </g>
   <g id="line2d_48">
    <g clip-path="url(#pa014d58adc)">
     <use xlink:href="#mf1b489baa4" x="51.84" y="120.152646" style="fill: #ffffff; stroke: #000000"/>
     <use xlink:href="#mf1b489baa4" x="60.500377" y="139.108006" style="fill: #ffffff; stroke: #000000"/>
     <use xlink:href="#mf1b489baa4" x="69.160755" y="145.34868" style="fill: #ffffff; stroke: #000000"/>
     <use xlink:href="#mf1b489baa4" x="77.821132" y="149.100319" style="fill: #ffffff; stroke: #000000"/>
     <use xlink:href="#mf1b489baa4" x="86.481509" y="151.785569" style="fill: #ffffff; stroke: #000000"/>
     <use xlink:href="#mf1b489baa4" x="95.141887" y="153.877865" style="fill: #ffffff; stroke: #000000"/>
     <use xlink:href="#mf1b489baa4" x="103.802264" y="155.592447" style="fill: #ffffff; stroke: #000000"/>
     <use xlink:href="#mf1b489baa4" x="112.462642" y="157.045279" style="fill: #ffffff; stroke: #000000"/>
     <use xlink:href="#mf1b489baa4" x="121.123019" y="158.305989" style="fill: #ffffff; stroke: #000000"/>
     <use xlink:href="#mf1b489baa4" x="129.783396" y="159.419658" style="fill: #ffffff; stroke: #000000"/>
     <use xlink:href="#mf1b489baa4" x="138.443774" y="160.417151" style="fill: #ffffff; stroke: #000000"/>
    </g>
   </g>
   <g id="line2d_49">
    <path d="M 51.84 138 
L 60.500377 138 
L 69.160755 138 
L 77.821132 138 
L 86.481509 138 
L 95.141887 138 
L 103.802264 138 
L 112.462642 138 
L 121.123019 138 
L 129.783396 138 
L 138.443774 138 
L 147.104151 138 
L 155.764528 138 
L 164.424906 138 
L 173.085283 138 
L 181.74566 138 
L 190.406038 138 
L 199.066415 138 
L 207.726792 138 
L 216.38717 138 
L 225.047547 138 
L 233.707925 138 
L 242.368302 138 
L 251.028679 138 
L 259.689057 138 
L 268.349434 138 
L 277.009811 138 
L 285.670189 138 
L 294.330566 138 
L 302.990943 138 
L 311.651321 138 
L 320.311698 138 
L 328.972075 138 
L 337.632453 138 
L 346.29283 138 
L 354.953208 138 
L 363.613585 138 
L 372.273962 138 
L 380.93434 138 
L 389.594717 138 
L 398.255094 138 
L 406.915472 138 
L 415.575849 138 
L 424.236226 138 
L 432.896604 138 
L 433 138 
" clip-path="url(#pa014d58adc)" style="fill: none; stroke-dasharray: 1.5,2.475; stroke-dashoffset: 0; stroke: #000000; stroke-width: 1.5"/>
   </g>
   <g id="line2d_50">
    <g clip-path="url(#pa014d58adc)">
     <use xlink:href="#mf1b489baa4" x="51.84" y="138" style="fill: #ffffff; stroke: #000000"/>
     <use xlink:href="#mf1b489baa4" x="60.500377" y="138" style="fill: #ffffff; stroke: #000000"/>
     <use xlink:href="#mf1b489baa4" x="69.160755" y="138" style="fill: #ffffff; stroke: #000000"/>
     <use xlink:href="#mf1b489baa4" x="77.821132" y="138" style="fill: #ffffff; stroke: #000000"/>
     <use xlink:href="#mf1b489baa4" x="86.481509" y="138" style="fill: #ffffff; stroke: #000000"/>
     <use xlink:href="#mf1b489baa4" x="95.141887" y="138" style="fill: #ffffff; stroke: #000000"/>
     <use xlink:href="#mf1b489baa4" x="103.802264" y="138" style="fill: #ffffff; stroke: #000000"/>
     <use xlink:href="#mf1b489baa4" x="112.462642" y="138" style="fill: #ffffff; stroke: #000000"/>
     <use xlink:href="#mf1b489baa4" x="121.123019" y="138" style="fill: #ffffff; stroke: #000000"/>
     <use xlink:href="#mf1b489baa4" x="129.783396" y="138" style="fill: #ffffff; stroke: #000000"/>
     <use xlink:href="#mf1b489baa4" x="138.443774" y="138" style="fill: #ffffff; stroke: #000000"/>
    </g>
   </g>
   <g id="patch_3">
    <path d="M 51.84 306 
L 51.84 54 
" style="fill: none; stroke: #000000; stroke-width: 0.8; stroke-linejoin: miter; stroke-linecap: square"/>
   </g>
   <g id="patch_4">
    <path d="M 225.047547 306 
L 225.047547 54 
" style="fill: none; stroke: #000000; stroke-width: 0.8; stroke-linejoin: miter; stroke-linecap: square"/>
   </g>
   <g id="patch_5">
    <path d="M 51.84 306 
L 225.047547 306 
" style="fill: none; stroke: #000000; stroke-width: 0.8; stroke-linejoin: miter; stroke-linecap: square"/>
   </g>
   <g id="patch_6">
    <path d="M 51.84 54 
L 225.047547 54 
" style="fill: none; stroke: #000000; stroke-width: 0.8; stroke-linejoin: miter; stroke-linecap: square"/>
   </g>
   <g id="legend_1">
    <g id="patch_7">
     <path d="M 61.64 299 
L 156.14 299 
Q 158.94 299 158.94 296.2 
L 158.94 214.16 
Q 158.94 211.36 156.14 211.36 
L 61.64 211.36 
Q 58.84 211.36 58.84 214.16 
L 58.84 296.2 
Q 58.84 299 61.64 299 
z
" style="fill: #ffffff; stroke: #cccccc; stroke-linejoin: miter"/>
    </g>
    <g id="line2d_51">
     <path d="M 64.44 221.93 
L 78.44 221.93 
L 92.44 221.93 
" style="fill: none; stroke: #000000; stroke-width: 1.5; stroke-linecap: square"/>
    </g>
    <g id="text_11">
     <!-- $\alpha = 0.25$ -->
     <g transform="translate(103.64 226.83) scale(0.14 -0.14)">
      <defs>
       <path id="Cmmi10-ae" d="M 1288 -72 
Q 984 -72 748 72 
Q 513 216 384 459 
Q 256 703 256 1013 
Q 256 1447 498 1872 
Q 741 2297 1142 2562 
Q 1544 2828 1984 2828 
Q 2309 2828 2556 2658 
Q 2803 2488 2931 2205 
Q 3059 1922 3059 1600 
L 3066 1172 
Q 3284 1475 3436 1801 
Q 3588 2128 3669 2478 
Q 3681 2516 3719 2516 
L 3794 2516 
Q 3853 2516 3853 2456 
Q 3853 2450 3847 2438 
Q 3772 2144 3659 1873 
Q 3547 1603 3395 1350 
Q 3244 1097 3066 891 
Q 3066 97 3250 97 
Q 3369 97 3445 167 
Q 3522 238 3580 341 
Q 3638 444 3653 447 
L 3731 447 
Q 3781 447 3781 384 
Q 3781 225 3598 76 
Q 3416 -72 3238 -72 
Q 3006 -72 2853 78 
Q 2700 228 2644 469 
Q 2344 213 1994 70 
Q 1644 -72 1288 -72 
z
M 1300 97 
Q 1984 97 2613 659 
Q 2609 697 2603 751 
Q 2597 806 2597 813 
L 2597 1503 
Q 2597 2663 1972 2663 
Q 1597 2663 1315 2342 
Q 1034 2022 892 1576 
Q 750 1131 750 763 
Q 750 484 892 290 
Q 1034 97 1300 97 
z
" transform="scale(0.015625)"/>
       <path id="Cmr10-3d" d="M 481 850 
Q 428 850 393 890 
Q 359 931 359 978 
Q 359 1031 393 1068 
Q 428 1106 481 1106 
L 4500 1106 
Q 4547 1106 4581 1068 
Q 4616 1031 4616 978 
Q 4616 931 4581 890 
Q 4547 850 4500 850 
L 481 850 
z
M 481 2094 
Q 428 2094 393 2131 
Q 359 2169 359 2222 
Q 359 2269 393 2309 
Q 428 2350 481 2350 
L 4500 2350 
Q 4547 2350 4581 2309 
Q 4616 2269 4616 2222 
Q 4616 2169 4581 2131 
Q 4547 2094 4500 2094 
L 481 2094 
z
" transform="scale(0.015625)"/>
       <path id="Cmr10-30" d="M 1600 -141 
Q 816 -141 533 504 
Q 250 1150 250 2041 
Q 250 2597 351 3087 
Q 453 3578 754 3920 
Q 1056 4263 1600 4263 
Q 2022 4263 2290 4056 
Q 2559 3850 2700 3523 
Q 2841 3197 2892 2823 
Q 2944 2450 2944 2041 
Q 2944 1491 2842 1011 
Q 2741 531 2444 195 
Q 2147 -141 1600 -141 
z
M 1600 25 
Q 1956 25 2131 390 
Q 2306 756 2347 1200 
Q 2388 1644 2388 2144 
Q 2388 2625 2347 3031 
Q 2306 3438 2132 3767 
Q 1959 4097 1600 4097 
Q 1238 4097 1063 3765 
Q 888 3434 847 3029 
Q 806 2625 806 2144 
Q 806 1788 823 1472 
Q 841 1156 916 820 
Q 991 484 1158 254 
Q 1325 25 1600 25 
z
" transform="scale(0.015625)"/>
       <path id="Cmmi10-3a" d="M 538 353 
Q 538 497 644 600 
Q 750 703 891 703 
Q 978 703 1062 656 
Q 1147 609 1194 525 
Q 1241 441 1241 353 
Q 1241 213 1137 106 
Q 1034 0 891 0 
Q 750 0 644 106 
Q 538 213 538 353 
z
" transform="scale(0.015625)"/>
       <path id="Cmr10-32" d="M 319 0 
L 319 172 
Q 319 188 331 206 
L 1325 1306 
Q 1550 1550 1690 1715 
Q 1831 1881 1968 2097 
Q 2106 2313 2186 2536 
Q 2266 2759 2266 3009 
Q 2266 3272 2169 3511 
Q 2072 3750 1880 3894 
Q 1688 4038 1416 4038 
Q 1138 4038 916 3870 
Q 694 3703 603 3438 
Q 628 3444 672 3444 
Q 816 3444 917 3347 
Q 1019 3250 1019 3097 
Q 1019 2950 917 2848 
Q 816 2747 672 2747 
Q 522 2747 420 2851 
Q 319 2956 319 3097 
Q 319 3338 409 3548 
Q 500 3759 670 3923 
Q 841 4088 1055 4175 
Q 1269 4263 1509 4263 
Q 1875 4263 2190 4108 
Q 2506 3953 2690 3670 
Q 2875 3388 2875 3009 
Q 2875 2731 2753 2481 
Q 2631 2231 2440 2026 
Q 2250 1822 1953 1562 
Q 1656 1303 1563 1216 
L 838 519 
L 1453 519 
Q 1906 519 2211 526 
Q 2516 534 2534 550 
Q 2609 631 2688 1141 
L 2875 1141 
L 2694 0 
L 319 0 
z
" transform="scale(0.015625)"/>
       <path id="Cmr10-35" d="M 556 728 
Q 622 541 758 387 
Q 894 234 1080 148 
Q 1266 63 1466 63 
Q 1928 63 2103 422 
Q 2278 781 2278 1294 
Q 2278 1516 2270 1667 
Q 2263 1819 2228 1959 
Q 2169 2184 2020 2353 
Q 1872 2522 1656 2522 
Q 1441 2522 1286 2456 
Q 1131 2391 1034 2303 
Q 938 2216 863 2119 
Q 788 2022 769 2016 
L 697 2016 
Q 681 2016 657 2036 
Q 634 2056 634 2075 
L 634 4213 
Q 634 4228 654 4245 
Q 675 4263 697 4263 
L 716 4263 
Q 1147 4056 1631 4056 
Q 2106 4056 2547 4263 
L 2566 4263 
Q 2588 4263 2606 4247 
Q 2625 4231 2625 4213 
L 2625 4153 
Q 2625 4122 2613 4122 
Q 2394 3831 2064 3668 
Q 1734 3506 1381 3506 
Q 1125 3506 856 3578 
L 856 2369 
Q 1069 2541 1236 2614 
Q 1403 2688 1663 2688 
Q 2016 2688 2295 2484 
Q 2575 2281 2725 1954 
Q 2875 1628 2875 1288 
Q 2875 903 2686 575 
Q 2497 247 2172 53 
Q 1847 -141 1466 -141 
Q 1150 -141 886 21 
Q 622 184 470 459 
Q 319 734 319 1044 
Q 319 1188 412 1278 
Q 506 1369 647 1369 
Q 788 1369 883 1276 
Q 978 1184 978 1044 
Q 978 906 883 811 
Q 788 716 647 716 
Q 625 716 597 720 
Q 569 725 556 728 
z
" transform="scale(0.015625)"/>
      </defs>
      <use xlink:href="#Cmmi10-ae" transform="translate(0 0.390625)"/>
      <use xlink:href="#Cmr10-3d" transform="translate(81.474609 0.390625)"/>
      <use xlink:href="#Cmr10-30" transform="translate(176.71875 0.390625)"/>
      <use xlink:href="#Cmmi10-3a" transform="translate(226.71875 0.390625)"/>
      <use xlink:href="#Cmr10-32" transform="translate(254.404297 0.390625)"/>
      <use xlink:href="#Cmr10-35" transform="translate(304.404297 0.390625)"/>
     </g>
    </g>
    <g id="line2d_52">
     <path d="M 64.44 242.79 
L 78.44 242.79 
L 92.44 242.79 
" style="fill: none; stroke-dasharray: 5.55,2.4; stroke-dashoffset: 0; stroke: #000000; stroke-width: 1.5"/>
    </g>
    <g id="text_12">
     <!-- $\alpha = 0.5$ -->
     <g transform="translate(103.64 247.69) scale(0.14 -0.14)">
      <use xlink:href="#Cmmi10-ae" transform="translate(0 0.390625)"/>
      <use xlink:href="#Cmr10-3d" transform="translate(81.474609 0.390625)"/>
      <use xlink:href="#Cmr10-30" transform="translate(176.71875 0.390625)"/>
      <use xlink:href="#Cmmi10-3a" transform="translate(226.71875 0.390625)"/>
      <use xlink:href="#Cmr10-35" transform="translate(254.404297 0.390625)"/>
     </g>
    </g>
    <g id="line2d_53">
     <path d="M 64.44 263.65 
L 78.44 263.65 
L 92.44 263.65 
" style="fill: none; stroke-dasharray: 9.6,2.4,1.5,2.4; stroke-dashoffset: 0; stroke: #000000; stroke-width: 1.5"/>
    </g>
    <g id="text_13">
     <!-- $\alpha = 0.75$ -->
     <g transform="translate(103.64 268.55) scale(0.14 -0.14)">
      <defs>
       <path id="Cmr10-37" d="M 1113 166 
Q 1113 522 1175 862 
Q 1238 1203 1358 1536 
Q 1478 1869 1648 2189 
Q 1819 2509 2022 2791 
L 2606 3603 
L 1875 3603 
Q 738 3603 703 3572 
Q 619 3469 544 2981 
L 359 2981 
L 569 4325 
L 756 4325 
L 756 4306 
Q 756 4191 1147 4156 
Q 1538 4122 1913 4122 
L 3103 4122 
L 3103 3956 
Q 3103 3950 3101 3947 
Q 3100 3944 3097 3938 
L 2216 2700 
Q 1891 2219 1809 1631 
Q 1728 1044 1728 166 
Q 1728 41 1637 -50 
Q 1547 -141 1422 -141 
Q 1294 -141 1203 -50 
Q 1113 41 1113 166 
z
" transform="scale(0.015625)"/>
      </defs>
      <use xlink:href="#Cmmi10-ae" transform="translate(0 0.421875)"/>
      <use xlink:href="#Cmr10-3d" transform="translate(81.474609 0.421875)"/>
      <use xlink:href="#Cmr10-30" transform="translate(176.71875 0.421875)"/>
      <use xlink:href="#Cmmi10-3a" transform="translate(226.71875 0.421875)"/>
      <use xlink:href="#Cmr10-37" transform="translate(254.404297 0.421875)"/>
      <use xlink:href="#Cmr10-35" transform="translate(304.404297 0.421875)"/>
     </g>
    </g>
    <g id="line2d_54">
     <path d="M 64.44 284.51 
L 78.44 284.51 
L 92.44 284.51 
" style="fill: none; stroke-dasharray: 1.5,2.475; stroke-dashoffset: 0; stroke: #000000; stroke-width: 1.5"/>
    </g>
    <g id="text_14">
     <!-- $\alpha \geq 1$ -->
     <g transform="translate(103.64 289.41) scale(0.14 -0.14)">
      <defs>
       <path id="Cmsy10-b8" d="M 653 -878 
Q 600 -878 565 -837 
Q 531 -797 531 -750 
Q 531 -697 565 -659 
Q 600 -622 653 -622 
L 4325 -622 
Q 4375 -622 4408 -659 
Q 4441 -697 4441 -750 
Q 4441 -797 4408 -837 
Q 4375 -878 4325 -878 
L 653 -878 
z
M 531 494 
Q 531 572 616 616 
L 4013 2222 
L 594 3834 
Q 531 3863 531 3944 
Q 531 3991 568 4031 
Q 606 4072 659 4072 
Q 691 4072 709 4063 
L 4384 2328 
Q 4441 2300 4441 2222 
Q 4441 2144 4366 2100 
L 709 378 
Q 691 366 659 366 
Q 606 366 568 403 
Q 531 441 531 494 
z
" transform="scale(0.015625)"/>
       <path id="Cmr10-31" d="M 594 0 
L 594 225 
Q 1394 225 1394 428 
L 1394 3788 
Q 1063 3628 556 3628 
L 556 3853 
Q 1341 3853 1741 4263 
L 1831 4263 
Q 1853 4263 1873 4245 
Q 1894 4228 1894 4206 
L 1894 428 
Q 1894 225 2694 225 
L 2694 0 
L 594 0 
z
" transform="scale(0.015625)"/>
      </defs>
      <use xlink:href="#Cmmi10-ae" transform="translate(0 0.390625)"/>
      <use xlink:href="#Cmsy10-b8" transform="translate(81.474609 0.390625)"/>
      <use xlink:href="#Cmr10-31" transform="translate(176.71875 0.390625)"/>
     </g>
    </g>
   </g>
  </g>
  <g id="axes_2">
   <g id="patch_8">
    <path d="M 245.832453 306 
L 419.04 306 
L 419.04 54 
L 245.832453 54 
z
" style="fill: #ffffff"/>
   </g>
   <g id="matplotlib.axis_3">
    <g id="xtick_6">
     <g id="line2d_55">
      <path d="M 245.832453 306 
L 245.832453 54 
" clip-path="url(#p752061c095)" style="fill: none; stroke: #b0b0b0; stroke-width: 0.8; stroke-linecap: square"/>
     </g>
     <g id="line2d_56">
      <g>
       <use xlink:href="#m1b275293cf" x="245.832453" y="306" style="stroke: #000000; stroke-width: 0.8"/>
      </g>
     </g>
     <g id="text_15">
      <!-- $\mathdefault{10^{0}}$ -->
      <g transform="translate(236.522453 322.87) scale(0.14 -0.14)">
       <use xlink:href="#EBGaramond-Regular-31" transform="translate(0 0.55)"/>
       <use xlink:href="#EBGaramond-Regular-30" transform="translate(47.999985 0.55)"/>
       <use xlink:href="#EBGaramond-Regular-30" transform="translate(96.708719 28.9) scale(0.7)"/>
      </g>
     </g>
    </g>
    <g id="xtick_7">
     <g id="line2d_57">
      <path d="M 332.436226 306 
L 332.436226 54 
" clip-path="url(#p752061c095)" style="fill: none; stroke: #b0b0b0; stroke-width: 0.8; stroke-linecap: square"/>
     </g>
     <g id="line2d_58">
      <g>
       <use xlink:href="#m1b275293cf" x="332.436226" y="306" style="stroke: #000000; stroke-width: 0.8"/>
      </g>
     </g>
     <g id="text_16">
      <!-- $\mathdefault{10^{1}}$ -->
      <g transform="translate(323.126226 322.87) scale(0.14 -0.14)">
       <use xlink:href="#EBGaramond-Regular-31" transform="translate(0 0.057813)"/>
       <use xlink:href="#EBGaramond-Regular-30" transform="translate(47.999985 0.057813)"/>
       <use xlink:href="#EBGaramond-Regular-31" transform="translate(96.708719 28.407813) scale(0.7)"/>
      </g>
     </g>
    </g>
    <g id="xtick_8">
     <g id="line2d_59">
      <path d="M 419.04 306 
L 419.04 54 
" clip-path="url(#p752061c095)" style="fill: none; stroke: #b0b0b0; stroke-width: 0.8; stroke-linecap: square"/>
     </g>
     <g id="line2d_60">
      <g>
       <use xlink:href="#m1b275293cf" x="419.04" y="306" style="stroke: #000000; stroke-width: 0.8"/>
      </g>
     </g>
     <g id="text_17">
      <!-- $\mathdefault{10^{2}}$ -->
      <g transform="translate(409.73 322.87) scale(0.14 -0.14)">
       <use xlink:href="#EBGaramond-Regular-31" transform="translate(0 0.55)"/>
       <use xlink:href="#EBGaramond-Regular-30" transform="translate(47.999985 0.55)"/>
       <use xlink:href="#EBGaramond-Regular-32" transform="translate(96.708719 28.9) scale(0.7)"/>
      </g>
     </g>
    </g>
    <g id="xtick_9">
     <g id="line2d_61">
      <defs>
       <path id="me0e4799401" d="M 0 0 
L 0 2 
" style="stroke: #000000; stroke-width: 0.6"/>
      </defs>
      <g>
       <use xlink:href="#me0e4799401" x="271.902786" y="306" style="stroke: #000000; stroke-width: 0.6"/>
      </g>
     </g>
    </g>
    <g id="xtick_10">
     <g id="line2d_62">
      <g>
       <use xlink:href="#me0e4799401" x="287.152954" y="306" style="stroke: #000000; stroke-width: 0.6"/>
      </g>
     </g>
    </g>
    <g id="xtick_11">
     <g id="line2d_63">
      <g>
       <use xlink:href="#me0e4799401" x="297.97312" y="306" style="stroke: #000000; stroke-width: 0.6"/>
      </g>
     </g>
    </g>
    <g id="xtick_12">
     <g id="line2d_64">
      <g>
       <use xlink:href="#me0e4799401" x="306.365893" y="306" style="stroke: #000000; stroke-width: 0.6"/>
      </g>
     </g>
    </g>
    <g id="xtick_13">
     <g id="line2d_65">
      <g>
       <use xlink:href="#me0e4799401" x="313.223288" y="306" style="stroke: #000000; stroke-width: 0.6"/>
      </g>
     </g>
    </g>
    <g id="xtick_14">
     <g id="line2d_66">
      <g>
       <use xlink:href="#me0e4799401" x="319.021132" y="306" style="stroke: #000000; stroke-width: 0.6"/>
      </g>
     </g>
    </g>
    <g id="xtick_15">
     <g id="line2d_67">
      <g>
       <use xlink:href="#me0e4799401" x="324.043454" y="306" style="stroke: #000000; stroke-width: 0.6"/>
      </g>
     </g>
    </g>
    <g id="xtick_16">
     <g id="line2d_68">
      <g>
       <use xlink:href="#me0e4799401" x="328.473455" y="306" style="stroke: #000000; stroke-width: 0.6"/>
      </g>
     </g>
    </g>
    <g id="xtick_17">
     <g id="line2d_69">
      <g>
       <use xlink:href="#me0e4799401" x="358.50656" y="306" style="stroke: #000000; stroke-width: 0.6"/>
      </g>
     </g>
    </g>
    <g id="xtick_18">
     <g id="line2d_70">
      <g>
       <use xlink:href="#me0e4799401" x="373.756728" y="306" style="stroke: #000000; stroke-width: 0.6"/>
      </g>
     </g>
    </g>
    <g id="xtick_19">
     <g id="line2d_71">
      <g>
       <use xlink:href="#me0e4799401" x="384.576894" y="306" style="stroke: #000000; stroke-width: 0.6"/>
      </g>
     </g>
    </g>
    <g id="xtick_20">
     <g id="line2d_72">
      <g>
       <use xlink:href="#me0e4799401" x="392.969666" y="306" style="stroke: #000000; stroke-width: 0.6"/>
      </g>
     </g>
    </g>
    <g id="xtick_21">
     <g id="line2d_73">
      <g>
       <use xlink:href="#me0e4799401" x="399.827061" y="306" style="stroke: #000000; stroke-width: 0.6"/>
      </g>
     </g>
    </g>
    <g id="xtick_22">
     <g id="line2d_74">
      <g>
       <use xlink:href="#me0e4799401" x="405.624906" y="306" style="stroke: #000000; stroke-width: 0.6"/>
      </g>
     </g>
    </g>
    <g id="xtick_23">
     <g id="line2d_75">
      <g>
       <use xlink:href="#me0e4799401" x="410.647227" y="306" style="stroke: #000000; stroke-width: 0.6"/>
      </g>
     </g>
    </g>
    <g id="xtick_24">
     <g id="line2d_76">
      <g>
       <use xlink:href="#me0e4799401" x="415.077229" y="306" style="stroke: #000000; stroke-width: 0.6"/>
      </g>
     </g>
    </g>
    <g id="text_18">
     <!-- $x$ -->
     <g transform="translate(328.376226 340.73) scale(0.14 -0.14)">
      <use xlink:href="#Cmmi10-78" transform="translate(0 0.8125)"/>
     </g>
    </g>
   </g>
   <g id="matplotlib.axis_4">
    <g id="ytick_29">
     <g id="line2d_77">
      <path d="M 245.832453 306 
L 419.04 306 
" clip-path="url(#p752061c095)" style="fill: none; stroke: #b0b0b0; stroke-width: 0.8; stroke-linecap: square"/>
     </g>
     <g id="line2d_78">
      <g>
       <use xlink:href="#m5ec587386e" x="245.832453" y="306" style="stroke: #000000; stroke-width: 0.8"/>
      </g>
     </g>
    </g>
    <g id="ytick_30">
     <g id="line2d_79">
      <path d="M 245.832453 222 
L 419.04 222 
" clip-path="url(#p752061c095)" style="fill: none; stroke: #b0b0b0; stroke-width: 0.8; stroke-linecap: square"/>
     </g>
     <g id="line2d_80">
      <g>
       <use xlink:href="#m5ec587386e" x="245.832453" y="222" style="stroke: #000000; stroke-width: 0.8"/>
      </g>
     </g>
    </g>
    <g id="ytick_31">
     <g id="line2d_81">
      <path d="M 245.832453 138 
L 419.04 138 
" clip-path="url(#p752061c095)" style="fill: none; stroke: #b0b0b0; stroke-width: 0.8; stroke-linecap: square"/>
     </g>
     <g id="line2d_82">
      <g>
       <use xlink:href="#m5ec587386e" x="245.832453" y="138" style="stroke: #000000; stroke-width: 0.8"/>
      </g>
     </g>
    </g>
    <g id="ytick_32">
     <g id="line2d_83">
      <path d="M 245.832453 54 
L 419.04 54 
" clip-path="url(#p752061c095)" style="fill: none; stroke: #b0b0b0; stroke-width: 0.8; stroke-linecap: square"/>
     </g>
     <g id="line2d_84">
      <g>
       <use xlink:href="#m5ec587386e" x="245.832453" y="54" style="stroke: #000000; stroke-width: 0.8"/>
      </g>
     </g>
    </g>
    <g id="ytick_33">
     <g id="line2d_85">
      <g>
       <use xlink:href="#mc0c6ef5c3d" x="245.832453" y="280.71348" style="stroke: #000000; stroke-width: 0.6"/>
      </g>
     </g>
    </g>
    <g id="ytick_34">
     <g id="line2d_86">
      <g>
       <use xlink:href="#mc0c6ef5c3d" x="245.832453" y="265.921815" style="stroke: #000000; stroke-width: 0.6"/>
      </g>
     </g>
    </g>
    <g id="ytick_35">
     <g id="line2d_87">
      <g>
       <use xlink:href="#mc0c6ef5c3d" x="245.832453" y="255.426961" style="stroke: #000000; stroke-width: 0.6"/>
      </g>
     </g>
    </g>
    <g id="ytick_36">
     <g id="line2d_88">
      <g>
       <use xlink:href="#mc0c6ef5c3d" x="245.832453" y="247.28652" style="stroke: #000000; stroke-width: 0.6"/>
      </g>
     </g>
    </g>
    <g id="ytick_37">
     <g id="line2d_89">
      <g>
       <use xlink:href="#mc0c6ef5c3d" x="245.832453" y="240.635295" style="stroke: #000000; stroke-width: 0.6"/>
      </g>
     </g>
    </g>
    <g id="ytick_38">
     <g id="line2d_90">
      <g>
       <use xlink:href="#mc0c6ef5c3d" x="245.832453" y="235.011765" style="stroke: #000000; stroke-width: 0.6"/>
      </g>
     </g>
    </g>
    <g id="ytick_39">
     <g id="line2d_91">
      <g>
       <use xlink:href="#mc0c6ef5c3d" x="245.832453" y="230.140441" style="stroke: #000000; stroke-width: 0.6"/>
      </g>
     </g>
    </g>
    <g id="ytick_40">
     <g id="line2d_92">
      <g>
       <use xlink:href="#mc0c6ef5c3d" x="245.832453" y="225.843629" style="stroke: #000000; stroke-width: 0.6"/>
      </g>
     </g>
    </g>
    <g id="ytick_41">
     <g id="line2d_93">
      <g>
       <use xlink:href="#mc0c6ef5c3d" x="245.832453" y="196.71348" style="stroke: #000000; stroke-width: 0.6"/>
      </g>
     </g>
    </g>
    <g id="ytick_42">
     <g id="line2d_94">
      <g>
       <use xlink:href="#mc0c6ef5c3d" x="245.832453" y="181.921815" style="stroke: #000000; stroke-width: 0.6"/>
      </g>
     </g>
    </g>
    <g id="ytick_43">
     <g id="line2d_95">
      <g>
       <use xlink:href="#mc0c6ef5c3d" x="245.832453" y="171.426961" style="stroke: #000000; stroke-width: 0.6"/>
      </g>
     </g>
    </g>
    <g id="ytick_44">
     <g id="line2d_96">
      <g>
       <use xlink:href="#mc0c6ef5c3d" x="245.832453" y="163.28652" style="stroke: #000000; stroke-width: 0.6"/>
      </g>
     </g>
    </g>
    <g id="ytick_45">
     <g id="line2d_97">
      <g>
       <use xlink:href="#mc0c6ef5c3d" x="245.832453" y="156.635295" style="stroke: #000000; stroke-width: 0.6"/>
      </g>
     </g>
    </g>
    <g id="ytick_46">
     <g id="line2d_98">
      <g>
       <use xlink:href="#mc0c6ef5c3d" x="245.832453" y="151.011765" style="stroke: #000000; stroke-width: 0.6"/>
      </g>
     </g>
    </g>
    <g id="ytick_47">
     <g id="line2d_99">
      <g>
       <use xlink:href="#mc0c6ef5c3d" x="245.832453" y="146.140441" style="stroke: #000000; stroke-width: 0.6"/>
      </g>
     </g>
    </g>
    <g id="ytick_48">
     <g id="line2d_100">
      <g>
       <use xlink:href="#mc0c6ef5c3d" x="245.832453" y="141.843629" style="stroke: #000000; stroke-width: 0.6"/>
      </g>
     </g>
    </g>
    <g id="ytick_49">
     <g id="line2d_101">
      <g>
       <use xlink:href="#mc0c6ef5c3d" x="245.832453" y="112.71348" style="stroke: #000000; stroke-width: 0.6"/>
      </g>
     </g>
    </g>
    <g id="ytick_50">
     <g id="line2d_102">
      <g>
       <use xlink:href="#mc0c6ef5c3d" x="245.832453" y="97.921815" style="stroke: #000000; stroke-width: 0.6"/>
      </g>
     </g>
    </g>
    <g id="ytick_51">
     <g id="line2d_103">
      <g>
       <use xlink:href="#mc0c6ef5c3d" x="245.832453" y="87.426961" style="stroke: #000000; stroke-width: 0.6"/>
      </g>
     </g>
    </g>
    <g id="ytick_52">
     <g id="line2d_104">
      <g>
       <use xlink:href="#mc0c6ef5c3d" x="245.832453" y="79.28652" style="stroke: #000000; stroke-width: 0.6"/>
      </g>
     </g>
    </g>
    <g id="ytick_53">
     <g id="line2d_105">
      <g>
       <use xlink:href="#mc0c6ef5c3d" x="245.832453" y="72.635295" style="stroke: #000000; stroke-width: 0.6"/>
      </g>
     </g>
    </g>
    <g id="ytick_54">
     <g id="line2d_106">
      <g>
       <use xlink:href="#mc0c6ef5c3d" x="245.832453" y="67.011765" style="stroke: #000000; stroke-width: 0.6"/>
      </g>
     </g>
    </g>
    <g id="ytick_55">
     <g id="line2d_107">
      <g>
       <use xlink:href="#mc0c6ef5c3d" x="245.832453" y="62.140441" style="stroke: #000000; stroke-width: 0.6"/>
      </g>
     </g>
    </g>
    <g id="ytick_56">
     <g id="line2d_108">
      <g>
       <use xlink:href="#mc0c6ef5c3d" x="245.832453" y="57.843629" style="stroke: #000000; stroke-width: 0.6"/>
      </g>
     </g>
    </g>
   </g>
   <g id="line2d_109">
    <path d="M 245.832453 138.451132 
L 271.902786 157.086811 
L 287.152954 168.114579 
L 297.97312 175.962313 
L 306.365893 182.056862 
L 313.223288 187.039517 
L 319.021132 191.25378 
L 324.043454 194.905156 
L 328.473455 198.126385 
L 332.436226 201.008184 
L 336.020989 203.615297 
L 339.293621 205.995551 
L 342.304151 208.18528 
L 345.091466 210.212732 
L 347.686394 212.100306 
L 350.113787 213.866063 
L 352.393973 215.524776 
L 354.543789 217.088684 
L 356.57734 218.568041 
L 358.50656 219.971523 
L 360.341633 221.306534 
L 362.091323 222.579445 
L 363.763222 223.795778 
L 365.363955 224.96035 
L 366.899333 226.077386 
L 368.374484 227.150617 
L 369.793956 228.183348 
L 371.161799 229.178525 
L 372.481638 230.138785 
L 373.756728 231.066494 
L 374.990003 231.963789 
L 376.184121 232.832599 
L 377.34149 233.674678 
L 378.464306 234.491623 
L 379.554572 235.28489 
L 380.614122 236.055813 
L 381.64464 236.805618 
L 382.647674 237.53543 
L 383.624652 238.246287 
L 384.576894 238.939151 
L 385.505621 239.614909 
L 386.411967 240.274385 
L 387.296985 240.918347 
L 388.161656 241.547507 
L 389.006895 242.162531 
L 389.833556 242.76404 
L 390.642437 243.352615 
L 391.434288 243.928802 
L 392.209811 244.49311 
L 392.969666 245.04602 
L 393.714474 245.587983 
L 394.444818 246.119425 
L 395.16125 246.640746 
L 395.86429 247.152325 
L 396.554429 247.654518 
L 397.232133 248.147665 
L 397.897841 248.632086 
L 398.551972 249.108083 
L 399.194919 249.575946 
L 399.827061 250.035947 
L 400.448754 250.488347 
L 401.060337 250.933392 
L 401.662134 251.371318 
L 402.254454 251.802349 
L 402.837591 252.226699 
L 403.411824 252.644572 
L 403.977422 253.056163 
L 404.53464 253.461658 
L 405.083723 253.861235 
L 405.624906 254.255063 
L 406.158412 254.643307 
L 406.684456 255.026123 
L 407.203244 255.40366 
L 407.714973 255.776061 
L 408.219834 256.143466 
L 408.718007 256.506005 
L 409.209668 256.863807 
L 409.694985 257.216993 
L 410.17412 257.565681 
L 410.647227 257.909985 
L 411.114457 258.250012 
L 411.575954 258.585869 
L 412.031857 258.917656 
L 412.4823 259.245471 
L 412.927413 259.569408 
L 413.367319 259.889557 
L 413.802139 260.206006 
L 414.23199 260.518839 
L 414.656984 260.828139 
L 415.077229 261.133985 
L 415.49283 261.436451 
L 415.903889 261.735614 
L 416.310504 262.031543 
L 416.712771 262.324308 
L 417.11078 262.613976 
L 417.504622 262.900612 
L 417.894382 263.184279 
L 418.280145 263.465038 
L 418.661991 263.742947 
" clip-path="url(#p752061c095)" style="fill: none; stroke: #000000; stroke-width: 1.5; stroke-linecap: square"/>
   </g>
   <g id="line2d_110">
    <g clip-path="url(#p752061c095)">
     <use xlink:href="#mf1b489baa4" x="245.832453" y="138.451132" style="fill: #ffffff; stroke: #000000"/>
     <use xlink:href="#mf1b489baa4" x="271.902786" y="157.086811" style="fill: #ffffff; stroke: #000000"/>
     <use xlink:href="#mf1b489baa4" x="287.152954" y="168.114579" style="fill: #ffffff; stroke: #000000"/>
     <use xlink:href="#mf1b489baa4" x="297.97312" y="175.962313" style="fill: #ffffff; stroke: #000000"/>
     <use xlink:href="#mf1b489baa4" x="306.365893" y="182.056862" style="fill: #ffffff; stroke: #000000"/>
     <use xlink:href="#mf1b489baa4" x="313.223288" y="187.039517" style="fill: #ffffff; stroke: #000000"/>
     <use xlink:href="#mf1b489baa4" x="319.021132" y="191.25378" style="fill: #ffffff; stroke: #000000"/>
     <use xlink:href="#mf1b489baa4" x="324.043454" y="194.905156" style="fill: #ffffff; stroke: #000000"/>
     <use xlink:href="#mf1b489baa4" x="328.473455" y="198.126385" style="fill: #ffffff; stroke: #000000"/>
     <use xlink:href="#mf1b489baa4" x="332.436226" y="201.008184" style="fill: #ffffff; stroke: #000000"/>
    </g>
   </g>
   <g id="line2d_111">
    <path d="M 245.832453 138.52467 
L 271.902786 150.80689 
L 287.152954 158.133311 
L 297.97312 163.35865 
L 306.365893 167.42058 
L 313.223288 170.743222 
L 319.021132 173.554428 
L 324.043454 175.99074 
L 328.473455 178.140444 
L 332.436226 180.063914 
L 336.020989 181.804263 
L 339.293621 183.393348 
L 342.304151 184.855378 
L 345.091466 186.209178 
L 347.686394 187.469679 
L 350.113787 188.648919 
L 352.393973 189.75675 
L 354.543789 190.80133 
L 356.57734 191.789499 
L 358.50656 192.727041 
L 360.341633 193.618895 
L 362.091323 194.469311 
L 363.763222 195.28197 
L 365.363955 196.060087 
L 366.899333 196.806481 
L 368.374484 197.523638 
L 369.793956 198.213766 
L 371.161799 198.878828 
L 372.481638 199.520585 
L 373.756728 200.140615 
L 374.990003 200.740344 
L 376.184121 201.321058 
L 377.34149 201.883929 
L 378.464306 202.430022 
L 379.554572 202.960308 
L 380.614122 203.475678 
L 381.64464 203.976948 
L 382.647674 204.464872 
L 383.624652 204.940141 
L 384.576894 205.403397 
L 385.505621 205.855232 
L 386.411967 206.296197 
L 387.296985 206.726802 
L 388.161656 207.147525 
L 389.006895 207.558808 
L 389.833556 207.961067 
L 390.642437 208.354691 
L 391.434288 208.740041 
L 392.209811 209.11746 
L 392.969666 209.487267 
L 393.714474 209.849764 
L 394.444818 210.205235 
L 395.16125 210.553947 
L 395.86429 210.896153 
L 396.554429 211.232092 
L 397.232133 211.561988 
L 397.897841 211.886057 
L 398.551972 212.2045 
L 399.194919 212.51751 
L 399.827061 212.82527 
L 400.448754 213.127952 
L 401.060337 213.425723 
L 401.662134 213.718738 
L 402.254454 214.007148 
L 402.837591 214.291096 
L 403.411824 214.570717 
L 403.977422 214.846142 
L 404.53464 215.117495 
L 405.083723 215.384895 
L 405.624906 215.648456 
L 406.158412 215.908285 
L 406.684456 216.164489 
L 407.203244 216.417166 
L 407.714973 216.666412 
L 408.219834 216.912321 
L 408.718007 217.154979 
L 409.209668 217.394472 
L 409.694985 217.630882 
L 410.17412 217.864287 
L 410.647227 218.094762 
L 411.114457 218.322381 
L 411.575954 218.547213 
L 412.031857 218.769327 
L 412.4823 218.988786 
L 412.927413 219.205654 
L 413.367319 219.419992 
L 413.802139 219.631857 
L 414.23199 219.841307 
L 414.656984 220.048396 
L 415.077229 220.253176 
L 415.49283 220.455699 
L 415.903889 220.656014 
L 416.310504 220.854168 
L 416.712771 221.050209 
L 417.11078 221.24418 
L 417.504622 221.436125 
L 417.894382 221.626085 
L 418.280145 221.814102 
L 418.661991 222.000216 
" clip-path="url(#p752061c095)" style="fill: none; stroke-dasharray: 5.55,2.4; stroke-dashoffset: 0; stroke: #000000; stroke-width: 1.5"/>
   </g>
   <g id="line2d_112">
    <g clip-path="url(#p752061c095)">
     <use xlink:href="#mf1b489baa4" x="245.832453" y="138.52467" style="fill: #ffffff; stroke: #000000"/>
     <use xlink:href="#mf1b489baa4" x="271.902786" y="150.80689" style="fill: #ffffff; stroke: #000000"/>
     <use xlink:href="#mf1b489baa4" x="287.152954" y="158.133311" style="fill: #ffffff; stroke: #000000"/>
     <use xlink:href="#mf1b489baa4" x="297.97312" y="163.35865" style="fill: #ffffff; stroke: #000000"/>
     <use xlink:href="#mf1b489baa4" x="306.365893" y="167.42058" style="fill: #ffffff; stroke: #000000"/>
     <use xlink:href="#mf1b489baa4" x="313.223288" y="170.743222" style="fill: #ffffff; stroke: #000000"/>
     <use xlink:href="#mf1b489baa4" x="319.021132" y="173.554428" style="fill: #ffffff; stroke: #000000"/>
     <use xlink:href="#mf1b489baa4" x="324.043454" y="175.99074" style="fill: #ffffff; stroke: #000000"/>
     <use xlink:href="#mf1b489baa4" x="328.473455" y="178.140444" style="fill: #ffffff; stroke: #000000"/>
     <use xlink:href="#mf1b489baa4" x="332.436226" y="180.063914" style="fill: #ffffff; stroke: #000000"/>
    </g>
   </g>
   <g id="line2d_113">
    <path d="M 245.832453 139.108006 
L 271.902786 145.34868 
L 287.152954 149.100319 
L 297.97312 151.785569 
L 306.365893 153.877865 
L 313.223288 155.592447 
L 319.021132 157.045279 
L 324.043454 158.305989 
L 328.473455 159.419658 
L 332.436226 160.417151 
L 336.020989 161.320528 
L 339.293621 162.146106 
L 342.304151 162.906289 
L 345.091466 163.610732 
L 347.686394 164.267096 
L 350.113787 164.881562 
L 352.393973 165.459189 
L 354.543789 166.004172 
L 356.57734 166.520025 
L 358.50656 167.009724 
L 360.341633 167.475811 
L 362.091323 167.920473 
L 363.763222 168.345606 
L 365.363955 168.752865 
L 366.899333 169.143703 
L 368.374484 169.519403 
L 369.793956 169.881101 
L 371.161799 170.229812 
L 372.481638 170.566443 
L 373.756728 170.891808 
L 374.990003 171.206644 
L 376.184121 171.511616 
L 377.34149 171.807327 
L 378.464306 172.094329 
L 379.554572 172.373123 
L 380.614122 172.64417 
L 381.64464 172.907892 
L 382.647674 173.164678 
L 383.624652 173.414887 
L 384.576894 173.658849 
L 385.505621 173.896872 
L 386.411967 174.12924 
L 387.296985 174.356219 
L 388.161656 174.578054 
L 389.006895 174.794976 
L 389.833556 175.0072 
L 390.642437 175.214926 
L 391.434288 175.418343 
L 392.209811 175.617627 
L 392.969666 175.812946 
L 393.714474 176.004454 
L 394.444818 176.1923 
L 395.16125 176.376621 
L 395.86429 176.55755 
L 396.554429 176.735209 
L 397.232133 176.909716 
L 397.897841 177.081182 
L 398.551972 177.249712 
L 399.194919 177.415406 
L 399.827061 177.578359 
L 400.448754 177.738661 
L 401.060337 177.896397 
L 401.662134 178.051649 
L 402.254454 178.204495 
L 402.837591 178.355009 
L 403.411824 178.503262 
L 403.977422 178.649322 
L 404.53464 178.793253 
L 405.083723 178.935116 
L 405.624906 179.074972 
L 406.158412 179.212877 
L 406.684456 179.348884 
L 407.203244 179.483046 
L 407.714973 179.615413 
L 408.219834 179.746033 
L 408.718007 179.874952 
L 409.209668 180.002214 
L 409.694985 180.127861 
L 410.17412 180.251934 
L 410.647227 180.374474 
L 411.114457 180.495516 
L 411.575954 180.615099 
L 412.031857 180.733257 
L 412.4823 180.850025 
L 412.927413 180.965434 
L 413.367319 181.079517 
L 413.802139 181.192303 
L 414.23199 181.303824 
L 414.656984 181.414105 
L 415.077229 181.523177 
L 415.49283 181.631064 
L 415.903889 181.737792 
L 416.310504 181.843388 
L 416.712771 181.947873 
L 417.11078 182.051273 
L 417.504622 182.15361 
L 417.894382 182.254904 
L 418.280145 182.355179 
L 418.661991 182.454453 
" clip-path="url(#p752061c095)" style="fill: none; stroke-dasharray: 9.6,2.4,1.5,2.4; stroke-dashoffset: 0; stroke: #000000; stroke-width: 1.5"/>
   </g>
   <g id="line2d_114">
    <g clip-path="url(#p752061c095)">
     <use xlink:href="#mf1b489baa4" x="245.832453" y="139.108006" style="fill: #ffffff; stroke: #000000"/>
     <use xlink:href="#mf1b489baa4" x="271.902786" y="145.34868" style="fill: #ffffff; stroke: #000000"/>
     <use xlink:href="#mf1b489baa4" x="287.152954" y="149.100319" style="fill: #ffffff; stroke: #000000"/>
     <use xlink:href="#mf1b489baa4" x="297.97312" y="151.785569" style="fill: #ffffff; stroke: #000000"/>
     <use xlink:href="#mf1b489baa4" x="306.365893" y="153.877865" style="fill: #ffffff; stroke: #000000"/>
     <use xlink:href="#mf1b489baa4" x="313.223288" y="155.592447" style="fill: #ffffff; stroke: #000000"/>
     <use xlink:href="#mf1b489baa4" x="319.021132" y="157.045279" style="fill: #ffffff; stroke: #000000"/>
     <use xlink:href="#mf1b489baa4" x="324.043454" y="158.305989" style="fill: #ffffff; stroke: #000000"/>
     <use xlink:href="#mf1b489baa4" x="328.473455" y="159.419658" style="fill: #ffffff; stroke: #000000"/>
     <use xlink:href="#mf1b489baa4" x="332.436226" y="160.417151" style="fill: #ffffff; stroke: #000000"/>
    </g>
   </g>
   <g id="line2d_115">
    <path d="M 245.832453 138 
L 271.902786 138 
L 287.152954 138 
L 297.97312 138 
L 306.365893 138 
L 313.223288 138 
L 319.021132 138 
L 324.043454 138 
L 328.473455 138 
L 332.436226 138 
L 336.020989 138 
L 339.293621 138 
L 342.304151 138 
L 345.091466 138 
L 347.686394 138 
L 350.113787 138 
L 352.393973 138 
L 354.543789 138 
L 356.57734 138 
L 358.50656 138 
L 360.341633 138 
L 362.091323 138 
L 363.763222 138 
L 365.363955 138 
L 366.899333 138 
L 368.374484 138 
L 369.793956 138 
L 371.161799 138 
L 372.481638 138 
L 373.756728 138 
L 374.990003 138 
L 376.184121 138 
L 377.34149 138 
L 378.464306 138 
L 379.554572 138 
L 380.614122 138 
L 381.64464 138 
L 382.647674 138 
L 383.624652 138 
L 384.576894 138 
L 385.505621 138 
L 386.411967 138 
L 387.296985 138 
L 388.161656 138 
L 389.006895 138 
L 389.833556 138 
L 390.642437 138 
L 391.434288 138 
L 392.209811 138 
L 392.969666 138 
L 393.714474 138 
L 394.444818 138 
L 395.16125 138 
L 395.86429 138 
L 396.554429 138 
L 397.232133 138 
L 397.897841 138 
L 398.551972 138 
L 399.194919 138 
L 399.827061 138 
L 400.448754 138 
L 401.060337 138 
L 401.662134 138 
L 402.254454 138 
L 402.837591 138 
L 403.411824 138 
L 403.977422 138 
L 404.53464 138 
L 405.083723 138 
L 405.624906 138 
L 406.158412 138 
L 406.684456 138 
L 407.203244 138 
L 407.714973 138 
L 408.219834 138 
L 408.718007 138 
L 409.209668 138 
L 409.694985 138 
L 410.17412 138 
L 410.647227 138 
L 411.114457 138 
L 411.575954 138 
L 412.031857 138 
L 412.4823 138 
L 412.927413 138 
L 413.367319 138 
L 413.802139 138 
L 414.23199 138 
L 414.656984 138 
L 415.077229 138 
L 415.49283 138 
L 415.903889 138 
L 416.310504 138 
L 416.712771 138 
L 417.11078 138 
L 417.504622 138 
L 417.894382 138 
L 418.280145 138 
L 418.661991 138 
" clip-path="url(#p752061c095)" style="fill: none; stroke-dasharray: 1.5,2.475; stroke-dashoffset: 0; stroke: #000000; stroke-width: 1.5"/>
   </g>
   <g id="line2d_116">
    <g clip-path="url(#p752061c095)">
     <use xlink:href="#mf1b489baa4" x="245.832453" y="138" style="fill: #ffffff; stroke: #000000"/>
     <use xlink:href="#mf1b489baa4" x="271.902786" y="138" style="fill: #ffffff; stroke: #000000"/>
     <use xlink:href="#mf1b489baa4" x="287.152954" y="138" style="fill: #ffffff; stroke: #000000"/>
     <use xlink:href="#mf1b489baa4" x="297.97312" y="138" style="fill: #ffffff; stroke: #000000"/>
     <use xlink:href="#mf1b489baa4" x="306.365893" y="138" style="fill: #ffffff; stroke: #000000"/>
     <use xlink:href="#mf1b489baa4" x="313.223288" y="138" style="fill: #ffffff; stroke: #000000"/>
     <use xlink:href="#mf1b489baa4" x="319.021132" y="138" style="fill: #ffffff; stroke: #000000"/>
     <use xlink:href="#mf1b489baa4" x="324.043454" y="138" style="fill: #ffffff; stroke: #000000"/>
     <use xlink:href="#mf1b489baa4" x="328.473455" y="138" style="fill: #ffffff; stroke: #000000"/>
     <use xlink:href="#mf1b489baa4" x="332.436226" y="138" style="fill: #ffffff; stroke: #000000"/>
    </g>
   </g>
   <g id="patch_9">
    <path d="M 245.832453 306 
L 245.832453 54 
" style="fill: none; stroke: #000000; stroke-width: 0.8; stroke-linejoin: miter; stroke-linecap: square"/>
   </g>
   <g id="patch_10">
    <path d="M 419.04 306 
L 419.04 54 
" style="fill: none; stroke: #000000; stroke-width: 0.8; stroke-linejoin: miter; stroke-linecap: square"/>
   </g>
   <g id="patch_11">
    <path d="M 245.832453 306 
L 419.04 306 
" style="fill: none; stroke: #000000; stroke-width: 0.8; stroke-linejoin: miter; stroke-linecap: square"/>
   </g>
   <g id="patch_12">
    <path d="M 245.832453 54 
L 419.04 54 
" style="fill: none; stroke: #000000; stroke-width: 0.8; stroke-linejoin: miter; stroke-linecap: square"/>
   </g>
  </g>
  <g id="text_19">
   <!-- $\lim_{N\to\infty}\mathrm{E}[\psi_0\psi_x]$ -->
   <g transform="translate(169.548 19.8) scale(0.168 -0.168)">
    <defs>
     <path id="Cmr10-6c" d="M 197 0 
L 197 225 
Q 416 225 556 259 
Q 697 294 697 428 
L 697 3788 
Q 697 3959 645 4036 
Q 594 4113 497 4130 
Q 400 4147 197 4147 
L 197 4372 
L 1147 4441 
L 1147 428 
Q 1147 294 1287 259 
Q 1428 225 1644 225 
L 1644 0 
L 197 0 
z
" transform="scale(0.015625)"/>
     <path id="Cmr10-69" d="M 197 0 
L 197 225 
Q 416 225 556 259 
Q 697 294 697 428 
L 697 2175 
Q 697 2422 601 2478 
Q 506 2534 225 2534 
L 225 2759 
L 1147 2828 
L 1147 428 
Q 1147 294 1269 259 
Q 1391 225 1594 225 
L 1594 0 
L 197 0 
z
M 469 3928 
Q 469 4069 575 4175 
Q 681 4281 819 4281 
Q 909 4281 993 4234 
Q 1078 4188 1125 4103 
Q 1172 4019 1172 3928 
Q 1172 3791 1065 3684 
Q 959 3578 819 3578 
Q 681 3578 575 3684 
Q 469 3791 469 3928 
z
" transform="scale(0.015625)"/>
     <path id="Cmr10-6d" d="M 191 0 
L 191 225 
Q 409 225 550 259 
Q 691 294 691 428 
L 691 2175 
Q 691 2347 639 2423 
Q 588 2500 491 2517 
Q 394 2534 191 2534 
L 191 2759 
L 1119 2828 
L 1119 2203 
Q 1247 2478 1498 2653 
Q 1750 2828 2047 2828 
Q 2784 2828 2913 2228 
Q 3041 2497 3287 2662 
Q 3534 2828 3828 2828 
Q 4119 2828 4317 2734 
Q 4516 2641 4616 2448 
Q 4716 2256 4716 1966 
L 4716 428 
Q 4716 294 4858 259 
Q 5000 225 5216 225 
L 5216 0 
L 3750 0 
L 3750 225 
Q 3969 225 4109 259 
Q 4250 294 4250 428 
L 4250 1947 
Q 4250 2269 4159 2466 
Q 4069 2663 3788 2663 
Q 3419 2663 3178 2366 
Q 2938 2069 2938 1691 
L 2938 428 
Q 2938 294 3078 259 
Q 3219 225 3438 225 
L 3438 0 
L 1972 0 
L 1972 225 
Q 2191 225 2331 259 
Q 2472 294 2472 428 
L 2472 1947 
Q 2472 2259 2381 2461 
Q 2291 2663 2009 2663 
Q 1638 2663 1398 2366 
Q 1159 2069 1159 1691 
L 1159 428 
Q 1159 294 1300 259 
Q 1441 225 1656 225 
L 1656 0 
L 191 0 
z
" transform="scale(0.015625)"/>
     <path id="Cmmi10-4e" d="M 300 0 
Q 238 0 238 84 
Q 241 100 250 139 
Q 259 178 276 201 
Q 294 225 319 225 
Q 931 225 1031 616 
L 1900 4116 
Q 1722 4147 1338 4147 
Q 1275 4147 1275 4231 
Q 1278 4247 1287 4286 
Q 1297 4325 1314 4348 
Q 1331 4372 1356 4372 
L 2463 4372 
Q 2509 4372 2522 4331 
L 3944 947 
L 4653 3781 
Q 4666 3850 4666 3878 
Q 4666 4147 4172 4147 
Q 4109 4147 4109 4231 
Q 4131 4313 4143 4342 
Q 4156 4372 4219 4372 
L 5588 4372 
Q 5650 4372 5650 4288 
Q 5647 4272 5637 4233 
Q 5628 4194 5611 4170 
Q 5594 4147 5569 4147 
Q 4956 4147 4856 3756 
L 3938 56 
Q 3916 0 3872 0 
L 3794 0 
Q 3750 0 3738 44 
L 2106 3916 
L 2094 3956 
Q 2081 3969 2081 3975 
L 1234 588 
Q 1228 572 1225 548 
Q 1222 525 1216 494 
Q 1216 328 1359 276 
Q 1503 225 1716 225 
Q 1778 225 1778 141 
Q 1756 53 1740 26 
Q 1725 0 1672 0 
L 300 0 
z
" transform="scale(0.015625)"/>
     <path id="Cmsy10-21" d="M 481 1472 
Q 428 1472 393 1512 
Q 359 1553 359 1600 
Q 359 1647 393 1687 
Q 428 1728 481 1728 
L 5338 1728 
Q 5094 1903 4906 2133 
Q 4719 2363 4594 2627 
Q 4469 2891 4416 3188 
Q 4416 3272 4481 3272 
L 4609 3272 
Q 4631 3272 4648 3253 
Q 4666 3234 4672 3213 
Q 4725 2938 4839 2702 
Q 4953 2466 5125 2262 
Q 5297 2059 5509 1912 
Q 5722 1766 5991 1672 
Q 6034 1644 6034 1600 
Q 6034 1550 5991 1538 
Q 5656 1422 5378 1192 
Q 5100 963 4919 652 
Q 4738 341 4672 -13 
Q 4666 -34 4647 -53 
Q 4628 -72 4609 -72 
L 4481 -72 
Q 4416 -72 4416 13 
Q 4497 450 4740 836 
Q 4984 1222 5338 1472 
L 481 1472 
z
" transform="scale(0.015625)"/>
     <path id="Cmsy10-31" d="M 1575 -72 
Q 1213 -72 933 140 
Q 653 353 506 690 
Q 359 1028 359 1381 
Q 359 1653 445 1912 
Q 531 2172 693 2378 
Q 856 2584 1086 2706 
Q 1316 2828 1594 2828 
Q 1881 2828 2150 2718 
Q 2419 2609 2642 2428 
Q 2866 2247 3059 2009 
L 3250 1753 
Q 3441 2056 3672 2295 
Q 3903 2534 4195 2681 
Q 4488 2828 4819 2828 
Q 5097 2828 5325 2704 
Q 5553 2581 5712 2368 
Q 5872 2156 5953 1898 
Q 6034 1641 6034 1381 
Q 6034 1019 5882 683 
Q 5731 347 5451 137 
Q 5172 -72 4800 -72 
Q 4381 -72 4004 153 
Q 3628 378 3334 750 
L 3144 1006 
Q 2850 528 2451 228 
Q 2053 -72 1575 -72 
z
M 1509 153 
Q 2322 153 2963 1241 
L 2625 1672 
Q 2331 2059 2078 2278 
Q 1825 2497 1491 2497 
Q 1206 2497 986 2336 
Q 766 2175 645 1915 
Q 525 1656 525 1375 
Q 525 1159 592 942 
Q 659 725 787 547 
Q 916 369 1098 261 
Q 1281 153 1509 153 
z
M 3769 1088 
Q 4063 700 4316 481 
Q 4569 263 4903 263 
Q 5116 263 5294 356 
Q 5472 450 5601 609 
Q 5731 769 5800 969 
Q 5869 1169 5869 1381 
Q 5869 1678 5750 1961 
Q 5631 2244 5407 2425 
Q 5184 2606 4884 2606 
Q 4072 2606 3431 1516 
L 3769 1088 
z
" transform="scale(0.015625)"/>
     <path id="Cmr10-45" d="M 197 0 
L 197 225 
Q 856 225 856 428 
L 856 3944 
Q 856 4147 197 4147 
L 197 4372 
L 3816 4372 
L 3994 2906 
L 3809 2906 
Q 3741 3459 3617 3709 
Q 3494 3959 3222 4053 
Q 2950 4147 2406 4147 
L 1778 4147 
Q 1663 4147 1598 4137 
Q 1534 4128 1493 4083 
Q 1453 4038 1453 3944 
L 1453 2381 
L 1925 2381 
Q 2250 2381 2411 2436 
Q 2572 2491 2633 2645 
Q 2694 2800 2694 3128 
L 2881 3128 
L 2881 1409 
L 2694 1409 
Q 2694 1734 2633 1890 
Q 2572 2047 2411 2101 
Q 2250 2156 1925 2156 
L 1453 2156 
L 1453 428 
Q 1453 291 1531 258 
Q 1609 225 1778 225 
L 2456 225 
Q 2900 225 3173 295 
Q 3447 366 3598 530 
Q 3750 694 3833 955 
Q 3916 1216 3988 1678 
L 4172 1678 
L 3903 0 
L 197 0 
z
" transform="scale(0.015625)"/>
     <path id="Cmr10-5b" d="M 756 -1600 
L 756 4800 
L 1631 4800 
L 1631 4544 
L 1013 4544 
L 1013 -1344 
L 1631 -1344 
L 1631 -1600 
L 756 -1600 
z
" transform="scale(0.015625)"/>
     <path id="Cmmi10-c3" d="M 1522 -1247 
L 1825 -56 
Q 1547 -56 1286 48 
Q 1025 153 864 356 
Q 703 559 703 850 
Q 703 1016 762 1228 
Q 822 1441 889 1619 
Q 956 1797 1069 2088 
Q 1153 2322 1153 2472 
Q 1153 2663 1013 2663 
Q 759 2663 595 2402 
Q 431 2141 353 1819 
Q 341 1778 300 1778 
L 225 1778 
Q 172 1778 172 1838 
L 172 1856 
Q 275 2238 487 2533 
Q 700 2828 1025 2828 
Q 1253 2828 1411 2678 
Q 1569 2528 1569 2297 
Q 1569 2178 1516 2047 
Q 1403 1756 1337 1584 
Q 1272 1413 1212 1195 
Q 1153 978 1153 806 
Q 1153 494 1348 322 
Q 1544 150 1863 109 
L 2938 4403 
Q 2950 4441 2988 4441 
L 3066 4441 
Q 3116 4441 3116 4378 
L 2047 97 
L 2119 97 
Q 2388 97 2686 256 
Q 2984 416 3229 675 
Q 3475 934 3619 1232 
Q 3763 1531 3763 1791 
Q 3763 1984 3700 2092 
Q 3638 2200 3538 2317 
Q 3438 2434 3438 2503 
Q 3438 2628 3541 2731 
Q 3644 2834 3769 2834 
Q 3922 2834 3989 2693 
Q 4056 2553 4056 2375 
Q 4056 2188 4018 2000 
Q 3981 1813 3916 1556 
Q 3769 972 3303 506 
Q 3144 347 2951 214 
Q 2759 81 2545 4 
Q 2331 -72 2113 -72 
L 2009 -72 
L 1709 -1275 
Q 1697 -1313 1656 -1313 
L 1581 -1313 
Q 1556 -1313 1539 -1292 
Q 1522 -1272 1522 -1247 
z
" transform="scale(0.015625)"/>
     <path id="Cmr10-5d" d="M 141 -1600 
L 141 -1344 
L 763 -1344 
L 763 4544 
L 141 4544 
L 141 4800 
L 1019 4800 
L 1019 -1600 
L 141 -1600 
z
" transform="scale(0.015625)"/>
    </defs>
    <use xlink:href="#Cmr10-6c" transform="translate(29 0)"/>
    <use xlink:href="#Cmr10-69" transform="translate(56.685547 0)"/>
    <use xlink:href="#Cmr10-6d" transform="translate(84.371094 0)"/>
    <use xlink:href="#Cmmi10-4e" transform="translate(0 -66.56875) scale(0.7)"/>
    <use xlink:href="#Cmsy10-21" transform="translate(56.225586 -66.56875) scale(0.7)"/>
    <use xlink:href="#Cmsy10-31" transform="translate(126.225586 -66.56875) scale(0.7)"/>
    <use xlink:href="#Cmr10-45" transform="translate(196.225586 0)"/>
    <use xlink:href="#Cmr10-5b" transform="translate(264.243164 0)"/>
    <use xlink:href="#Cmmi10-c3" transform="translate(291.928711 0)"/>
    <use xlink:href="#Cmr10-30" transform="translate(357.016602 -17.00625) scale(0.7)"/>
    <use xlink:href="#Cmmi10-c3" transform="translate(413.026399 0)"/>
    <use xlink:href="#Cmmi10-78" transform="translate(478.11429 -17.00625) scale(0.7)"/>
    <use xlink:href="#Cmr10-5d" transform="translate(524.447688 0)"/>
   </g>
  </g>
 </g>
 <defs>
  <clipPath id="pa014d58adc">
   <rect x="51.84" y="54" width="173.207547" height="252"/>
  </clipPath>
  <clipPath id="p752061c095">
   <rect x="245.832453" y="54" width="173.207547" height="252"/>
  </clipPath>
 </defs>
</svg>
